<svg width="40" height="40" viewBox="0 0 40 40" fill="none" xmlns="http://www.w3.org/2000/svg">
<path d="M23.333 5V11.6667C23.333 12.1087 23.5086 12.5326 23.8212 12.8452C24.1337 13.1577 24.5576 13.3333 24.9997 13.3333H31.6663M23.333 5H11.6663C10.7823 5 9.93444 5.35119 9.30932 5.97631C8.6842 6.60143 8.33301 7.44928 8.33301 8.33333V31.6667C8.33301 32.5507 8.6842 33.3986 9.30932 34.0237C9.93444 34.6488 10.7823 35 11.6663 35H28.333C29.2171 35 30.0649 34.6488 30.69 34.0237C31.3152 33.3986 31.6663 32.5507 31.6663 31.6667V13.3333M23.333 5L31.6663 13.3333M18.333 20.8333C18.333 20.1703 18.0696 19.5344 17.6008 19.0656C17.1319 18.5967 16.496 18.3333 15.833 18.3333C15.17 18.3333 14.5341 18.5967 14.0652 19.0656C13.5964 19.5344 13.333 20.1703 13.333 20.8333V25.8333C13.333 26.4964 13.5964 27.1323 14.0652 27.6011C14.5341 28.0699 15.17 28.3333 15.833 28.3333C16.496 28.3333 17.1319 28.0699 17.6008 27.6011C18.0696 27.1323 18.333 26.4964 18.333 25.8333M21.6663 18.3333L24.1663 28.3333L26.6663 18.3333" stroke="black" stroke-width="1.5" stroke-linecap="round" stroke-linejoin="round"/>
</svg>
