<svg width="40" height="40" viewBox="0 0 40 40" fill="none" xmlns="http://www.w3.org/2000/svg">
<g clip-path="url(#clip0_2495_6393)">
<path d="M6.66797 13.3329C6.66797 11.5648 7.37035 9.86912 8.62059 8.61888C9.87083 7.36864 11.5665 6.66626 13.3346 6.66626H26.668C28.4361 6.66626 30.1318 7.36864 31.382 8.61888C32.6323 9.86912 33.3346 11.5648 33.3346 13.3329V26.6663C33.3346 28.4344 32.6323 30.1301 31.382 31.3803C30.1318 32.6305 28.4361 33.3329 26.668 33.3329H13.3346C11.5665 33.3329 9.87083 32.6305 8.62059 31.3803C7.37035 30.1301 6.66797 28.4344 6.66797 26.6663V13.3329Z" stroke="#363A35" stroke-width="1.66667" stroke-linecap="round" stroke-linejoin="round"/>
<path d="M15 20C15 21.3261 15.5268 22.5979 16.4645 23.5355C17.4021 24.4732 18.6739 25 20 25C21.3261 25 22.5979 24.4732 23.5355 23.5355C24.4732 22.5979 25 21.3261 25 20C25 18.6739 24.4732 17.4021 23.5355 16.4645C22.5979 15.5268 21.3261 15 20 15C18.6739 15 17.4021 15.5268 16.4645 16.4645C15.5268 17.4021 15 18.6739 15 20Z" stroke="#363A35" stroke-width="1.66667" stroke-linecap="round" stroke-linejoin="round"/>
<path d="M27.5 12.5V12.5171" stroke="#363A35" stroke-width="1.66667" stroke-linecap="round" stroke-linejoin="round"/>
</g>
<defs>
<clipPath id="clip0_2495_6393">
<rect width="40" height="40" fill="white"/>
</clipPath>
</defs>
</svg>
