<svg width="201" height="201" viewBox="0 0 201 201" fill="none" xmlns="http://www.w3.org/2000/svg">
<path d="M123.979 146.316C123.979 146.316 121.844 147.136 119.531 146.701C117.216 146.263 114.899 146.166 114.899 146.166C114.899 146.166 112.701 145.341 112.949 141.211L102.181 135.501L99.9359 118.565L42.9202 94.7002L42.8477 95.8927L47.9052 133.383L102.826 157.373L103.673 160.444L125.806 153.328L126.086 148.671L123.981 146.316H123.979Z" fill="#DCDDDD"/>
<path d="M96.5267 62.3798C96.5267 62.3798 94.0942 56.7172 97.5217 54.9872C100.949 53.2572 101.117 53.7072 101.117 53.7072C101.117 53.7072 104.589 46.6471 114.272 47.1621C123.955 47.6771 127.51 59.1148 127.805 62.4798C128.1 65.8449 126.7 67.6599 126.7 67.6599C126.7 67.6599 123.425 67.5674 122.73 68.2474C122.035 68.9274 122.005 66.1424 122.005 66.1424C122.005 66.1424 118.452 61.5873 114.669 60.5398C110.887 59.4923 106.467 57.0097 106.467 57.0097C106.467 57.0097 105.554 59.4798 106.364 60.6748C107.177 61.8723 107.429 62.8773 107.429 62.8773C107.429 62.8773 103.582 62.6898 102.042 61.4448C100.502 60.2023 99.6467 57.3722 99.6467 57.3722L96.5242 62.3798H96.5267Z" fill="#E8D575"/>
<path d="M138.055 56.0449C138.055 56.0449 135.94 65.5025 138.207 66.7301C140.475 67.9576 142.98 65.4925 143.68 62.86C144.38 60.2275 146.455 57.4749 146.455 57.4749L138.055 56.0449Z" fill="#DCDDDD"/>
<path d="M140.558 49.1272C140.266 48.0522 140.156 46.9347 140.386 45.8672C140.386 45.8672 136.261 51.5823 142.146 54.6648L143.886 55.1273C146.268 55.7598 147.763 51.8598 147.763 51.8598C146.131 52.9223 143.863 52.1098 142.431 51.3798C141.498 50.9048 140.821 50.0822 140.563 49.1297L140.558 49.1272Z" fill="#E8D575"/>
<path d="M133.128 140.213C132.346 142.128 130.653 143.226 128.873 144.116C128.093 144.506 127.273 144.981 126.421 145.178C126.101 145.266 125.776 145.283 125.448 145.231L125.161 144.368C125.341 143.938 126.488 143.576 126.863 143.423C127.856 143.018 127.421 141.386 126.416 141.796C125.038 142.356 123.073 143.206 123.241 145.036C123.376 146.521 124.968 147.053 126.253 146.916C127.968 146.731 129.803 145.646 131.238 144.746C132.846 143.738 134.038 142.423 134.758 140.663C135.168 139.658 133.538 139.221 133.131 140.216L133.128 140.213Z" fill="#231815"/>
<path d="M123.287 144.866C122.925 145.761 121.837 147.314 120.767 146.144C120.15 145.466 120.587 144.301 120.975 143.594C121.815 142.061 123.345 141.068 124.967 140.531C125.992 140.191 125.555 138.561 124.52 138.903C121.727 139.828 118.432 142.391 118.802 145.719C118.955 147.094 120.115 148.179 121.512 148.209C123.325 148.246 124.312 146.811 124.915 145.314C125.322 144.306 123.69 143.869 123.287 144.866Z" fill="#231815"/>
<path d="M119.605 145.774C116.818 146.821 116.513 143.156 117.36 141.466C118.33 139.528 120.383 138.501 122.41 138.056C123.47 137.823 123.023 136.196 121.963 136.428C118.838 137.113 115.743 139.231 115.25 142.609C114.843 145.404 116.915 148.581 120.053 147.401C121.06 147.024 120.623 145.391 119.605 145.774Z" fill="#231815"/>
<path d="M116.121 145.051C114.484 144.863 113.524 143.278 113.781 141.718C114.039 140.158 115.171 139.148 116.451 138.478C117.414 137.976 116.561 136.518 115.599 137.021C113.606 138.063 111.976 140.051 112.051 142.403C112.126 144.756 113.849 146.476 116.121 146.738C117.199 146.861 117.189 145.173 116.121 145.051Z" fill="#231815"/>
<path d="M104.669 157.811C103.531 146.343 102.394 134.873 101.256 123.405C101.096 121.793 100.936 120.18 100.776 118.568C100.734 118.15 100.534 117.913 100.156 117.755C93.7159 115.06 87.2759 112.363 80.8358 109.668C70.6182 105.39 60.403 101.115 50.1854 96.8376C47.8379 95.8551 45.4878 94.8726 43.1403 93.8876C42.6703 93.6901 42.0078 94.1951 42.0728 94.7001C42.9153 101.23 43.7553 107.758 44.5978 114.288C45.1678 118.715 45.7378 123.14 46.3104 127.568L46.8654 131.866C46.9354 132.403 46.8979 133.203 47.1329 133.708C47.3504 134.171 47.9079 134.298 48.3404 134.488L51.0454 135.671C54.2655 137.078 57.4855 138.483 60.7055 139.891C69.3656 143.673 78.0283 147.458 86.6884 151.241C92.1659 153.633 97.606 156.173 103.144 158.428C103.229 158.463 103.314 158.503 103.399 158.541C104.384 158.971 105.244 157.518 104.251 157.083C97.966 154.338 91.6809 151.593 85.3958 148.846C75.3382 144.451 65.2781 140.058 55.2205 135.663C52.9229 134.661 50.6254 133.656 48.3279 132.653L48.7454 133.381C47.2904 122.1 45.8378 110.823 44.3828 99.5427C44.1753 97.9276 43.9678 96.3126 43.7578 94.7001L42.6903 95.5126C49.1304 98.2076 55.5705 100.905 62.0106 103.6C72.2282 107.878 82.4433 112.153 92.6609 116.43C95.0085 117.413 97.3585 118.395 99.706 119.38L99.086 118.568C100.224 130.036 101.361 141.506 102.499 152.973C102.659 154.586 102.819 156.198 102.979 157.811C103.084 158.881 104.774 158.893 104.666 157.811H104.669Z" fill="#231815"/>
<path d="M138.727 143.118C138.855 144.263 140.58 144.783 141.462 145.183C143.472 146.098 145.53 146.923 147.582 147.738C150.712 148.981 153.863 150.183 157.02 151.351C158.04 151.728 158.48 150.098 157.468 149.723C154.698 148.701 151.94 147.648 149.192 146.568C147.21 145.791 145.227 145.003 143.275 144.153C142.562 143.843 141.852 143.528 141.16 143.178C140.925 143.058 140.687 142.883 140.445 142.788C140.07 142.643 140.342 142.471 140.412 143.116C140.295 142.048 138.605 142.036 138.725 143.116L138.727 143.118Z" fill="#231815"/>
<path d="M102.387 69.9602C102.345 69.5727 102.27 69.1952 102.187 68.8152C102.147 68.6302 102.107 68.4477 102.07 68.2627C102.052 68.1777 102.035 68.0927 102.02 68.0077C102.012 67.9702 101.98 67.7077 102 67.8927L100.342 68.1177C100.397 68.3402 100.449 68.5627 100.504 68.7877C100.759 69.8427 102.387 69.3952 102.132 68.3402C102.077 68.1177 102.025 67.8952 101.97 67.6702C101.752 66.7677 100.204 66.9327 100.312 67.8952C100.354 68.2827 100.429 68.6602 100.512 69.0402C100.552 69.2252 100.592 69.4077 100.629 69.5927C100.647 69.6777 100.664 69.7627 100.679 69.8477C100.687 69.8852 100.719 70.1477 100.699 69.9627C100.749 70.4152 101.052 70.8077 101.544 70.8077C101.962 70.8077 102.44 70.4202 102.39 69.9627L102.387 69.9602Z" fill="#231815"/>
<path d="M113.123 68.6925C113.078 68.3125 113.008 67.94 112.928 67.565C112.893 67.395 112.855 67.225 112.82 67.055C112.803 66.9675 112.785 66.88 112.768 66.79C112.763 66.7575 112.725 66.49 112.743 66.6575C112.69 66.205 112.393 65.8125 111.898 65.8125C111.483 65.8125 111 66.2 111.053 66.6575C111.098 67.0375 111.168 67.41 111.248 67.785C111.283 67.955 111.32 68.125 111.355 68.295C111.373 68.3825 111.39 68.47 111.408 68.56C111.413 68.5925 111.45 68.86 111.433 68.6925C111.485 69.145 111.783 69.5376 112.278 69.5376C112.693 69.5376 113.175 69.15 113.123 68.6925Z" fill="#231815"/>
<path d="M96.3494 64.4175C95.3319 63.0175 94.8244 61.1249 94.5519 59.4349C94.1894 57.1874 95.2319 55.2874 97.242 54.1949C98.197 53.6749 97.3445 52.2173 96.3894 52.7373C94.2069 53.9249 92.5844 56.2174 92.7819 58.7699C92.9494 60.9299 93.6019 63.4925 94.8944 65.2675C95.5269 66.1375 96.992 65.2975 96.352 64.415L96.3494 64.4175Z" fill="#231815"/>
<path d="M97.0016 70.2375C96.8541 75.7701 97.5641 81.9352 102.702 85.1127C107.907 88.3328 115.222 87.2028 119.234 82.5977C119.944 81.7827 118.757 80.5827 118.042 81.4052C114.437 85.5427 107.927 86.5228 103.312 83.5002C98.6966 80.4777 98.5641 74.9901 98.6916 70.2375C98.7216 69.15 97.0341 69.1525 97.0041 70.2375H97.0016Z" fill="#231815"/>
<path d="M105.097 70.6226C104.884 71.8826 104.707 73.1501 104.494 74.4101C104.314 75.4726 105.942 75.9301 106.122 74.8576C106.334 73.5976 106.512 72.3301 106.724 71.0701C106.904 70.0075 105.277 69.55 105.097 70.6226Z" fill="#231815"/>
<path d="M124.161 134.806C126.504 134.399 129.444 135.299 131.291 137.064C132.076 137.814 133.271 136.621 132.484 135.871C130.189 133.681 126.856 132.636 123.711 133.181C122.644 133.366 123.096 134.994 124.159 134.809L124.161 134.806Z" fill="#231815"/>
<path d="M125.877 147.579C119.977 149.701 114.077 151.826 108.179 153.949C107.319 154.259 106.462 154.566 105.602 154.876C104.587 155.241 105.024 156.874 106.049 156.504C111.949 154.381 117.849 152.256 123.747 150.134C124.607 149.824 125.464 149.516 126.324 149.206C127.339 148.841 126.902 147.209 125.877 147.579Z" fill="#231815"/>
<path d="M125.579 152.514C118.834 155.006 112.109 157.559 105.251 159.726C104.219 160.054 104.661 161.681 105.699 161.354C112.557 159.186 119.282 156.634 126.027 154.141C127.037 153.769 126.599 152.136 125.579 152.514Z" fill="#231815"/>
<path d="M103.018 147.809C105.118 148.759 107.228 149.689 109.31 150.679C110.285 151.141 111.143 149.689 110.163 149.221C108.08 148.231 105.973 147.301 103.87 146.351C102.888 145.909 102.03 147.361 103.018 147.809Z" fill="#231815"/>
<path d="M103.791 152.136C105.206 153.094 107.069 152.226 108.496 151.746C110.649 151.026 112.766 150.216 114.964 149.641C116.014 149.366 115.569 147.739 114.516 148.014C112.764 148.471 111.061 149.074 109.354 149.671C108.479 149.976 107.601 150.271 106.716 150.551C106.064 150.759 105.274 151.106 104.644 150.679C103.741 150.069 102.896 151.529 103.791 152.136Z" fill="#231815"/>
<path d="M114.176 147.471C110.674 145.864 107.156 144.296 103.641 142.716C102.658 142.274 101.798 143.729 102.788 144.174C106.301 145.754 109.821 147.321 113.324 148.929C114.304 149.379 115.161 147.924 114.176 147.471Z" fill="#231815"/>
<path d="M102.734 138.279C103.321 138.544 103.909 138.811 104.494 139.081C104.909 139.271 105.401 139.199 105.649 138.779C105.861 138.416 105.761 137.816 105.346 137.624C104.761 137.354 104.174 137.086 103.586 136.821C103.171 136.634 102.679 136.701 102.431 137.124C102.219 137.486 102.316 138.089 102.734 138.279Z" fill="#231815"/>
<path d="M122.365 70.0926C123.422 67.5926 126.897 67.9801 127.835 70.3776C129.02 73.4052 125.352 75.3902 122.867 74.2077C121.892 73.7427 121.035 75.1977 122.015 75.6652C123.947 76.5852 126.22 76.5327 127.922 75.1402C129.445 73.8952 130.112 71.8051 129.46 69.9301C128.18 66.2526 122.555 65.3375 120.905 69.2426C120.487 70.2301 121.94 71.0926 122.362 70.0951L122.365 70.0926Z" fill="#231815"/>
<path d="M130.166 86.7379C140.971 96.238 146.871 110.931 144.714 125.276C144.114 129.258 142.911 133.128 141.134 136.743C140.656 137.714 142.111 138.571 142.591 137.596C149.196 124.151 147.779 107.931 139.794 95.3755C137.466 91.7154 134.616 88.4079 131.359 85.5454C130.546 84.8303 129.349 86.0204 130.166 86.7379Z" fill="#231815"/>
<path d="M128.893 132.966C128.496 129.656 128.256 126.298 128.568 122.971C128.881 119.643 129.763 116.108 132.483 114.061C133.341 113.416 132.501 111.951 131.631 112.603C125.668 117.091 126.418 126.413 127.206 132.966C127.333 134.031 129.023 134.043 128.893 132.966Z" fill="#231815"/>
<path d="M130.321 114.046C128.638 110.678 127.321 107.148 126.433 103.491C125.778 100.785 124.336 96.3554 126.773 94.1554C127.581 93.4254 126.386 92.2354 125.581 92.9629C122.873 95.4079 123.843 99.513 124.508 102.631C125.418 106.893 126.916 111.001 128.863 114.898C129.348 115.871 130.806 115.016 130.321 114.046Z" fill="#231815"/>
<path d="M96.3432 65.2673C98.2482 62.5447 98.4432 58.9822 100.346 56.2621L98.8032 55.6121C98.0232 57.7847 98.9607 60.1597 100.651 61.6322C102.653 63.3772 105.416 63.7022 107.951 63.9872C108.573 64.0572 109.023 63.2122 108.678 62.7172C107.498 61.0197 106.971 59.1397 107.093 57.0747L106.026 57.8872C109.118 59.1647 112.291 60.3347 115.311 61.7797C117.948 63.0397 120.438 64.8573 121.166 67.8373C121.423 68.8923 123.051 68.4448 122.794 67.3898C122.041 64.3122 119.661 62.1422 116.938 60.7122C113.601 58.9597 109.953 57.6997 106.473 56.2621C105.933 56.0371 105.433 56.5922 105.406 57.0747C105.271 59.4022 105.891 61.6547 107.223 63.5697L107.951 62.2997C106.018 62.0822 103.868 61.8597 102.221 60.7197C100.721 59.6822 99.7882 57.8472 100.431 56.0596C100.773 55.1046 99.4032 54.6746 98.8882 55.4096C96.9832 58.1322 96.7882 61.6947 94.8857 64.4147C94.2632 65.3073 95.7232 66.1498 96.3432 65.2673Z" fill="#231815"/>
<path d="M99.6291 51.23C104.977 45.5099 113.782 43.8349 120.652 47.7924C127.042 51.4725 132.305 60.7851 127.777 67.7627C127.184 68.6777 128.645 69.5227 129.235 68.6152C133.065 62.7101 130.512 54.7675 126.059 49.97C121.607 45.1724 114.709 42.8924 108.164 44.4099C104.444 45.2724 101.042 47.2499 98.4366 50.0375C97.6966 50.83 98.8866 52.025 99.6291 51.23Z" fill="#231815"/>
<path d="M123.889 76.3478C124.316 79.3128 124.742 82.2779 125.169 85.2429C125.324 86.3129 126.949 85.8579 126.797 84.7954C126.369 81.8304 125.944 78.8653 125.517 75.9003C125.362 74.8303 123.736 75.2853 123.889 76.3478Z" fill="#231815"/>
<path d="M106.55 89.3178C107.282 91.4153 108.015 93.5128 108.747 95.6104C108.932 96.1404 109.732 96.5229 110.157 95.9829C111.25 94.5903 112.34 93.1978 113.432 91.8053L112.022 91.4328C112.505 93.9153 112.987 96.3954 113.47 98.8779C113.622 99.6654 114.625 99.6054 115.012 99.0804C119.22 93.3878 124.837 88.8878 131.27 85.9477C132.257 85.4977 131.4 84.0427 130.417 84.4902C123.71 87.5578 117.935 92.3003 113.555 98.2279C114.07 98.2954 114.582 98.3629 115.097 98.4304C114.615 95.9479 114.132 93.4678 113.65 90.9853C113.537 90.4028 112.625 90.1228 112.24 90.6128C111.147 92.0053 110.057 93.3978 108.965 94.7903L110.375 95.1629C109.642 93.0653 108.91 90.9678 108.177 88.8703C107.822 87.8503 106.19 88.2903 106.55 89.3178Z" fill="#231815"/>
<path d="M76.8179 73.1549C76.4629 71.7599 76.0979 70.3649 75.7504 68.9674C75.5528 68.1723 75.2528 67.2073 75.5228 66.3923C75.7704 65.6448 76.5704 64.9548 77.3454 65.4798C78.2554 66.0973 78.5054 67.8723 78.8104 68.8299C79.2904 70.3374 79.7704 71.8449 80.2504 73.3524C80.5779 74.3824 82.2079 73.9424 81.8779 72.9049C81.1604 70.6524 80.5504 68.3248 79.6979 66.1198C79.1779 64.7748 78.1879 63.4573 76.5854 63.5898C74.9828 63.7223 73.8628 65.2623 73.7603 66.8123C73.6128 69.0274 74.6478 71.4824 75.1878 73.6049C75.4553 74.6574 77.0829 74.2099 76.8154 73.1574L76.8179 73.1549Z" fill="#231815"/>
<path d="M85.0979 79.6978C84.2804 77.5978 84.1629 74.6328 81.1703 74.8453C80.0178 74.9253 78.8403 75.6153 78.5353 76.7878C78.1453 78.2828 79.2703 79.5603 80.2628 80.5129L80.6353 79.1028C78.3453 79.6453 76.6578 81.7129 76.8328 84.1029C76.9128 85.1804 78.6003 85.1879 78.5203 84.1029C78.3978 82.4279 79.4728 81.1129 81.0828 80.7304C81.6978 80.5854 81.9028 79.7503 81.4553 79.3203C80.9253 78.8128 79.6278 77.6778 80.3828 76.8728C80.8728 76.3478 81.9328 76.4028 82.3754 76.9128C83.0629 77.7103 83.0954 79.1828 83.4729 80.1479C83.8504 81.1129 85.4954 80.7129 85.1004 79.7004L85.0979 79.6978Z" fill="#231815"/>
<path d="M74.209 74.9899C75.7091 73.2774 77.8166 75.5624 78.4116 76.9599C78.9391 78.1974 78.2916 79.1925 76.9216 78.8275C75.9666 78.575 75.2441 77.7449 74.5915 77.0574L73.399 78.2499C74.369 79.22 74.654 80.465 74.1815 81.75L75.7241 81.5475L75.5991 81.355C75.009 80.4475 73.5465 81.2925 74.1415 82.2075L74.2665 82.4C74.6815 83.035 75.5566 82.8825 75.8091 82.1975C76.4841 80.3625 75.9566 78.4199 74.594 77.0549C73.824 76.2849 72.654 77.4599 73.4015 78.2474C74.614 79.525 76.0641 80.8075 77.9591 80.545C79.6191 80.315 80.5766 78.925 80.2791 77.2899C79.7466 74.3649 75.6116 70.8324 73.0165 73.7924C72.304 74.6049 73.4915 75.8049 74.209 74.9849V74.9899Z" fill="#231815"/>
<path d="M81.8839 89.8454C83.6865 87.9704 87.304 85.4328 86.414 82.3828C86.1115 81.3428 84.4815 81.7853 84.7865 82.8303C85.409 84.9678 81.9614 87.3278 80.6889 88.6504C79.9364 89.4329 81.1289 90.6279 81.8814 89.8429L81.8839 89.8454Z" fill="#231815"/>
<path d="M71.6055 80.6975C72.093 81.09 72.6231 81.48 72.9856 81.995C73.2731 82.405 73.4306 82.685 73.3081 83.1975C73.1856 83.71 72.9131 84.0376 72.3505 83.655L71.7005 85.1976C72.208 85.3076 72.5981 85.7351 72.2906 86.2551C71.7355 87.1901 73.1931 88.0401 73.7481 87.1076C74.5856 85.6951 73.7356 83.915 72.1506 83.5725C71.203 83.3675 70.703 84.5726 71.5005 85.1151C72.7281 85.9476 74.4331 85.3801 74.9531 83.995C75.6556 82.1325 74.1206 80.565 72.8031 79.505C71.9655 78.83 70.763 80.0175 71.6105 80.6975H71.6055Z" fill="#231815"/>
<path d="M106.439 90.9576C103.322 93.6776 100.327 96.5377 97.0791 99.1077C93.204 102.175 88.9615 104.748 84.3789 106.613L85.4464 107.425C85.1539 102.528 83.6689 97.7652 83.3789 92.8676C83.3439 92.2926 82.8689 91.9426 82.3114 92.0551C78.6189 92.7826 74.8763 92.9701 71.1263 92.6551C70.6713 92.6176 70.2812 93.0726 70.2812 93.5001V101.92C70.2812 103.005 71.9688 103.008 71.9688 101.92V93.5001L71.1238 94.3451C75.0238 94.6701 78.9189 94.4401 82.7564 93.6826L81.6889 92.8701C81.9814 97.7677 83.4664 102.53 83.7564 107.428C83.7864 107.915 84.2814 108.463 84.8239 108.24C89.4615 106.353 93.729 103.825 97.6816 100.76C101.149 98.0702 104.322 95.0351 107.627 92.1526C108.447 91.4376 107.249 90.2476 106.434 90.9601L106.439 90.9576Z" fill="#231815"/>
<path d="M105.826 78.9325C108.488 79.2675 111.211 78.245 113.779 77.6875L112.711 76.875C112.444 79.11 112.176 81.3451 111.909 83.5801C111.779 84.6551 113.469 84.6476 113.596 83.5801C113.864 81.3451 114.131 79.11 114.399 76.875C114.469 76.295 113.806 75.9575 113.331 76.0625C110.899 76.5925 108.346 77.5625 105.826 77.2475C104.751 77.1125 104.761 78.8 105.826 78.935V78.9325Z" fill="#231815"/>
<path d="M138.213 52.6173C135.871 47.7597 140.676 42.1997 145.828 44.1597C148.076 45.0147 149.694 47.3522 149.739 49.7498C149.786 52.3123 148.111 54.5523 145.819 55.5548C144.826 55.9898 145.684 57.4449 146.671 57.0124C149.596 55.7323 151.634 52.6148 151.411 49.3873C151.204 46.3572 149.139 43.5697 146.279 42.5322C143.418 41.4947 139.891 42.3697 137.851 44.6622C135.698 47.0797 135.376 50.5998 136.758 53.4698C137.231 54.4473 138.686 53.5923 138.216 52.6173H138.213Z" fill="#231815"/>
<path d="M136.393 56.6796C139.528 57.8047 142.746 58.5547 146.048 58.9772C147.123 59.1147 147.113 57.4247 146.048 57.2897C142.903 56.8871 139.826 56.1246 136.843 55.0521C135.818 54.6846 135.378 56.3146 136.396 56.6796H136.393Z" fill="#231815"/>
<path d="M136.646 60.4448C138.871 61.0748 141.096 61.7073 143.321 62.3373L142.701 61.5248C142.506 63.2448 142.269 65.5674 140.496 66.4149C139.664 66.8124 138.664 66.8299 138.119 65.9674C137.621 65.1799 137.816 63.9849 137.951 63.1298C138.119 62.0673 136.494 61.6098 136.324 62.6823C136.109 64.0449 135.934 65.5699 136.661 66.8199C137.351 68.0024 138.669 68.5199 139.994 68.3224C143.324 67.8249 144.069 64.3324 144.389 61.5273C144.432 61.1623 144.096 60.8073 143.769 60.7148C141.544 60.0848 139.319 59.4523 137.094 58.8223C136.046 58.5248 135.601 60.1523 136.646 60.4498V60.4448Z" fill="#231815"/>
<path d="M131.121 40.107C131.811 40.9195 132.499 41.732 133.189 42.547C133.484 42.8945 134.079 42.8495 134.381 42.547C134.726 42.202 134.676 41.702 134.381 41.3545C133.691 40.542 133.004 39.7295 132.314 38.9145C132.019 38.567 131.424 38.612 131.121 38.9145C130.776 39.2595 130.826 39.7595 131.121 40.107Z" fill="#231815"/>
<path d="M142.906 33.5471C142.991 34.5796 143.073 35.6121 143.158 36.6471C143.243 37.6821 144.933 37.7321 144.846 36.6471C144.758 35.5621 144.678 34.5821 144.593 33.5471C144.508 32.5121 142.818 32.4621 142.906 33.5471Z" fill="#231815"/>
<path d="M153.322 40.1396C153.884 39.5695 154.447 39.002 155.009 38.432C155.774 37.6595 154.582 36.4645 153.817 37.2395C153.254 37.8095 152.692 38.377 152.129 38.947C151.364 39.7195 152.557 40.9146 153.322 40.1396Z" fill="#231815"/>
<path d="M155.48 48.9172C156.382 48.9322 157.285 48.9497 158.19 48.9647C159.277 48.9847 159.277 47.2972 158.19 47.2772C157.287 47.2622 156.385 47.2447 155.48 47.2297C154.392 47.2097 154.392 48.8972 155.48 48.9172Z" fill="#231815"/>
<path d="M70.7336 75.5927C69.4486 76.5002 68.0961 77.5052 67.3911 78.9552C66.5961 80.5852 67.0936 82.1377 67.7186 83.7278C68.9486 86.8578 69.8586 90.1054 71.1112 93.2279C71.5112 94.2229 73.1437 93.7879 72.7387 92.7804C71.6937 90.1754 70.8812 87.4828 69.9311 84.8428C69.4811 83.5928 68.5636 82.0703 68.6336 80.7252C68.7186 79.0702 70.3611 77.9177 71.5862 77.0502C72.4662 76.4277 71.6237 74.9652 70.7336 75.5927Z" fill="#231815"/>
</svg>
