<svg width="200" height="201" viewBox="0 0 200 201" fill="none" xmlns="http://www.w3.org/2000/svg">
<path d="M67.0266 27.6821C67.0266 27.6821 73.5992 29.5571 77.0668 27.6821C80.5343 25.8071 74.2242 23.717 73.0717 23.717C71.9192 23.717 64.6291 22.3095 63.0966 27.9371C61.5616 33.5647 60.5391 34.2147 60.5391 34.2147L61.3141 34.7172C61.3141 34.7172 62.7591 32.1146 63.9491 32.7771C65.1416 33.4397 62.5141 27.4271 67.0241 27.6846L67.0266 27.6821Z" fill="#E8D575"/>
<path d="M37.7991 125.444C36.9791 126.039 20.0039 137.739 20.0039 137.739L25.874 162.032L56.9769 163.772L185.316 74.9132C185.316 74.9132 177.023 70.0732 172.123 70.0732C167.223 70.0732 145.308 49.7804 145.308 50.3904C145.308 51.0004 122.273 65.7331 122.273 65.7331L134.28 67.9007V92.456L128.03 97.5135C128.03 97.5135 122.288 101.034 119.778 101.034C117.268 101.034 100.777 94.8285 100.777 94.8285C100.777 94.8285 99.9324 85.3609 99.9324 83.3933C99.9324 81.4258 63.9495 106.669 63.9495 106.669L73.1346 108.709L73.4296 134.264C73.4296 134.264 63.1744 141.884 58.4344 141.314C53.6918 140.744 38.5891 135.409 38.5891 135.409L37.8016 125.441L37.7991 125.444Z" fill="#D1D3D4"/>
<path d="M64.592 169.802C64.1595 168.897 64.537 167.839 63.9295 166.934C62.6345 165.004 60.5169 166.517 59.9369 168.169C59.3544 169.829 59.0594 171.659 59.6694 173.249C59.6869 173.309 59.7094 173.364 59.7394 173.417C59.9269 173.857 60.1844 174.279 60.5319 174.674C61.1319 175.354 62.0569 174.634 61.9319 173.904C63.5595 173.829 65.567 173.349 65.862 171.889C66.097 170.724 64.9945 170.637 64.597 169.804L64.592 169.802Z" fill="#D1D3D4"/>
<path d="M71.028 162.552C69.673 161.149 67.413 161.047 66.163 162.625C64.8579 164.272 65.3404 166.272 66.0805 168.045C66.0505 168.36 66.163 168.7 66.463 168.905C66.678 169.347 67.0955 169.402 67.4405 169.242C71.018 169.955 73.8005 165.42 71.028 162.552Z" fill="#D1D3D4"/>
<path d="M99.1154 144.843C98.6829 143.938 99.0604 142.88 98.4529 141.975C97.1579 140.045 95.0404 141.558 94.4604 143.21C93.8779 144.87 93.5828 146.7 94.1929 148.29C94.2104 148.35 94.2329 148.405 94.2629 148.458C94.4504 148.898 94.7079 149.32 95.0554 149.715C95.6554 150.395 96.5804 149.675 96.4554 148.945C98.0829 148.87 100.09 148.39 100.385 146.93C100.62 145.765 99.5179 145.678 99.1204 144.845L99.1154 144.843Z" fill="#D1D3D4"/>
<path d="M105.551 137.591C104.196 136.189 101.936 136.086 100.686 137.664C99.3814 139.311 99.8639 141.311 100.604 143.084C100.574 143.399 100.686 143.739 100.986 143.944C101.201 144.386 101.619 144.441 101.964 144.281C105.541 144.994 108.324 140.459 105.551 137.591Z" fill="#D1D3D4"/>
<path d="M133.94 120.854C133.507 119.949 133.885 118.892 133.277 117.987C131.982 116.057 129.865 117.569 129.285 119.222C128.702 120.882 128.407 122.712 129.017 124.302C129.035 124.362 129.057 124.417 129.087 124.469C129.275 124.909 129.532 125.332 129.88 125.727C130.48 126.407 131.405 125.687 131.28 124.957C132.907 124.882 134.915 124.402 135.21 122.942C135.445 121.777 134.342 121.689 133.945 120.857L133.94 120.854Z" fill="#D1D3D4"/>
<path d="M140.376 113.605C139.021 112.202 136.761 112.1 135.511 113.677C134.206 115.325 134.688 117.325 135.428 119.097C135.398 119.412 135.511 119.752 135.811 119.957C136.026 120.4 136.443 120.455 136.788 120.295C140.366 121.007 143.148 116.472 140.376 113.605Z" fill="#D1D3D4"/>
<path d="M167.869 97.0907C167.437 96.1857 167.814 95.1282 167.207 94.2232C165.912 92.2932 163.794 93.8057 163.214 95.4582C162.632 97.1182 162.337 98.9482 162.947 100.538C162.964 100.598 162.987 100.653 163.017 100.706C163.204 101.146 163.462 101.568 163.809 101.963C164.409 102.643 165.334 101.923 165.209 101.193C166.837 101.118 168.844 100.638 169.139 99.1782C169.374 98.0132 168.272 97.9257 167.874 97.0932L167.869 97.0907Z" fill="#D1D3D4"/>
<path d="M174.305 89.8411C172.95 88.4385 170.69 88.336 169.44 89.9136C168.135 91.5611 168.618 93.5611 169.358 95.3336C169.328 95.6486 169.44 95.9886 169.74 96.1936C169.955 96.6361 170.373 96.6911 170.718 96.5311C174.295 97.2436 177.078 92.7086 174.305 89.8411Z" fill="#D1D3D4"/>
<path d="M131.033 75.3234L123.183 95.5887C123.005 96.0437 123.48 96.4787 123.918 96.2612C126.298 95.0762 131.358 92.4761 131.96 91.4686C132.56 90.4661 132.25 80.3435 132.065 75.4959C132.043 74.9159 131.243 74.7834 131.033 75.3259V75.3234Z" fill="#E8D575"/>
<path d="M68.9082 117.853L62.3131 134.88C61.9806 135.735 62.8806 136.55 63.6981 136.133C66.2707 134.825 70.1332 132.758 70.6557 131.885C71.1732 131.02 71.0132 123.378 70.8432 118.18C70.8082 117.093 69.3057 116.838 68.9107 117.853H68.9082Z" fill="#E8D575"/>
<path d="M49.0625 114.218L52.65 115.455L66.9377 107.693L64.3277 107.008L49.0625 114.218Z" fill="#E8D575"/>
<path d="M109.961 73.757L113.548 74.9945L127.836 67.2319L125.226 66.5469L109.961 73.757Z" fill="#E8D575"/>
<path d="M75.7227 150.792V169.325L90.5228 159.027V140.439L75.7227 150.792Z" fill="#D1D3D4"/>
<path d="M110.109 126.763V145.296L124.912 134.998V116.41L110.109 126.763Z" fill="#D1D3D4"/>
<path d="M144.145 103.718V122.251L158.945 111.953V93.3652L144.145 103.718Z" fill="#D1D3D4"/>
<path d="M73.8001 35.3217C74.2626 36.8592 74.6526 38.4642 74.7451 40.0742C74.7751 40.5967 74.7951 41.1717 74.5726 41.6592C74.1226 42.6467 73.0151 42.3692 72.1601 42.1592C71.105 41.8992 70.655 43.5268 71.7126 43.7868C73.6001 44.2518 75.6601 44.0918 76.2726 41.9242C76.8901 39.7417 76.0526 36.9592 75.4251 34.8742C75.1126 33.8366 73.4826 34.2791 73.7976 35.3217H73.8001Z" fill="#231F20"/>
<path d="M67.6531 33.5862C70.7106 34.5412 73.8656 35.0312 77.0682 35.0562C78.1532 35.0637 78.1557 33.3762 77.0682 33.3687C74.0081 33.3462 71.0231 32.8712 68.1031 31.9587C67.0631 31.6337 66.6205 33.2612 67.6556 33.5862H67.6531Z" fill="#231F20"/>
<path d="M69.5578 36.3246C69.4778 36.6046 69.3978 36.8821 69.3178 37.1621C69.1978 37.5871 69.4653 38.0996 69.9078 38.1996C70.3503 38.2996 70.8153 38.0646 70.9453 37.6096L71.1853 36.7721C71.3053 36.3471 71.0378 35.8346 70.5953 35.7346C70.1453 35.632 69.6878 35.8696 69.5578 36.3246Z" fill="#231F20"/>
<path d="M65.5163 43.946C65.6988 44.9135 66.5338 45.746 67.5038 45.921C67.9363 45.9985 68.4338 45.8035 68.5413 45.331C68.6363 44.9185 68.4163 44.3785 67.9513 44.2935C67.8738 44.2785 67.8013 44.261 67.7238 44.241C67.5388 44.1935 67.8013 44.3085 67.6413 44.206C67.5863 44.171 67.5288 44.141 67.4763 44.1035C67.4288 44.071 67.4338 44.0735 67.4938 44.116C67.4638 44.091 67.4363 44.0635 67.4088 44.036C67.3638 43.991 67.3163 43.9435 67.2788 43.891C67.3788 44.0235 67.2438 43.8135 67.2388 43.8035C67.1513 43.666 67.2438 43.891 67.2013 43.721C67.1813 43.646 67.1613 43.571 67.1463 43.4935C67.0613 43.0459 66.5213 42.7909 66.1088 42.9034C65.6388 43.0334 65.4338 43.491 65.5188 43.941L65.5163 43.946Z" fill="#231F20"/>
<path d="M62.0437 35.0396C60.2962 32.2071 56.6436 34.0021 56.0411 36.7347C55.3886 39.6972 58.0436 42.3497 60.9462 41.1047C60.5337 40.7872 60.1187 40.4697 59.7062 40.1522C59.3987 41.8572 59.4537 43.4997 59.9237 45.1698C60.2187 46.2123 61.8462 45.7698 61.5512 44.7222C61.1637 43.3497 61.0787 42.0072 61.3337 40.6022C61.4737 39.8322 60.7837 39.3547 60.0937 39.6497C58.5136 40.3272 57.4036 38.5622 57.6661 37.1847C57.8986 35.9696 59.6187 34.3271 60.5862 35.8921C61.1562 36.8147 62.6162 35.9671 62.0437 35.0396Z" fill="#231F20"/>
<path d="M61.2919 31.1412C59.3969 27.8262 62.5519 24.6012 65.5194 23.5561C68.432 22.5286 71.947 22.2511 74.9571 22.9936C76.4721 23.3686 77.9421 24.0512 79.0321 25.1912C79.6771 25.8662 80.4171 26.8862 79.7221 27.7937C79.2746 28.3762 78.3746 28.6112 77.7046 28.8162C73.9695 29.9587 70.002 29.8637 66.2894 28.6937C65.2519 28.3662 64.8069 29.9962 65.8419 30.3212C69.617 31.5112 73.677 31.6487 77.5096 30.6262C78.8346 30.2712 80.4471 29.8012 81.2421 28.5762C82.0971 27.2612 81.6246 25.7012 80.7121 24.5562C78.7071 22.0336 75.3896 21.0711 72.292 20.9411C68.9995 20.8011 65.1594 21.3311 62.3969 23.2411C59.6269 25.1537 58.0593 28.8887 59.8369 31.9938C60.3769 32.9363 61.8344 32.0863 61.2944 31.1412H61.2919Z" fill="#231F20"/>
<path d="M66.2929 51.982C66.7679 51.0195 67.3154 49.937 68.2854 49.382C69.0729 48.9295 70.4204 48.932 70.7829 49.942C70.9054 50.287 71.2079 50.572 71.5954 50.562C72.783 50.527 74.373 50.3945 75.2455 51.382C76.233 52.502 75.2355 53.5645 74.178 54.087C72.0604 55.1296 69.4879 54.892 67.3754 54.0045C66.5104 53.642 66.0929 54.852 66.5554 55.4146C67.7404 56.8546 69.3229 57.7971 71.1529 58.1571L70.5629 57.1196C69.9579 58.7146 69.3504 60.3121 68.7454 61.9071C69.0904 61.7096 69.4379 61.5146 69.7829 61.3171C66.9329 60.7371 64.3904 59.2246 62.6128 56.9021C61.9603 56.0521 60.4953 56.8921 61.1553 57.7546C63.2003 60.4271 66.0229 62.2696 69.3329 62.9446C69.8129 63.0421 70.2004 62.8071 70.3704 62.3546C70.9754 60.7596 71.5829 59.1621 72.1879 57.5671C72.3404 57.1621 72.0154 56.6121 71.5979 56.5296C70.0204 56.2196 68.7654 55.4646 67.7454 54.222C67.4729 54.692 67.1979 55.162 66.9254 55.6321C69.8329 56.8496 74.553 57.0021 76.688 54.212C77.558 53.0745 77.5705 51.577 76.663 50.452C75.4205 48.912 73.423 48.8195 71.5929 48.8745C71.8629 49.082 72.1354 49.287 72.4054 49.4945C71.8654 47.992 70.3829 47.227 68.8204 47.442C66.8504 47.712 65.6454 49.4795 64.8329 51.132C64.3554 52.102 65.8104 52.9595 66.2904 51.9845L66.2929 51.982Z" fill="#231F20"/>
<path d="M67.5798 62.6236C66.5548 66.4011 64.8098 69.9712 62.3497 73.0287C61.2647 74.3787 59.9722 75.7962 58.2372 76.2463C56.3597 76.7338 54.3646 76.0687 52.7371 75.1312C49.8771 73.4862 47.7471 70.6437 46.8946 67.4661C45.9645 64.0036 46.792 60.5436 48.7321 57.581C51.2271 53.771 55.1372 51.2209 58.9072 48.8159C59.8197 48.2334 58.9747 46.7734 58.0547 47.3584C51.1596 51.7559 43.042 58.1035 45.142 67.3961C46.677 74.1837 55.4922 81.9413 61.9797 75.9362C65.5698 72.6137 67.9448 67.7286 69.2073 63.0711C69.4923 62.0211 67.8648 61.5736 67.5798 62.6236Z" fill="#231F20"/>
<path d="M91.9337 60.0019C93.3337 60.2219 94.6613 60.6394 95.8888 61.3569C96.1313 61.4994 96.3738 61.6444 96.6013 61.8094C96.9163 62.0369 97.5288 62.6295 97.0863 63.0895C96.5363 63.6645 95.2738 62.892 94.7413 62.6095C94.1587 62.2994 93.5062 62.6895 93.4712 63.337C93.2512 67.4345 88.3412 69.5245 85.3311 66.6895C82.3211 63.8545 84.2111 59.0194 88.1437 58.3919C89.2137 58.2219 88.7587 56.5944 87.6962 56.7644C82.3011 57.6244 80.2436 64.5295 84.3961 68.1145C88.5612 71.7096 94.8713 68.707 95.1588 63.337C94.7363 63.5795 94.3112 63.822 93.8887 64.0645C94.9838 64.647 96.2063 65.2145 97.4563 64.772C98.4063 64.4345 99.1688 63.512 99.0538 62.4694C98.9188 61.2319 97.7188 60.4694 96.7413 59.8969C95.3963 59.1119 93.9187 58.6144 92.3812 58.3719C91.3187 58.2069 90.8612 59.8319 91.9337 59.9994V60.0019Z" fill="#231F20"/>
<path d="M78.5169 52.9548C77.4544 62.3224 76.9694 71.7425 77.0619 81.1701C77.0719 82.2551 78.7594 82.2576 78.7494 81.1701C78.6544 71.7425 79.1394 62.3224 80.2044 52.9548C80.3269 51.8773 78.6394 51.8873 78.5169 52.9548Z" fill="#231F20"/>
<path d="M48.9306 73.7534C48.3706 80.9385 47.8131 88.121 47.2531 95.3061C47.1681 96.3887 48.8556 96.3837 48.9406 95.3061C49.5006 88.121 50.0581 80.9385 50.6181 73.7534C50.7032 72.6709 49.0156 72.6759 48.9306 73.7534Z" fill="#231F20"/>
<path d="M37.7461 113.836V133.961C37.7461 135.046 39.4336 135.049 39.4336 133.961C39.4336 133.826 39.4336 133.689 39.4336 133.554C39.4336 132.469 37.7461 132.466 37.7461 133.554C37.7461 133.689 37.7461 133.826 37.7461 133.961H39.4336V113.836C39.4336 112.751 37.7461 112.749 37.7461 113.836Z" fill="#231F20"/>
<path d="M40.5742 112.387C45.1268 109.757 50.0144 106.917 55.4144 106.752C58.327 106.664 61.257 107.357 64.117 107.822C67.1471 108.314 70.1771 108.807 73.2097 109.299C73.1422 108.784 73.0747 108.272 73.0072 107.757C68.0996 111.504 63.192 115.254 58.2845 119.002C58.502 118.974 58.717 118.944 58.9345 118.917C53.5969 117.284 48.2593 115.654 42.9193 114.022C41.8793 113.704 41.4343 115.332 42.4718 115.649C45.3768 116.537 48.2818 117.424 51.1844 118.312C52.6769 118.767 54.1669 119.224 55.6594 119.679C56.7069 119.999 58.3195 120.917 59.3295 120.309C60.5545 119.572 61.6795 118.514 62.817 117.647C64.0445 116.709 65.2696 115.772 66.4971 114.834C68.9496 112.959 71.4046 111.087 73.8572 109.212C74.3547 108.832 74.4597 107.799 73.6547 107.669C70.4596 107.152 67.2671 106.632 64.072 106.114C61.087 105.629 58.022 104.914 54.9819 105.084C49.4244 105.394 44.4318 108.209 39.7217 110.932C38.7817 111.474 39.6292 112.934 40.5742 112.389V112.387Z" fill="#231F20"/>
<path d="M72.6992 111.278C72.6992 118.675 72.6992 126.07 72.6992 133.468C72.6992 134.553 74.3867 134.555 74.3867 133.468C74.3867 133.24 74.3867 133.013 74.3867 132.788C74.3867 131.703 72.6992 131.7 72.6992 132.788C72.6992 133.015 72.6992 133.243 72.6992 133.468H74.3867C74.3867 126.07 74.3867 118.675 74.3867 111.278C74.3867 110.193 72.6992 110.19 72.6992 111.278Z" fill="#231F20"/>
<path d="M57.5898 119.854C57.5898 126.854 57.5898 133.851 57.5898 140.852C57.5898 141.937 59.2774 141.939 59.2774 140.852C59.2774 133.851 59.2774 126.854 59.2774 119.854C59.2774 118.769 57.5898 118.766 57.5898 119.854Z" fill="#231F20"/>
<path d="M40.3262 136.569C43.0312 137.567 45.7388 138.564 48.4438 139.562C50.9688 140.492 53.5339 141.672 56.2164 142.042C58.7539 142.392 61.0365 141.632 63.339 140.629C65.874 139.524 68.2616 138.114 70.6391 136.709C71.5741 136.157 70.7266 134.697 69.7866 135.252C65.6615 137.689 60.574 141.334 55.5464 140.214C53.1164 139.672 50.7713 138.627 48.4388 137.769C45.8838 136.827 43.3288 135.884 40.7712 134.944C39.7512 134.569 39.3112 136.199 40.3237 136.572L40.3262 136.569Z" fill="#231F20"/>
<path d="M63.0122 106.277C59.4271 107.995 55.8396 109.713 52.2545 111.43C49.572 112.715 46.167 114.46 46.5445 117.99C46.6595 119.058 48.347 119.07 48.232 117.99C47.867 114.573 52.432 113.21 54.8621 112.045C57.8621 110.608 60.8621 109.17 63.8622 107.732C64.8422 107.262 63.9872 105.807 63.0097 106.275L63.0122 106.277Z" fill="#231F20"/>
<path d="M42.0656 133.225C43.1506 133.225 43.1531 131.537 42.0656 131.537C40.9781 131.537 40.9781 133.225 42.0656 133.225Z" fill="#231F20"/>
<path d="M44.9353 134.204C45.0753 133.997 45.3053 133.844 45.5328 133.772C45.2153 133.642 44.8978 133.514 44.5803 133.384C44.7778 133.767 44.9778 134.149 45.1753 134.532C45.3853 134.937 45.9503 135.057 46.3303 134.834C46.7403 134.594 46.8428 134.087 46.6328 133.679C46.4353 133.297 46.2353 132.914 46.0378 132.532C45.8703 132.212 45.4278 132.039 45.0853 132.144C44.4078 132.354 43.8728 132.767 43.4778 133.352C43.2228 133.729 43.4053 134.287 43.7803 134.507C44.1953 134.749 44.6803 134.584 44.9353 134.204Z" fill="#231F20"/>
<path d="M47.4743 134.079C47.5843 134.352 47.6918 134.624 47.8018 134.897C47.8868 135.109 47.9843 135.282 48.1893 135.402C48.3693 135.507 48.6368 135.552 48.8393 135.487C49.2343 135.359 49.6043 134.887 49.4293 134.449L49.1018 133.632C49.0168 133.419 48.9193 133.247 48.7143 133.127C48.5343 133.022 48.2668 132.977 48.0643 133.042C47.6693 133.169 47.2993 133.642 47.4743 134.079Z" fill="#231F20"/>
<path d="M50.6373 135.41V135.572C50.6323 135.687 50.6573 135.797 50.7098 135.897C50.7448 136.002 50.8023 136.092 50.8848 136.17C50.9623 136.252 51.0524 136.31 51.1574 136.345C51.2574 136.397 51.3674 136.422 51.4824 136.417L51.7074 136.387C51.8499 136.347 51.9749 136.275 52.0799 136.17L52.2124 136C52.2899 135.867 52.3274 135.727 52.3274 135.575V135.412C52.3324 135.297 52.3074 135.187 52.2549 135.087C52.2199 134.982 52.1624 134.892 52.0799 134.815C52.0024 134.732 51.9124 134.675 51.8074 134.64C51.7074 134.587 51.5974 134.562 51.4824 134.567L51.2574 134.597C51.1149 134.637 50.9898 134.71 50.8848 134.815L50.7523 134.985C50.6748 135.117 50.6373 135.257 50.6373 135.41Z" fill="#231F20"/>
<path d="M99.0898 73.3303V93.4556C99.0898 94.5406 100.777 94.5431 100.777 93.4556V93.0481C100.777 91.9631 99.0898 91.9606 99.0898 93.0481V93.4556H100.777V73.3303C100.777 72.2453 99.0898 72.2428 99.0898 73.3303Z" fill="#231F20"/>
<path d="M101.914 71.8809C106.467 69.2509 111.354 66.4108 116.754 66.2458C119.667 66.1583 122.597 66.8508 125.457 67.3159C128.487 67.8084 131.517 68.3009 134.549 68.7934L134.347 67.2509C129.439 70.9984 124.532 74.7484 119.624 78.496L120.274 78.411C114.937 76.7785 109.599 75.1484 104.259 73.5159C103.219 73.1984 102.774 74.8259 103.812 75.1435C106.717 76.031 109.622 76.9185 112.524 77.806C114.017 78.261 115.507 78.7185 116.999 79.1735C118.047 79.4935 119.659 80.411 120.669 79.8035C121.894 79.066 123.019 78.0085 124.157 77.141C125.384 76.2035 126.609 75.266 127.837 74.3284C130.289 72.4534 132.744 70.5809 135.197 68.7059C135.695 68.3259 135.8 67.2933 134.994 67.1633C131.799 66.6458 128.607 66.1258 125.412 65.6083C122.427 65.1233 119.362 64.4083 116.322 64.5783C110.764 64.8883 105.772 67.7034 101.062 70.4259C100.122 70.9684 100.969 72.4284 101.914 71.8834V71.8809Z" fill="#231F20"/>
<path d="M134.043 70.7678C134.043 78.1654 134.043 85.5605 134.043 92.9581C134.043 94.0431 135.73 94.0456 135.73 92.9581C135.73 92.7306 135.73 92.5031 135.73 92.2781C135.73 91.1931 134.043 91.1906 134.043 92.2781C134.043 92.5056 134.043 92.7331 134.043 92.9581H135.73C135.73 85.5605 135.73 78.1654 135.73 70.7678C135.73 69.6828 134.043 69.6803 134.043 70.7678Z" fill="#231F20"/>
<path d="M118.934 79.3459C118.934 86.346 118.934 93.3436 118.934 100.344C118.934 101.429 120.621 101.431 120.621 100.344C120.621 93.3436 120.621 86.346 120.621 79.3459C120.621 78.2609 118.934 78.2584 118.934 79.3459Z" fill="#231F20"/>
<path d="M101.67 96.0635C104.375 97.061 107.083 98.0585 109.788 99.056C112.313 99.986 114.878 101.166 117.56 101.536C120.098 101.886 122.38 101.126 124.683 100.124C127.218 99.0185 129.605 97.6085 131.983 96.2035C132.918 95.651 132.07 94.1909 131.13 94.746C127.005 97.1835 121.918 100.829 116.89 99.7085C114.46 99.166 112.115 98.121 109.783 97.2635C107.228 96.321 104.672 95.3785 102.115 94.4384C101.095 94.0634 100.655 95.6935 101.667 96.066L101.67 96.0635Z" fill="#231F20"/>
<path d="M124.356 65.7716C120.771 67.4891 117.183 69.2067 113.598 70.9242C110.916 72.2092 107.511 73.9542 107.888 77.4843C108.003 78.5518 109.691 78.5643 109.576 77.4843C109.211 74.0667 113.776 72.7042 116.206 71.5392C119.206 70.1017 122.206 68.6641 125.206 67.2266C126.186 66.7566 125.331 65.3016 124.353 65.7691L124.356 65.7716Z" fill="#231F20"/>
<path d="M103.409 92.7188C104.494 92.7188 104.497 91.0312 103.409 91.0312C102.322 91.0312 102.322 92.7188 103.409 92.7188Z" fill="#231F20"/>
<path d="M106.275 93.6982C106.415 93.4907 106.645 93.3382 106.873 93.2657C106.555 93.1357 106.238 93.0082 105.92 92.8782C106.118 93.2607 106.318 93.6432 106.515 94.0257C106.725 94.4307 107.29 94.5507 107.67 94.3282C108.08 94.0882 108.183 93.5807 107.973 93.1732C107.775 92.7907 107.575 92.4082 107.378 92.0257C107.21 91.7057 106.768 91.5332 106.425 91.6382C105.748 91.8482 105.213 92.2607 104.818 92.8457C104.563 93.2232 104.745 93.7807 105.12 94.0007C105.535 94.2432 106.02 94.0782 106.275 93.6982Z" fill="#231F20"/>
<path d="M108.818 93.5736L109.146 94.3911C109.231 94.6036 109.328 94.7761 109.533 94.8961C109.713 95.0011 109.981 95.0461 110.183 94.9811C110.578 94.8536 110.948 94.3811 110.773 93.9436L110.446 93.1261C110.361 92.9136 110.263 92.7411 110.058 92.6211C109.878 92.5161 109.611 92.4711 109.408 92.5361C109.013 92.6636 108.643 93.1361 108.818 93.5736Z" fill="#231F20"/>
<path d="M111.981 94.9037V95.0662C111.976 95.1812 112.001 95.2912 112.054 95.3912C112.089 95.4962 112.146 95.5862 112.229 95.6637C112.306 95.7462 112.396 95.8037 112.501 95.8387C112.601 95.8912 112.711 95.9162 112.826 95.9112L113.051 95.8812C113.194 95.8412 113.319 95.7687 113.424 95.6637L113.556 95.4937C113.634 95.3612 113.671 95.2212 113.671 95.0687V94.9062C113.676 94.7912 113.651 94.6812 113.599 94.5812C113.564 94.4762 113.506 94.3862 113.424 94.3087C113.346 94.2262 113.256 94.1687 113.151 94.1337C113.051 94.0812 112.941 94.0562 112.826 94.0612L112.601 94.0912C112.459 94.1312 112.334 94.2037 112.229 94.3087L112.096 94.4787C112.019 94.6112 111.981 94.7512 111.981 94.9037Z" fill="#231F20"/>
<path d="M128.869 63.3663C135.377 58.5962 142.177 54.2587 148.769 49.6086C149.649 48.9886 148.807 47.5236 147.917 48.1511C141.327 52.8011 134.524 57.1387 128.017 61.9088C127.149 62.5438 127.992 64.0088 128.869 63.3663Z" fill="#231F20"/>
<path d="M65.327 107.398C76.7172 99.5052 88.1073 91.6101 99.4975 83.715C100.385 83.1 99.5425 81.6375 98.645 82.2575C87.2548 90.1501 75.8647 98.0452 64.4745 105.94C63.587 106.555 64.4295 108.018 65.327 107.398Z" fill="#231F20"/>
<path d="M20.4329 138.468C26.4004 134.42 32.398 130.415 38.2281 126.173C39.0981 125.54 38.2556 124.075 37.3756 124.715C31.5455 128.96 25.5479 132.965 19.5804 137.01C18.6853 137.615 19.5304 139.08 20.4329 138.468Z" fill="#231F20"/>
<path d="M57.4055 164.497C62.2681 161.202 67.0756 157.827 71.9057 154.482C81.8458 147.599 91.7835 140.714 101.721 133.827C113.571 125.614 125.421 117.402 137.272 109.189C147.604 102.029 157.937 94.8663 168.272 87.7112C173.889 83.8211 179.5 79.9161 185.137 76.0535C185.34 75.916 185.542 75.776 185.745 75.6385C186.64 75.0335 185.795 73.571 184.892 74.181C180.03 77.4761 175.222 80.8511 170.392 84.1961C160.452 91.0787 150.514 97.9638 140.577 104.851C128.726 113.064 116.876 121.277 105.026 129.489C94.6935 136.649 84.3609 143.812 74.0257 150.967C68.4082 154.857 62.7981 158.762 57.1605 162.625C56.958 162.762 56.7555 162.902 56.553 163.04C55.658 163.645 56.503 165.107 57.4055 164.497Z" fill="#231F20"/>
<path d="M57.4055 182.96C62.2681 179.665 67.0756 176.29 71.9057 172.945C81.8458 166.062 91.7835 159.177 101.721 152.29C113.571 144.077 125.421 135.864 137.272 127.652C147.604 120.492 157.937 113.329 168.272 106.174C173.889 102.284 179.5 98.379 185.137 94.5164C185.34 94.3789 185.542 94.2389 185.745 94.1014C186.64 93.4964 185.795 92.0339 184.892 92.6439C180.03 95.9389 175.222 99.314 170.392 102.659C160.452 109.542 150.514 116.427 140.577 123.314C128.726 131.527 116.876 139.74 105.026 147.952C94.6935 155.112 84.3609 162.275 74.0257 169.43C68.4082 173.32 62.7981 177.225 57.1605 181.088C56.958 181.225 56.7555 181.365 56.553 181.503C55.658 182.108 56.503 183.57 57.4055 182.96Z" fill="#231F20"/>
<path d="M30.4066 131.438C32.1842 137.845 33.9617 144.253 35.7392 150.66C35.8292 150.983 36.1917 151.323 36.5517 151.28C47.2994 149.975 58.1895 150.065 68.9071 151.608C69.9696 151.76 70.4271 150.135 69.3546 149.98C58.477 148.415 47.4594 148.268 36.5492 149.593C36.8192 149.8 37.0917 150.005 37.3617 150.213C35.5842 143.805 33.8067 137.398 32.0292 130.99C31.7392 129.945 30.1116 130.39 30.4016 131.438H30.4066Z" fill="#231F20"/>
<path d="M30.4066 131.438C32.1842 137.845 33.9617 144.253 35.7392 150.66C35.8292 150.983 36.1917 151.323 36.5517 151.28C47.2994 149.975 58.1895 150.065 68.9071 151.608C69.9696 151.76 70.4271 150.135 69.3546 149.98C58.477 148.415 47.4594 148.268 36.5492 149.593C36.8192 149.8 37.0917 150.005 37.3617 150.213C35.5842 143.805 33.8067 137.398 32.0292 130.99C31.7392 129.945 30.1116 130.39 30.4016 131.438H30.4066Z" fill="#231F20"/>
<path d="M75.098 138.079C78.953 138.272 82.7956 138.634 86.6181 139.184C87.6806 139.337 88.1381 137.712 87.0656 137.557C83.0931 136.987 79.1055 136.592 75.098 136.392C74.013 136.337 74.0155 138.024 75.098 138.079Z" fill="#231F20"/>
<path d="M78.6127 125.803C87.1928 125.263 95.8204 125.483 104.328 126.765C105.391 126.925 105.848 125.3 104.775 125.138C96.1129 123.833 87.3503 123.565 78.6127 124.115C77.5352 124.183 77.5252 125.87 78.6127 125.803Z" fill="#231F20"/>
<path d="M83.5395 94.1779C85.317 100.585 87.0945 106.993 88.872 113.401C88.962 113.723 89.3245 114.063 89.6845 114.021C100.432 112.716 111.322 112.806 122.04 114.348C123.102 114.501 123.56 112.876 122.487 112.721C111.61 111.156 100.592 111.008 89.682 112.333C89.952 112.541 90.2245 112.746 90.4945 112.953C88.717 106.546 86.9395 100.138 85.162 93.7304C84.872 92.6854 83.2445 93.1304 83.5345 94.1779H83.5395Z" fill="#231F20"/>
<path d="M129.257 100.875C132.77 101.08 136.27 101.425 139.752 101.925C140.815 102.078 141.272 100.453 140.2 100.298C136.567 99.7753 132.92 99.4003 129.257 99.1853C128.172 99.1228 128.177 100.81 129.257 100.873V100.875Z" fill="#231F20"/>
<path d="M139.782 88.2598C145.697 88.2598 151.605 88.6623 157.46 89.5048C158.522 89.6573 158.98 88.0323 157.907 87.8773C151.9 87.0123 145.85 86.5698 139.78 86.5723C138.695 86.5723 138.692 88.2598 139.78 88.2598H139.782Z" fill="#231F20"/>
<path d="M136.668 56.9181C138.446 63.3257 140.223 69.7333 142.001 76.1409C142.091 76.4634 142.453 76.8034 142.813 76.7609C153.561 75.4559 164.451 75.5459 175.169 77.0884C176.231 77.2409 176.689 75.6159 175.616 75.4609C164.739 73.8958 153.721 73.7483 142.811 75.0734C143.081 75.2809 143.353 75.4859 143.623 75.6934C141.846 69.2858 140.068 62.8782 138.291 56.4706C138.001 55.4256 136.373 55.8706 136.663 56.9181H136.668Z" fill="#231F20"/>
<path d="M61.2922 173.803C60.3297 172.973 60.0022 171.723 60.0222 170.481C60.0422 169.238 60.5422 166.866 62.0797 166.701C63.6297 166.533 63.5697 168.933 63.9697 169.928C64.3697 170.923 65.1522 171.703 66.2422 171.943C67.3322 172.183 67.7523 170.551 66.6897 170.316C65.3572 170.023 65.3947 168.588 65.0897 167.518C64.8872 166.803 64.5872 166.131 64.0147 165.638C62.8447 164.633 61.1322 164.891 60.0697 165.906C57.7721 168.103 57.6321 172.873 60.0947 174.998C60.9122 175.703 62.1122 174.516 61.2872 173.806L61.2922 173.803Z" fill="#231F20"/>
<path d="M67.3806 166.528C66.6706 165.448 66.5431 163.946 67.3756 162.886C68.1781 161.863 69.7206 161.653 70.6906 162.571C71.4831 163.321 71.7706 164.656 71.4181 165.676C71.1231 166.531 70.0256 167.426 69.3356 166.363C68.9006 165.693 69.0881 164.843 69.4356 164.188C69.8681 163.373 68.7831 162.431 68.1106 163.166L67.8831 163.416C67.1531 164.216 68.3431 165.413 69.0756 164.608L69.3031 164.358C68.8606 164.018 68.4206 163.676 67.9781 163.336C66.9506 165.276 67.4956 168.843 70.3706 168.558C73.0082 168.296 73.7182 164.946 72.8707 162.888C71.9631 160.686 69.4506 159.598 67.2881 160.778C64.9531 162.053 64.5331 165.263 65.9256 167.378C66.5206 168.281 67.9831 167.438 67.3831 166.526L67.3806 166.528Z" fill="#231F20"/>
<path d="M60.7315 169.72C60.789 171.058 61.3865 172.478 62.634 173.118C63.884 173.76 65.339 173.358 66.2515 172.345C66.9765 171.54 65.7865 170.343 65.059 171.153C63.834 172.513 62.4815 171.17 62.419 169.72C62.3715 168.637 60.684 168.632 60.7315 169.72Z" fill="#231F20"/>
<path d="M95.6047 149.317C94.6422 148.487 94.3147 147.237 94.3347 145.995C94.3547 144.752 94.8547 142.38 96.3922 142.215C97.9422 142.047 97.8822 144.447 98.2822 145.442C98.6822 146.437 99.4647 147.217 100.555 147.457C101.612 147.69 102.065 146.065 101.002 145.83C99.6697 145.537 99.7072 144.102 99.4022 143.032C99.1997 142.317 98.8997 141.645 98.3272 141.152C97.1572 140.147 95.4447 140.405 94.3822 141.42C92.0846 143.617 91.9446 148.387 94.4072 150.512C95.2247 151.217 96.4247 150.03 95.5997 149.32L95.6047 149.317Z" fill="#231F20"/>
<path d="M101.697 142.04C100.987 140.96 100.859 139.457 101.692 138.397C102.495 137.375 104.037 137.165 105.007 138.082C105.8 138.832 106.087 140.167 105.735 141.187C105.44 142.042 104.342 142.937 103.652 141.875C103.217 141.205 103.405 140.355 103.752 139.7C104.185 138.885 103.1 137.942 102.427 138.677L102.2 138.927C101.469 139.727 102.66 140.925 103.392 140.12L103.62 139.87C103.177 139.53 102.737 139.187 102.295 138.847C101.267 140.787 101.812 144.355 104.687 144.07C107.325 143.807 108.035 140.457 107.187 138.4C106.28 136.197 103.767 135.11 101.604 136.29C99.2695 137.565 98.8495 140.775 100.242 142.89C100.837 143.792 102.3 142.95 101.699 142.037L101.697 142.04Z" fill="#231F20"/>
<path d="M95.0479 145.236C95.1054 146.573 95.7029 147.993 96.9504 148.633C98.2004 149.276 99.6554 148.873 100.568 147.861C101.293 147.056 100.103 145.858 99.3754 146.668C98.1504 148.028 96.7979 146.686 96.7354 145.236C96.6879 144.153 95.0004 144.148 95.0479 145.236Z" fill="#231F20"/>
<path d="M129.917 125.331C128.955 124.501 128.627 123.251 128.647 122.008C128.67 120.758 129.167 118.393 130.705 118.228C132.255 118.061 132.195 120.461 132.595 121.456C132.995 122.451 133.777 123.231 134.867 123.471C135.925 123.703 136.377 122.078 135.315 121.843C133.982 121.551 134.02 120.116 133.715 119.046C133.512 118.331 133.212 117.658 132.64 117.166C131.47 116.161 129.757 116.418 128.695 117.433C126.397 119.631 126.257 124.401 128.72 126.526C129.537 127.231 130.737 126.043 129.912 125.333L129.917 125.331Z" fill="#231F20"/>
<path d="M136.009 118.056C135.299 116.976 135.172 115.473 136.004 114.413C136.837 113.353 138.35 113.18 139.32 114.098C140.112 114.848 140.4 116.183 140.047 117.203C139.752 118.058 138.655 118.953 137.965 117.891C137.53 117.221 137.717 116.371 138.065 115.716C138.497 114.9 137.412 113.958 136.74 114.693L136.512 114.943C135.782 115.743 136.972 116.941 137.705 116.136L137.932 115.886C137.49 115.545 137.049 115.203 136.607 114.863C135.579 116.803 136.124 120.371 139 120.086C141.637 119.823 142.347 116.473 141.5 114.415C140.592 112.213 138.08 111.125 135.917 112.305C133.582 113.58 133.162 116.791 134.554 118.906C135.149 119.808 136.612 118.966 136.012 118.053L136.009 118.056Z" fill="#231F20"/>
<path d="M129.36 121.247C129.418 122.585 130.015 124.005 131.263 124.645C132.513 125.287 133.968 124.885 134.88 123.872C135.605 123.067 134.415 121.87 133.688 122.68C132.463 124.04 131.11 122.697 131.048 121.247C131 120.165 129.313 120.16 129.36 121.247Z" fill="#231F20"/>
<path d="M164.234 101.594C163.271 100.764 162.944 99.5145 162.964 98.2719C162.984 97.0294 163.484 94.6569 165.021 94.4919C166.571 94.3244 166.511 96.7244 166.911 97.7194C167.311 98.7144 168.094 99.4945 169.184 99.7345C170.274 99.9745 170.694 98.3419 169.631 98.1069C168.299 97.8144 168.336 96.3794 168.031 95.3094C167.829 94.5944 167.529 93.9219 166.956 93.4294C165.786 92.4244 164.074 92.6819 163.011 93.6969C160.714 95.8944 160.574 100.664 163.036 102.79C163.854 103.495 165.054 102.307 164.229 101.597L164.234 101.594Z" fill="#231F20"/>
<path d="M170.326 94.3172C169.616 93.2372 169.488 91.7347 170.321 90.6747C171.123 89.6522 172.666 89.4422 173.636 90.3597C174.428 91.1097 174.716 92.4447 174.363 93.4647C174.068 94.3197 172.971 95.2148 172.281 94.1522C171.846 93.4822 172.033 92.6322 172.381 91.9772C172.813 91.1622 171.728 90.2197 171.056 90.9547L170.828 91.2047C170.098 92.0047 171.288 93.2022 172.021 92.3972L172.248 92.1472C171.806 91.8072 171.366 91.4647 170.923 91.1247C169.896 93.0647 170.441 96.6323 173.316 96.3473C175.953 96.0848 176.663 92.7347 175.816 90.6772C174.908 88.4747 172.396 87.3872 170.233 88.5672C167.898 89.8422 167.478 93.0522 168.871 95.1673C169.466 96.0698 170.928 95.2273 170.328 94.3147L170.326 94.3172Z" fill="#231F20"/>
<path d="M163.673 97.513C163.73 98.8505 164.328 100.271 165.575 100.911C166.823 101.551 168.28 101.151 169.193 100.138C169.918 99.333 168.728 98.1355 168 98.9455C166.775 100.306 165.423 98.963 165.36 97.513C165.313 96.4305 163.625 96.4255 163.673 97.513Z" fill="#231F20"/>
<path d="M63.3547 53.6512C60.4522 56.5613 57.4521 59.3713 54.3596 62.0763C53.5421 62.7939 54.7396 63.9814 55.5521 63.2689C58.6446 60.5613 61.6447 57.7513 64.5472 54.8438C65.3147 54.0737 64.1222 52.8812 63.3547 53.6512Z" fill="#231F20"/>
<path d="M111.655 60.5736C114.93 58.9936 118.623 58.8261 122.048 60.0111C123.076 60.3661 123.518 58.7361 122.496 58.3836C118.631 57.0486 114.475 57.3436 110.803 59.1161C109.825 59.5886 110.68 61.0436 111.655 60.5736Z" fill="#231F20"/>
<path d="M113.708 54.6532C115.853 54.7433 117.996 54.8307 120.141 54.9208C121.226 54.9658 121.226 53.2782 120.141 53.2332C117.996 53.1432 115.853 53.0557 113.708 52.9657C112.623 52.9207 112.623 54.6082 113.708 54.6532Z" fill="#231F20"/>
<path d="M45.0566 103.987C49.3642 101.884 54.2518 101.352 58.9143 102.449C59.9693 102.699 60.4218 101.072 59.3618 100.822C54.2393 99.6141 48.9317 100.222 44.2041 102.529C43.2291 103.007 44.0816 104.462 45.0566 103.987Z" fill="#231F20"/>
<path d="M52.3018 97.5613C54.3619 97.1988 56.3894 97.3738 58.3719 98.0213C59.4069 98.3588 59.8494 96.7288 58.8194 96.3938C56.5394 95.6513 54.2069 95.5188 51.8518 95.9338C50.7843 96.1213 51.2368 97.7488 52.2993 97.5613H52.3018Z" fill="#231F20"/>
<path d="M90.717 102.327C90.8695 104.707 91.277 107.659 93.672 108.837C95.072 109.524 96.7595 109.319 98.2646 109.292C100.155 109.257 102.047 109.222 103.937 109.184C105.022 109.164 105.025 107.477 103.937 107.497C101.207 107.547 98.3596 107.839 95.6395 107.617C92.922 107.394 92.5445 104.532 92.4045 102.327C92.3345 101.249 90.647 101.242 90.717 102.327Z" fill="#231F20"/>
<path d="M144.463 64.6176C144.616 66.9976 145.023 69.9502 147.418 71.1277C148.818 71.8152 150.506 71.6102 152.011 71.5827C153.901 71.5477 155.793 71.5127 157.683 71.4752C158.768 71.4552 158.771 69.7677 157.683 69.7877C154.953 69.8377 152.106 70.1302 149.386 69.9077C146.668 69.6852 146.291 66.8226 146.151 64.6176C146.081 63.5401 144.393 63.5326 144.463 64.6176Z" fill="#231F20"/>
<path d="M37.5216 139.196C37.6742 141.576 38.0817 144.528 40.4767 145.706C41.8767 146.393 43.5642 146.188 45.0692 146.161C46.9593 146.126 48.8518 146.091 50.7418 146.053C51.8268 146.033 51.8293 144.346 50.7418 144.366C48.0118 144.416 45.1642 144.708 42.4442 144.486C39.7267 144.263 39.3492 141.401 39.2092 139.196C39.1392 138.118 37.4516 138.111 37.5216 139.196Z" fill="#231F20"/>
</svg>
