<svg width="200" height="201" viewBox="0 0 200 201" fill="none" xmlns="http://www.w3.org/2000/svg">
<path d="M108.471 101.354H95.5135C94.5967 101.354 93.8535 102.098 93.8535 103.015V115.972C93.8535 116.889 94.5967 117.632 95.5135 117.632H108.471C109.388 117.632 110.131 116.889 110.131 115.972V103.015C110.131 102.098 109.388 101.354 108.471 101.354Z" fill="#DCDDDD"/>
<path d="M108.471 127.062H95.5135C94.5967 127.062 93.8535 127.806 93.8535 128.723V141.68C93.8535 142.597 94.5967 143.34 95.5135 143.34H108.471C109.388 143.34 110.131 142.597 110.131 141.68V128.723C110.131 127.806 109.388 127.062 108.471 127.062Z" fill="#DCDDDD"/>
<path d="M101.254 59.1517C100.526 57.7767 97.2988 53.9066 96.5713 52.5316C96.7888 54.9241 98.6838 61.7617 98.9013 64.1542C105.599 60.1417 112.434 53.8641 119.129 49.8516C112.496 51.7166 107.091 55.4941 101.254 59.1517Z" fill="#E8D575"/>
<path d="M101.254 84.6898C100.526 83.3147 97.2988 79.4447 96.5713 78.0697C96.7888 80.4622 98.6838 87.2998 98.9013 89.6923C105.599 85.6798 112.434 79.4022 119.129 75.3896C112.496 77.2547 107.091 81.0322 101.254 84.6898Z" fill="#E8D575"/>
<path d="M47.1984 105.392L46.3534 107.868L46.5134 109.928L46.2734 112.61L48.691 113.455L68.3812 104.895C68.3812 104.895 68.0712 102.012 70.7237 100.92C73.3763 99.8274 75.4613 99.8274 76.5888 99.8274C77.7163 99.8274 87.6164 94.7649 87.6164 94.7649C87.6164 94.7649 85.6464 92.7073 85.6464 91.8048C85.6464 90.9023 84.9764 87.1973 84.9764 87.1973L47.1959 105.395L47.1984 105.392Z" fill="#E8D575"/>
<path d="M93.8535 86.7598C93.8535 86.7598 94.2485 90.2048 95.696 90.2048C97.1436 90.2048 98.3861 86.7798 98.3861 86.7798L93.8535 86.7598Z" fill="#E8D575"/>
<path d="M46.7388 89.6895C46.7388 89.6895 42.8662 89.277 42.8662 85.5644C42.8662 81.8519 43.2287 76.3018 47.4488 74.4918C51.6688 72.6818 51.3088 76.5418 51.3088 76.5418C51.3088 76.5418 52.6013 77.8768 53.0963 77.3843C53.5913 76.8918 52.7488 80.8994 51.0638 81.4344C49.3788 81.9694 48.6788 82.5369 48.6788 82.5369V85.0444C48.6788 85.0444 44.8212 85.8269 46.7388 89.687V89.6895Z" fill="#E8D575"/>
<path d="M53.4558 74.7067C53.4558 74.7067 55.2908 76.7542 55.0008 78.6492C54.7108 80.5443 52.9482 78.8693 52.9482 78.8693L52.5107 80.6193C52.5107 80.6193 57.5908 80.5443 57.2133 77.2067C56.8358 73.8692 53.4558 74.7042 53.4558 74.7042V74.7067Z" fill="#E8D575"/>
<path d="M37.8857 125.383L42.0758 167.223L42.2283 169.151L54.4635 167.223L51.9859 165.141L54.4635 161.386L57.411 128.163C57.411 128.163 54.0784 128.703 51.1559 128.703C48.2334 128.703 37.8857 125.385 37.8857 125.385V125.383Z" fill="#DCDDDD"/>
<path d="M43.7686 174.341L44.4036 170.683L49.7636 169.963C49.7636 169.963 50.6611 171.676 52.9937 170.601C55.3262 169.526 56.2237 168.268 58.1962 170.241C60.1688 172.213 58.7562 174.163 58.7562 174.163L43.7711 174.341H43.7686Z" fill="#E8D575"/>
<path d="M55.5039 167.22C55.5039 167.22 57.0739 165.218 58.7564 165.218C60.439 165.218 59.939 168.178 59.939 168.178L55.5039 167.22Z" fill="#E8D575"/>
<path d="M81.126 100.762V147.452C81.126 147.597 81.1085 148.277 81.1535 147.792C81.081 148.555 80.8785 149.33 80.7035 150.072C80.361 151.513 79.9435 152.97 79.2809 154.3C78.7709 155.325 77.9809 156.75 76.6809 156.8C75.6009 156.843 75.5884 158.488 76.6809 158.488H162.88C164.045 158.488 165.265 158.593 166.427 158.488C166.477 158.483 166.53 158.488 166.582 158.488C167.037 158.488 167.427 158.1 167.427 157.643V125.96C167.427 116.387 167.427 106.812 167.427 97.2393V45.3712C167.427 45.0462 167.465 44.7012 167.312 44.4012C167.097 43.9812 166.562 43.6137 166.24 43.2912C165.465 42.5161 164.687 41.7386 163.912 40.9636C162.64 39.6911 161.422 38.2261 160.032 37.0836C159.609 36.7361 159.297 36.7511 158.799 36.7511H81.9735C81.5185 36.7511 81.1285 37.1386 81.1285 37.5961V88.6592C81.1285 89.7442 82.816 89.7467 82.816 88.6592V37.5961L81.971 38.4411H158.699C158.837 38.4411 159.112 38.4961 159.239 38.4411C159.469 38.3461 158.667 37.9311 158.909 38.3561C159.244 38.9436 160.044 39.4936 160.519 39.9661C161.367 40.8136 162.212 41.6611 163.06 42.5086C163.777 43.2287 164.497 43.9462 165.215 44.6662C165.382 44.8337 165.602 45.1587 165.817 45.2687C166.34 45.5362 165.43 45.0587 165.732 44.8412C165.492 45.0137 165.732 47.2212 165.732 47.4987V157.65L166.577 156.805H80.3785C79.301 156.805 77.8884 156.56 76.8309 156.805C76.7859 156.815 76.7259 156.805 76.6759 156.805V158.493C79.301 158.39 80.636 155.655 81.4385 153.51C82.081 151.795 82.6735 149.847 82.811 148.005C82.9835 145.695 82.811 143.307 82.811 140.995V100.767C82.811 99.6819 81.1235 99.6794 81.1235 100.767L81.126 100.762Z" fill="#231815"/>
<path d="M109.624 55.8993V64.3269C109.624 65.0619 109.756 65.8844 108.769 66.0519C107.236 66.3119 105.436 66.0519 103.889 66.0519H96.8987C96.4662 66.0519 95.9512 66.1294 95.5212 66.0519C94.5687 65.8794 94.6987 65.0669 94.6987 64.3619V57.7168C94.6987 55.8993 94.5087 53.9617 94.6987 52.1517C94.7737 51.4292 95.1912 51.1817 95.8437 51.1217C96.6087 51.0517 97.4112 51.1217 98.1787 51.1217H106.144C106.954 51.1217 107.821 51.0317 108.626 51.1217C109.879 51.2617 109.624 52.5517 109.624 53.5092C109.624 54.5942 111.311 54.5967 111.311 53.5092C111.311 52.2217 111.471 50.8517 110.331 49.9642C109.644 49.4292 108.874 49.4342 108.061 49.4342H96.7412C96.1662 49.4342 95.5212 49.3667 94.9562 49.4992C92.5261 50.0642 93.0112 52.9517 93.0112 54.8118V62.9669C93.0112 64.9444 92.7762 67.5819 95.5187 67.7369C97.3887 67.8419 99.2962 67.7369 101.169 67.7369C103.559 67.7369 105.951 67.7669 108.341 67.7369C109.536 67.7219 110.699 67.3544 111.151 66.1044C111.464 65.2394 111.311 64.1344 111.311 63.2394V55.8993C111.311 54.8142 109.624 54.8117 109.624 55.8993Z" fill="#231815"/>
<path d="M101.981 58.7241C100.666 56.3591 98.611 54.469 97.2985 52.104C96.9135 51.4115 95.6385 51.6765 95.726 52.529C96.131 56.4641 97.651 60.2191 98.056 64.1517C98.1185 64.7592 98.7335 65.2392 99.326 64.8792C106.406 60.5966 112.476 54.859 119.554 50.5765C120.361 50.089 119.841 48.764 118.904 49.034C112.286 50.944 106.599 54.7965 100.826 58.4191C99.9085 58.9941 100.754 60.4566 101.679 59.8766C107.324 56.3341 112.879 52.529 119.351 50.6615C119.134 50.1465 118.919 49.634 118.701 49.119C111.621 53.4015 105.551 59.1391 98.4735 63.4216C98.896 63.6641 99.321 63.9066 99.7435 64.1492C99.3385 60.2141 97.8185 56.4591 97.4135 52.5265L95.841 52.9515C97.156 55.3165 99.211 57.2066 100.524 59.5716C101.051 60.5216 102.509 59.6716 101.981 58.7191V58.7241Z" fill="#231815"/>
<path d="M94.6964 86.7591V78.5715C94.6964 77.8165 94.5089 76.8515 95.5189 76.659C96.7839 76.419 98.3239 76.659 99.6064 76.659H106.542C107.227 76.659 107.977 76.5715 108.659 76.659C109.887 76.8165 109.624 78.109 109.624 79.049C109.624 80.1341 111.312 80.1366 111.312 79.049C111.312 77.889 111.477 76.6065 110.579 75.7065C109.927 75.054 109.099 74.974 108.239 74.974H101.171C99.3039 74.974 97.4089 74.8765 95.5439 74.974C92.8438 75.1165 93.0138 77.6565 93.0138 79.6315V86.7616C93.0138 87.8467 94.7014 87.8492 94.7014 86.7616L94.6964 86.7591Z" fill="#231815"/>
<path d="M109.624 81.4368V85.8593C109.624 87.4118 109.866 89.1819 109.624 90.7169C109.416 92.0419 107.101 91.5894 106.144 91.5894H96.7436C96.0736 91.5894 95.4435 91.6994 94.8535 91.2944C93.956 90.6769 93.111 92.1394 94.001 92.7519C95.256 93.6169 97.2611 93.2769 98.7061 93.2769H105.936C107.239 93.2769 109.226 93.6094 110.331 92.7469C111.769 91.6244 111.311 89.1544 111.311 87.5568V81.4368C111.311 80.3518 109.624 80.3493 109.624 81.4368Z" fill="#231815"/>
<path d="M101.981 84.2641C100.666 81.8991 98.611 80.0091 97.2985 77.644C96.9135 76.9515 95.6385 77.2165 95.726 78.069C96.131 82.0041 97.651 85.7591 98.056 89.6917C98.1185 90.2992 98.7335 90.7792 99.326 90.4192C106.406 86.1367 112.476 80.3991 119.554 76.1165C120.361 75.629 119.841 74.304 118.904 74.574C112.286 76.484 106.599 80.3366 100.826 83.9591C99.9085 84.5341 100.754 85.9966 101.679 85.4166C107.324 81.8741 112.879 78.0691 119.351 76.2015L118.701 74.659C111.621 78.9416 105.551 84.6791 98.4735 88.9617L99.7435 89.6892C99.3385 85.7541 97.8185 81.9991 97.4135 78.0665C96.8885 78.2091 96.366 78.3515 95.841 78.4915C97.156 80.8566 99.211 82.7466 100.524 85.1116C101.051 86.0616 102.509 85.2116 101.981 84.2591V84.2641Z" fill="#231815"/>
<path d="M93.0114 103.015C93.0114 107.37 92.8714 111.745 93.0114 116.097C93.0514 117.33 93.6714 118.452 94.9565 118.75C95.619 118.905 96.389 118.815 97.0615 118.815H105.399C107.214 118.815 110.224 119.382 111.109 117.282C111.434 116.51 111.312 115.53 111.312 114.712V104.705C111.312 103.56 111.494 102.297 110.679 101.37C109.989 100.582 109.082 100.515 108.122 100.515H99.259C96.969 100.515 93.3314 99.827 93.0089 103.017C92.8989 104.097 94.589 104.09 94.6965 103.017C94.7965 102.015 95.899 102.202 96.5915 102.202H107.174C107.682 102.202 108.289 102.11 108.789 102.202C109.929 102.412 109.622 103.905 109.622 104.772V109.62C109.622 111.737 109.859 114.005 109.622 116.11C109.527 116.952 109.037 117.095 108.339 117.13C107.472 117.172 106.592 117.13 105.724 117.13H98.179C97.3915 117.13 96.549 117.215 95.764 117.13C95.054 117.052 94.749 116.665 94.6965 115.985C94.5165 113.617 94.6965 111.17 94.6965 108.797V103.02C94.6965 101.935 93.0089 101.932 93.0089 103.02L93.0114 103.015Z" fill="#231815"/>
<path d="M120.572 54.6338C130.847 54.6338 141.124 54.6338 151.399 54.6338C152.484 54.6338 152.487 52.9463 151.399 52.9463C141.124 52.9463 130.847 52.9463 120.572 52.9463C119.487 52.9463 119.484 54.6338 120.572 54.6338Z" fill="#231815"/>
<path d="M120.572 59.4287H151.399C152.484 59.4287 152.487 57.7412 151.399 57.7412H120.572C119.487 57.7412 119.484 59.4287 120.572 59.4287Z" fill="#231815"/>
<path d="M120.572 64.2237H151.399C152.484 64.2237 152.487 62.5361 151.399 62.5361H120.572C119.487 62.5361 119.484 64.2237 120.572 64.2237Z" fill="#231815"/>
<path d="M120.572 80.1719H151.399C152.484 80.1719 152.487 78.4844 151.399 78.4844H120.572C119.487 78.4844 119.484 80.1719 120.572 80.1719Z" fill="#231815"/>
<path d="M120.572 84.9668C130.847 84.9668 141.124 84.9668 151.399 84.9668C152.484 84.9668 152.487 83.2793 151.399 83.2793C141.124 83.2793 130.847 83.2793 120.572 83.2793C119.487 83.2793 119.484 84.9668 120.572 84.9668Z" fill="#231815"/>
<path d="M120.572 89.7647H151.399C152.484 89.7647 152.487 88.0771 151.399 88.0771H120.572C119.487 88.0771 119.484 89.7647 120.572 89.7647Z" fill="#231815"/>
<path d="M120.572 105.709H151.399C152.484 105.709 152.487 104.021 151.399 104.021H120.572C119.487 104.021 119.484 105.709 120.572 105.709Z" fill="#231815"/>
<path d="M120.572 110.507C130.847 110.507 141.124 110.507 151.399 110.507C152.484 110.507 152.487 108.819 151.399 108.819C141.124 108.819 130.847 108.819 120.572 108.819C119.487 108.819 119.484 110.507 120.572 110.507Z" fill="#231815"/>
<path d="M120.572 115.302H151.399C152.484 115.302 152.487 113.614 151.399 113.614H120.572C119.487 113.614 119.484 115.302 120.572 115.302Z" fill="#231815"/>
<path d="M93.0114 128.553C93.0114 132.908 92.8714 137.283 93.0114 141.635C93.0514 142.868 93.6714 143.99 94.9565 144.288C95.619 144.443 96.389 144.353 97.0615 144.353H105.399C107.214 144.353 110.224 144.92 111.109 142.82C111.434 142.048 111.312 141.068 111.312 140.25V130.243C111.312 129.098 111.494 127.835 110.679 126.908C109.989 126.12 109.082 126.053 108.122 126.053H99.259C96.969 126.053 93.3314 125.365 93.0089 128.555C92.8989 129.635 94.589 129.628 94.6965 128.555C94.7965 127.553 95.899 127.74 96.5915 127.74H107.174C107.682 127.74 108.289 127.648 108.789 127.74C109.929 127.95 109.622 129.443 109.622 130.31V135.158C109.622 137.275 109.859 139.543 109.622 141.648C109.527 142.49 109.037 142.633 108.339 142.668C107.472 142.71 106.592 142.668 105.724 142.668H98.179C97.3915 142.668 96.549 142.753 95.764 142.668C95.054 142.59 94.749 142.203 94.6965 141.523C94.5165 139.155 94.6965 136.708 94.6965 134.335V128.558C94.6965 127.473 93.0089 127.47 93.0089 128.558L93.0114 128.553Z" fill="#231815"/>
<path d="M120.572 131.25H151.399C152.484 131.25 152.487 129.562 151.399 129.562H120.572C119.487 129.562 119.484 131.25 120.572 131.25Z" fill="#231815"/>
<path d="M120.572 136.045H151.399C152.484 136.045 152.487 134.357 151.399 134.357H120.572C119.487 134.357 119.484 136.045 120.572 136.045Z" fill="#231815"/>
<path d="M120.572 140.84C130.847 140.84 141.124 140.84 151.399 140.84C152.484 140.84 152.487 139.152 151.399 139.152C141.124 139.152 130.847 139.152 120.572 139.152C119.487 139.152 119.484 140.84 120.572 140.84Z" fill="#231815"/>
<path d="M158.502 37.5915V44.6166C158.502 45.0816 158.889 45.4466 159.347 45.4616C161.759 45.5316 164.17 45.6016 166.582 45.6716C167.67 45.7041 167.667 44.0166 166.582 43.9841C164.17 43.9141 161.759 43.8441 159.347 43.7741L160.192 44.6191V37.594C160.192 36.509 158.504 36.5065 158.504 37.594L158.502 37.5915Z" fill="#231815"/>
<path d="M43.6783 89.6069C41.4933 87.3519 40.7832 84.1243 41.7583 81.1493C42.0983 80.1143 40.4682 79.6718 40.1307 80.7018C38.9707 84.2418 39.8982 88.1319 42.4858 90.8019C43.2433 91.5844 44.4358 90.3894 43.6783 89.6094V89.6069Z" fill="#231815"/>
<path d="M50.9362 84.637C48.3387 83.277 45.1336 85.237 45.5236 88.2446C45.9112 91.2446 49.4887 92.3121 51.6587 90.3646C52.4687 89.6371 51.2712 88.4471 50.4662 89.1721C49.2937 90.2246 47.3712 89.6096 47.1812 88.0021C46.9912 86.3945 48.7062 85.3745 50.0862 86.0945C51.0487 86.597 51.9012 85.142 50.9387 84.637H50.9362Z" fill="#231815"/>
<path d="M52.1335 76.5221C52.671 79.1371 51.0235 81.4471 48.4535 81.9696C47.3909 82.1871 47.8409 83.8121 48.901 83.5971C52.421 82.8796 54.4735 79.5471 53.761 76.0745C53.5435 75.012 51.916 75.462 52.1335 76.5221Z" fill="#231815"/>
<path d="M58.4013 83.5112L57.1988 84.2412C57.5388 84.6837 57.8813 85.1237 58.2213 85.5662C58.3763 85.4462 58.5313 85.3262 58.6863 85.2062C59.0363 84.9337 58.9938 84.2937 58.6863 84.0137C58.3138 83.6712 57.8663 83.7237 57.4938 84.0137C57.3388 84.1337 57.1838 84.2537 57.0288 84.3737C56.6988 84.6287 56.7338 85.1862 56.9638 85.4812C57.2138 85.8062 57.6888 85.9187 58.0513 85.6987C58.4513 85.4562 58.8538 85.2137 59.2538 84.9687C59.6313 84.7412 59.8063 84.2012 59.5563 83.8137C59.3063 83.4262 58.8063 83.2662 58.4013 83.5112Z" fill="#231815"/>
<path d="M56.8463 85.559C57.3888 87.2815 57.7188 89.3916 56.6438 90.9941C55.7813 92.2816 54.0238 92.9441 52.6488 92.0841C51.7263 91.5041 50.8788 92.9641 51.7963 93.5416C53.6813 94.7241 56.1088 94.1141 57.5738 92.5316C59.4214 90.5366 59.2339 87.524 58.4739 85.1115C58.1489 84.079 56.5188 84.519 56.8463 85.559Z" fill="#231815"/>
<path d="M53.3689 83.6868C53.4314 84.2393 53.4914 84.7943 53.5539 85.3468C53.6039 85.7993 53.9064 86.1918 54.3989 86.1918C54.8164 86.1918 55.2939 85.8043 55.2439 85.3468C55.1814 84.7943 55.1214 84.2393 55.0589 83.6868C55.0089 83.2343 54.7064 82.8418 54.2139 82.8418C53.7964 82.8418 53.3189 83.2293 53.3689 83.6868Z" fill="#231815"/>
<path d="M53.5782 89.4368C53.9107 89.6393 54.2432 89.8443 54.5732 90.0469C54.9507 90.2769 55.5182 90.1419 55.7282 89.7443C55.9532 89.3193 55.8182 88.8518 55.4257 88.5893C55.2857 88.4968 55.1457 88.4043 55.0057 88.3093C54.6382 88.0643 54.0557 88.2243 53.8507 88.6118C53.6257 89.0368 53.7607 89.5043 54.1532 89.7668C54.2932 89.8593 54.4332 89.9518 54.5732 90.0469L55.4257 88.5893L54.4307 87.9793C54.0532 87.7493 53.4857 87.8843 53.2757 88.2818C53.0582 88.6943 53.1757 89.1893 53.5782 89.4368Z" fill="#231815"/>
<path d="M46.3857 91.2139C46.0782 92.3214 45.7707 93.4289 45.4632 94.5364C45.1732 95.5839 46.8007 96.0314 47.0907 94.9839C47.3982 93.8764 47.7057 92.7689 48.0132 91.6614C48.3032 90.6139 46.6757 90.1664 46.3857 91.2139Z" fill="#231815"/>
<path d="M35.4507 118.789L34.7982 124.152C34.7657 124.417 34.9782 124.769 35.2157 124.879C38.6908 126.492 42.3158 127.75 46.0609 128.562C49.2384 129.25 53.466 130.357 56.5585 128.877C58.286 128.052 59.321 126.58 59.276 124.699L59.141 119.022C59.1035 117.499 59.0685 115.977 59.031 114.454C59.006 113.369 57.3185 113.367 57.3435 114.454C57.4285 117.969 57.7585 121.567 57.5985 125.077C57.4235 128.877 51.2634 127.78 48.9434 127.397C44.4933 126.662 40.1608 125.319 36.0682 123.422L36.4857 124.149L37.1383 118.787C37.2683 117.712 35.5807 117.722 35.4507 118.787V118.789Z" fill="#231815"/>
<path d="M42.4683 78.1516C43.8608 75.0491 46.8358 72.9665 50.2884 73.0515C53.7009 73.134 58.2435 75.8691 56.8709 79.8466C56.5159 80.8766 58.146 81.3166 58.4985 80.2941C60.081 75.6991 55.5534 72.0115 51.4159 71.4565C47.0433 70.869 42.8083 73.2915 41.0107 77.2991C40.5707 78.2816 42.0233 79.1416 42.4683 78.1516Z" fill="#231815"/>
<path d="M84.6588 86.4639C73.3787 91.7514 62.0986 97.039 50.8184 102.327C49.2409 103.067 47.6659 103.804 46.0884 104.544C45.1058 105.004 45.9608 106.459 46.9409 106.002C58.221 100.714 69.5011 95.4265 80.7813 90.1389C82.3588 89.3989 83.9338 88.6614 85.5114 87.9214C86.4939 87.4614 85.6389 86.0064 84.6588 86.4639Z" fill="#231815"/>
<path d="M44.376 114.464C44.576 114.889 44.726 115.439 45.126 115.722C45.456 115.952 45.9835 116.044 46.356 116.179C47.2435 116.499 48.461 117.252 49.4035 116.957C50.5636 116.594 51.7061 115.877 52.8036 115.364C57.7411 113.049 62.6812 110.734 67.6188 108.419C68.9863 107.779 70.3513 107.139 71.7188 106.497C72.7013 106.037 71.8463 104.582 70.8663 105.039C64.3712 108.084 57.8761 111.127 51.3836 114.172C50.4386 114.614 49.4935 115.057 48.5485 115.499C48.766 115.472 48.981 115.442 49.1985 115.414C48.401 115.127 47.601 114.837 46.8035 114.549C46.751 114.532 45.8085 114.162 45.796 114.184C45.926 113.967 46.3385 115.014 46.1035 114.189C46.0485 113.994 45.9185 113.797 45.8335 113.612C45.3735 112.629 43.9185 113.484 44.376 114.464Z" fill="#231815"/>
<path d="M89.3141 96.3916C84.9316 98.4441 80.549 100.499 76.1665 102.552C75.184 103.012 76.039 104.467 77.019 104.009C81.4015 101.957 85.7841 99.9017 90.1667 97.8491C91.1492 97.3891 90.2942 95.9341 89.3141 96.3916Z" fill="#231815"/>
<path d="M74.9533 104.447C74.9583 104.327 74.9333 104.219 74.8808 104.119C74.8458 104.014 74.7883 103.924 74.7058 103.847C74.6283 103.764 74.5383 103.707 74.4333 103.672C74.3333 103.619 74.2233 103.594 74.1083 103.599L73.8833 103.629C73.7408 103.669 73.6158 103.742 73.5108 103.847L73.3783 104.017C73.3008 104.149 73.2633 104.289 73.2633 104.442C73.2583 104.562 73.2833 104.669 73.3358 104.769C73.3708 104.874 73.4283 104.964 73.5108 105.042C73.5883 105.124 73.6783 105.182 73.7833 105.217C73.8833 105.269 73.9933 105.294 74.1083 105.289L74.3333 105.259C74.4758 105.219 74.6008 105.147 74.7058 105.042L74.8383 104.872C74.9158 104.739 74.9533 104.599 74.9533 104.447Z" fill="#231815"/>
<path d="M90.3359 97.717C93.596 94.1694 96.856 90.6244 100.119 87.0768C100.586 86.5693 100.289 85.5993 99.521 85.6368C94.7085 85.8743 89.8984 86.1118 85.0858 86.3493C84.7408 86.3668 84.3408 86.5968 84.2733 86.9693C83.4733 91.2644 86.2484 94.8744 89.1434 97.717C89.9184 98.4795 91.1134 97.2869 90.3359 96.5244C87.9384 94.1694 85.2258 91.0319 85.8984 87.4168C85.6284 87.6243 85.3559 87.8293 85.0858 88.0368C89.8984 87.7993 94.7085 87.5618 99.521 87.3243L98.9235 85.8843C95.6635 89.4318 92.4034 92.9769 89.1409 96.5244C88.4059 97.3219 89.5984 98.5195 90.3334 97.717H90.3359Z" fill="#231815"/>
<path d="M92.5991 86.7794C92.4416 88.4169 93.2717 89.9695 94.6467 90.8395C95.5667 91.422 96.4142 89.9619 95.4992 89.3819C94.5942 88.8094 94.1867 87.8269 94.2892 86.7794C94.3917 85.7319 92.7066 85.7069 92.6016 86.7794H92.5991Z" fill="#231815"/>
<path d="M41.2457 111.552C40.7932 109.777 41.4332 107.867 42.8332 106.682C43.4632 106.15 44.3133 105.7 45.1633 105.737C45.8083 105.765 46.7708 106.055 46.0483 107.012C45.6883 107.49 44.8908 107.632 44.3508 107.782L44.7983 109.41C45.0258 109.32 45.2558 109.245 45.4908 109.18C45.8108 109.272 46.1058 109.24 46.3758 109.082C45.8183 108.977 45.3408 109.315 45.3083 109.895C45.2658 110.665 45.5208 111.73 45.2658 112.452C44.8383 113.662 43.5007 113.932 42.4632 113.302C42.0657 113.06 41.5482 113.222 41.3082 113.605C38.8282 117.565 32.5431 119.792 28.8056 116.125C26.908 114.262 26.9255 111.665 28.5106 109.607C29.6881 108.077 31.5581 107.13 33.0881 105.997C33.9531 105.36 33.1106 103.892 32.2356 104.54C30.1681 106.067 27.7406 107.32 26.463 109.65C25.038 112.245 25.5105 115.237 27.6106 117.315C32.1306 121.782 39.7107 119.325 42.7632 114.455L41.6082 114.757C42.9807 115.587 44.8033 115.555 45.9908 114.39C47.3033 113.102 46.9008 111.535 46.9933 109.892C46.6383 110.162 46.2808 110.435 45.9258 110.705C47.1258 110.93 48.2733 109.882 47.7558 108.632C47.1708 107.22 45.5383 107.347 44.3508 107.78C43.3457 108.145 43.7383 109.705 44.7983 109.407C46.4058 108.955 48.4608 107.885 47.9283 105.847C47.5308 104.33 45.6908 103.862 44.3233 104.115C40.8307 104.76 38.7807 108.707 39.6182 111.995C39.8857 113.047 41.5132 112.6 41.2457 111.547V111.552Z" fill="#231815"/>
<path d="M38.8709 109.842C36.4184 107.849 34.1709 105.454 32.3683 102.859L32.2358 103.882C34.0359 102.167 35.8359 100.454 37.6384 98.7391C37.8009 98.5841 38.5059 98.1091 38.5409 97.8816C38.5709 97.6941 37.8034 97.9341 38.1484 98.0691C38.3134 98.1341 38.6259 98.0591 38.8059 98.0566C40.0459 98.0316 41.2835 98.0091 42.5235 97.9841C42.8985 97.9766 43.2335 97.7266 43.336 97.3641C43.561 96.5841 43.786 95.8041 44.011 95.0241L42.9735 95.6141C46.1435 96.6316 48.581 98.9766 51.7636 99.9991C52.8011 100.332 53.2436 98.7041 52.2111 98.3716C49.0411 97.3541 46.6035 95.0091 43.421 93.9866C42.9835 93.8466 42.506 94.1516 42.3835 94.5766C42.1585 95.3566 41.9335 96.1366 41.7085 96.9166L42.521 96.2966C41.251 96.3216 39.9784 96.3466 38.7084 96.3716C37.7334 96.3916 37.3834 96.6541 36.6984 97.3066C34.8134 99.1016 32.9284 100.894 31.0433 102.689C30.7908 102.929 30.7033 103.414 30.9108 103.712C32.7983 106.427 35.1109 108.949 37.6784 111.034C38.5134 111.714 39.7159 110.527 38.8709 109.842Z" fill="#231815"/>
<path d="M67.7857 108.137C68.6407 109.225 70.3082 109.152 71.2457 108.222C72.3933 107.082 72.2583 105.367 71.6982 103.982C71.2957 102.99 69.6632 103.422 70.0707 104.43C70.3532 105.127 70.6532 105.98 70.2832 106.702C70.0007 107.255 69.3957 107.472 68.9782 106.942C68.3082 106.09 67.1207 107.29 67.7857 108.135V108.137Z" fill="#231815"/>
<path d="M72.8465 103.472C73.089 103.187 73.2765 104.505 73.254 104.697C73.1815 105.267 72.894 105.735 72.474 106.115C71.6665 106.845 72.864 108.035 73.6665 107.307C74.7491 106.327 75.2441 104.737 74.7766 103.33C74.3566 102.06 72.724 101.017 71.6515 102.277C70.9515 103.1 72.1415 104.3 72.844 103.47L72.8465 103.472Z" fill="#231815"/>
<path d="M75.0611 102.449C75.8561 102.979 76.0486 104.049 75.4261 104.794C74.7361 105.624 75.9236 106.824 76.6186 105.987C77.9561 104.382 77.6661 102.157 75.9136 100.992C75.0061 100.389 74.161 101.849 75.0611 102.449Z" fill="#231815"/>
<path d="M54.6557 95.8944L51.4031 97.8044C50.4681 98.3544 51.3156 99.8119 52.2556 99.2619C53.3406 98.6244 54.4256 97.9894 55.5082 97.3519C56.4432 96.8019 55.5957 95.3444 54.6557 95.8944Z" fill="#231815"/>
<path d="M37.0408 126.112C38.3558 138.525 39.6733 150.937 40.9883 163.35C41.1008 164.42 42.7908 164.43 42.6758 163.35C41.3608 150.937 40.0433 138.525 38.7283 126.112C38.6158 125.042 36.9258 125.032 37.0408 126.112Z" fill="#231815"/>
<path d="M51.3154 132.93C51.3154 143.84 51.3154 154.748 51.3154 165.658C51.3154 166.743 53.003 166.745 53.003 165.658C53.003 165.308 53.003 164.96 53.003 164.61C53.003 163.525 51.3154 163.523 51.3154 164.61C51.3154 164.96 51.3154 165.308 51.3154 165.658H53.003C53.003 154.748 53.003 143.84 53.003 132.93C53.003 131.845 51.3154 131.842 51.3154 132.93Z" fill="#231815"/>
<path d="M56.5659 129.087C55.5833 139.853 54.6008 150.618 53.6183 161.383C53.5208 162.463 55.2083 162.458 55.3058 161.383C56.2884 150.618 57.2709 139.853 58.2534 129.087C58.3509 128.007 56.6634 128.012 56.5659 129.087Z" fill="#231815"/>
<path d="M52.0811 166.273L54.2036 167.795L54.4061 166.253C50.9986 166.948 47.5885 167.643 44.181 168.335C43.1185 168.553 43.5685 170.178 44.6285 169.963C48.036 169.268 51.4461 168.573 54.8536 167.88C55.6311 167.723 55.5936 166.725 55.0561 166.338C54.3486 165.83 53.6411 165.323 52.9336 164.815C52.0486 164.18 51.2061 165.645 52.0811 166.273Z" fill="#231815"/>
<path d="M52.1655 169.897C54.163 168.932 56.5255 167.777 58.7805 168.562C61.2231 169.415 61.6256 172.62 58.8555 173.277C56.613 173.81 54.0505 173.567 51.758 173.635C49.0954 173.712 46.4304 173.79 43.7679 173.87C42.6853 173.902 42.6803 175.59 43.7679 175.558C47.4804 175.45 51.193 175.34 54.9055 175.233C57.328 175.163 60.8556 175.45 62.1581 172.865C63.2906 170.617 61.8306 168.01 59.6656 167.105C56.823 165.917 53.888 167.197 51.313 168.442C50.3354 168.915 51.1905 170.37 52.1655 169.9V169.897Z" fill="#231815"/>
<path d="M41.7731 166.996C41.4306 168.823 41.0881 170.653 40.7481 172.481C40.5506 173.543 42.1756 173.998 42.3756 172.928C42.7181 171.101 43.0606 169.271 43.4006 167.443C43.5981 166.38 41.9731 165.925 41.7731 166.996Z" fill="#231815"/>
<path d="M56.4136 165.02C58.6736 163.325 61.4762 165.498 60.4137 168.1C60.0037 169.105 61.6362 169.543 62.0412 168.548C63.6487 164.61 58.9611 161.015 55.5636 163.563C54.7061 164.208 55.5461 165.673 56.4161 165.02H56.4136Z" fill="#231815"/>
</svg>
