<svg width="200" height="201" viewBox="0 0 200 201" fill="none" xmlns="http://www.w3.org/2000/svg">
<path d="M102.896 41.0641C102.896 41.0641 102.238 36.9391 105.426 35.8841C108.611 34.829 111.806 33.9415 112.104 33.644C112.401 33.3465 114.394 31.569 117.499 33.104C120.604 34.639 124.151 37.8041 124.151 40.7791C124.151 43.7541 123.671 44.6167 122.329 44.9042C120.986 45.1917 113.496 41.7391 113.496 37.5191C113.496 37.5191 115.504 35.2165 113.496 35.2165C111.489 35.2165 109.091 37.7116 109.091 37.7116L109.249 39.9566C109.249 39.9566 104.376 42.1241 102.896 41.0691V41.0641Z" fill="#E8D575"/>
<path d="M129.876 81.7075C128.014 79.5325 119.684 70.7273 119.684 70.7273L116.914 63.5848L102.896 79.265L103.961 71.6374L103.348 67.3398C103.348 67.3398 99.4859 67.8873 98.2184 63.7698C96.9509 59.6522 90.8183 40.8695 94.9708 30.5368C94.9708 30.5368 90.6508 30.8068 88.0033 26.8418C88.0033 26.8418 84.6332 48.6771 90.1683 68.7623L89.5508 73.6299L81.0432 105.623H88.0057L80.6407 109.505C80.6407 109.505 62.8554 113.513 62.7604 116.488C62.6654 119.463 67.228 130.523 67.228 130.523L72.6956 140.801L68.8305 146.311L73.3431 146.968C73.3431 146.968 70.233 151.378 67.1255 151.378C64.0179 151.378 58.7879 150.183 59.9829 151.378C61.1779 152.573 63.9129 154.368 63.9129 154.368L65.5755 157.761L79.6806 154.698L77.7281 170.231H80.4807L84.3632 174.319L78.1406 175.369C78.1406 175.369 72.8956 172.144 70.618 173.351C68.343 174.559 67.8605 177.216 68.828 178.266C69.798 179.316 77.3856 180.254 77.3856 180.254L88.4833 183.861C88.4833 183.861 92.0283 184.164 91.6308 179.851C91.2333 175.536 89.5458 172.049 89.5458 172.049L91.8208 174.151C91.8208 174.151 86.7732 155.321 94.9633 138.238C103.153 121.155 108.319 118.455 108.319 118.455L111.219 122.333L113.949 99.5527L136.296 93.3876C136.296 93.3876 131.731 83.8825 129.866 81.7075H129.876ZM84.6707 136.681L79.2781 125.076L90.0608 121.055L84.6682 136.683L84.6707 136.681ZM96.4584 104.788L95.1783 102.96C95.1783 102.96 93.8083 102.413 93.2283 100.433C92.6483 98.4527 94.9958 98.2102 94.9958 98.2102C94.9958 98.2102 93.9908 97.3877 94.6308 95.4677C95.2708 93.5476 98.0584 95.6502 98.0584 95.6502C101.626 94.0076 103.728 95.2852 103.728 95.2852L105.516 102.23L96.4584 104.79V104.788Z" fill="#C9CDD3"/>
<path d="M104.234 76.9475C104.234 76.6925 105.957 71.3899 105.957 71.3899L107.304 70.2324L105.597 69.1449L106.794 67.3398L108.969 68.6949V72.7874L104.237 76.945L104.234 76.9475Z" fill="#E8D575"/>
<path d="M114.904 35.4521C114.904 35.4521 112.677 38.9522 111.464 39.3697C110.252 39.7872 106.977 41.1622 106.977 41.1622L107.244 37.0397L114.482 33.9746L114.904 35.4546V35.4521Z" fill="#E8D575"/>
<path d="M101.387 46.9967C98.1493 50.2068 97.5992 55.6918 100.407 59.3594C103.122 62.9044 108.264 63.8944 112.192 61.9094C113.162 61.4194 112.307 59.9644 111.339 60.4519C108.132 62.0719 103.822 61.1694 101.662 58.2394C99.4393 55.2243 99.9693 50.7793 102.579 48.1917C103.352 47.4267 102.159 46.2317 101.387 46.9992V46.9967Z" fill="#231F20"/>
<path d="M105.432 50.6414C105.187 50.9864 104.942 51.3289 104.697 51.6739C104.452 52.0189 104.622 52.629 104.999 52.829C105.434 53.059 105.879 52.9115 106.154 52.5265C106.399 52.1815 106.644 51.8389 106.889 51.4939C107.134 51.1489 106.964 50.5389 106.587 50.3389C106.152 50.1089 105.707 50.2564 105.432 50.6414Z" fill="#231F20"/>
<path d="M111.523 47.5794C111.368 48.1069 111.215 48.6319 111.06 49.1594C110.933 49.5969 111.215 50.0769 111.65 50.1969C112.098 50.3194 112.56 50.0469 112.688 49.6069C112.843 49.0794 112.995 48.5544 113.15 48.0269C113.278 47.5894 112.995 47.1094 112.56 46.9894C112.113 46.8669 111.65 47.1394 111.523 47.5794Z" fill="#231F20"/>
<path d="M104.431 45.6069C104.301 46.0544 104.168 46.4994 104.038 46.947C103.913 47.3695 104.188 47.8845 104.628 47.9845C105.068 48.0845 105.533 47.8495 105.666 47.3945C105.798 46.9394 105.928 46.5019 106.058 46.0544C106.183 45.6319 105.908 45.1169 105.468 45.0169C105.028 44.9169 104.563 45.1519 104.431 45.6069Z" fill="#231F20"/>
<path d="M111.68 36.6469C109.42 39.5719 105.875 41.0245 102.213 40.5345C101.14 40.392 101.15 42.0795 102.213 42.222C106.25 42.762 110.383 41.062 112.873 37.8419C113.528 36.9944 112.343 35.7894 111.68 36.6494V36.6469Z" fill="#231F20"/>
<path d="M101.452 38.8441C101.484 36.1415 103.787 34.1015 106.489 34.559C107.552 34.739 108.009 33.114 106.937 32.9315C103.147 32.289 99.8093 34.9565 99.7618 38.8416C99.7493 39.9266 101.437 39.9291 101.449 38.8416L101.452 38.8441Z" fill="#231F20"/>
<path d="M110.257 32.6665C114.287 31.159 118.967 31.889 122.117 34.9115C123.542 36.279 124.603 38.0066 125.168 39.9016C125.635 41.4641 126.443 45.6567 123.955 45.9642C122.89 46.0942 122.877 47.7842 123.955 47.6517C126.758 47.3067 127.493 44.5117 127.283 42.0541C127.073 39.5966 126.088 37.0591 124.505 35.0465C121.057 30.6615 115.007 29.094 109.81 31.039C108.802 31.4165 109.237 33.049 110.257 32.6665Z" fill="#231F20"/>
<path d="M110.416 39.4368C111.738 43.4494 115.251 46.4919 119.461 47.0769C120.523 47.2244 120.983 45.5994 119.908 45.4494C116.283 44.9469 113.196 42.4869 112.043 38.9868C111.706 37.9593 110.076 38.3993 110.416 39.4343V39.4368Z" fill="#231F20"/>
<path d="M120.002 51.2265C120.624 50.3789 121.877 50.2489 122.787 50.6765C123.865 51.184 124.17 52.424 123.837 53.4965C122.99 56.2365 119.657 55.8965 118.094 54.0315C117.397 53.199 116.207 54.3965 116.902 55.224C119.544 58.3765 125.147 57.614 125.625 53.1115C126.045 49.1514 120.882 47.1889 118.544 50.3739C117.902 51.2515 119.364 52.094 120.002 51.2265Z" fill="#231F20"/>
<path d="M107.345 62.6897C107.392 63.8298 107.437 64.9723 107.485 66.1123C107.53 67.1948 109.217 67.1998 109.172 66.1123C109.127 65.0248 109.08 63.8298 109.032 62.6897C108.987 61.6072 107.3 61.6022 107.345 62.6897Z" fill="#231F20"/>
<path d="M116.316 62.9897C111.336 68.5598 106.359 74.1298 101.379 79.7024C100.656 80.5099 101.846 81.7074 102.571 80.8949C107.551 75.3249 112.529 69.7548 117.509 64.1822C118.231 63.3747 117.041 62.1772 116.316 62.9897Z" fill="#231F20"/>
<path d="M117.242 66.3493C117.832 67.3093 118.832 68.8593 118.105 69.9668C117.467 70.9368 116.04 70.8193 115.012 70.7743C113.985 70.7293 113.937 72.1219 114.787 72.4319C116.22 72.9544 115.255 74.8094 114.562 75.4469C113.57 76.3619 112.227 76.9619 111.067 77.6319C108.482 79.1269 105.895 80.6195 103.31 82.1145C102.37 82.657 103.217 84.117 104.162 83.572C106.175 82.4095 108.185 81.247 110.197 80.0844C111.892 79.1044 113.74 78.2244 115.292 77.0219C116.357 76.1944 117.207 75.0619 117.197 73.6594C117.187 72.3394 116.475 71.2518 115.24 70.8018L115.015 72.4594C116.665 72.5294 118.622 72.4094 119.582 70.8443C120.647 69.1068 119.655 67.0393 118.705 65.4943C118.137 64.5718 116.677 65.4168 117.247 66.3468L117.242 66.3493Z" fill="#231F20"/>
<path d="M105.104 64.6424C104.059 65.3749 103.014 66.1074 101.971 66.8424C101.089 67.4624 101.931 68.925 102.824 68.2999C103.869 67.5674 104.914 66.8349 105.956 66.0999C106.839 65.4799 105.996 64.0174 105.104 64.6424Z" fill="#231F20"/>
<path d="M105.942 66.9147C105.174 67.9372 104.404 68.9572 103.637 69.9797C103.357 70.3498 103.587 70.9173 103.939 71.1348C104.647 71.5723 105.354 72.0098 106.062 72.4473C106.989 73.0198 107.837 71.5598 106.914 70.9898C106.207 70.5522 105.499 70.1147 104.792 69.6772L105.094 70.8323C105.862 69.8097 106.632 68.7897 107.399 67.7672C108.052 66.8997 106.587 66.0572 105.942 66.9147Z" fill="#231F20"/>
<path d="M102.992 72.3022C102.689 74.2448 102.387 76.1873 102.084 78.1323C101.919 79.1948 103.544 79.6523 103.712 78.5798C104.014 76.6373 104.317 74.6948 104.619 72.7498C104.784 71.6872 103.159 71.2297 102.992 72.3022Z" fill="#231F20"/>
<path d="M89.7562 77.4672C83.0811 60.6795 82.3236 41.8492 87.6612 24.589H86.0337C87.1137 27.3716 88.9162 30.6266 92.1637 31.1591C94.8138 31.5941 97.7213 29.9791 97.9188 27.144C97.9938 26.059 96.3063 26.064 96.2313 27.144C96.0863 29.2216 93.3738 29.9641 91.7112 29.2891C89.6012 28.4341 88.4387 26.1415 87.6612 24.1415C87.3687 23.3865 86.2937 23.299 86.0337 24.1415C80.6161 41.6592 81.3536 60.877 88.1287 77.9172C88.5262 78.9147 90.1587 78.4797 89.7562 77.4697V77.4672Z" fill="#231F20"/>
<path d="M91.3737 25.4369L89.1937 21.7469C88.6412 20.8119 87.1837 21.6594 87.7362 22.5994L89.9162 26.2894C90.4687 27.2244 91.9262 26.3769 91.3737 25.4369Z" fill="#231F20"/>
<path d="M98.3324 19.8843C98.3124 18.6767 99.8074 19.0217 100.155 19.8443C100.62 20.9468 99.8074 22.0443 98.9624 22.6893C98.1099 23.3393 98.9499 24.8043 99.8149 24.1468C101.637 22.7593 102.962 20.0743 101.025 18.1517C99.4724 16.6092 96.6098 17.6067 96.6448 19.8843C96.6623 20.9693 98.3499 20.9718 98.3324 19.8843Z" fill="#231F20"/>
<path d="M94.5865 18.3743C95.5465 19.1018 97.2365 20.3818 96.5465 21.7994C95.6515 23.6369 93.6965 21.0019 93.2065 20.2218C92.629 19.3043 91.1689 20.1518 91.7489 21.0744C92.4364 22.1669 93.2065 23.3094 94.4565 23.7969C95.5965 24.2419 96.9165 24.0744 97.7215 23.0944C99.6265 20.7794 97.224 18.2693 95.4365 16.9168C94.5715 16.2618 93.729 17.7268 94.584 18.3743H94.5865Z" fill="#231F20"/>
<path d="M91.2444 19.736C91.7644 21.3861 92.2869 23.0361 92.8069 24.6836C93.1319 25.7161 94.762 25.2736 94.4345 24.2361C93.9144 22.5861 93.3919 20.936 92.8719 19.2885C92.5469 18.256 90.9169 18.6985 91.2444 19.736Z" fill="#231F20"/>
<path d="M86.6996 24.284C85.167 23.1039 87.2096 20.8289 88.1071 19.9814C89.1821 18.9664 90.4646 18.2564 91.8671 17.8114C92.8996 17.4864 92.4571 15.8564 91.4196 16.1839C89.1396 16.9039 87.1396 18.2464 85.6945 20.1639C84.372 21.9189 83.927 24.259 85.8495 25.739C86.7096 26.4015 87.5496 24.9365 86.702 24.2815L86.6996 24.284Z" fill="#231F20"/>
<path d="M94.1288 30.5388C92.6563 42.134 94.1088 53.9991 98.3313 64.8968C98.7188 65.8993 100.351 65.4643 99.9588 64.4493C95.7813 53.6691 94.3588 42.009 95.8163 30.5388C95.9538 29.4638 94.2638 29.4738 94.1288 30.5388Z" fill="#231F20"/>
<path d="M118.242 69.9768C125.485 76.7519 131.36 84.837 135.577 93.8121L136.082 92.5721C126.997 95.0771 117.912 97.5847 108.829 100.09C109.147 100.22 109.464 100.347 109.782 100.477C108.919 98.6647 108.054 96.8497 107.192 95.0371L106.889 96.1922C112.57 92.7771 118.252 89.3621 123.932 85.947C124.862 85.387 124.015 83.9295 123.08 84.4895C117.4 87.9045 111.717 91.3196 106.037 94.7346C105.622 94.9846 105.537 95.4721 105.734 95.8896C106.597 97.7022 107.462 99.5172 108.324 101.33C108.482 101.662 108.939 101.81 109.277 101.717C118.362 99.2122 127.447 96.7047 136.53 94.1996C137.092 94.0446 137.262 93.4471 137.035 92.9596C132.762 83.867 126.775 75.6469 119.437 68.7843C118.645 68.0418 117.45 69.2343 118.245 69.9768H118.242Z" fill="#231F20"/>
<path d="M102.764 96.8648C103.367 98.7299 103.972 100.597 104.574 102.462C104.772 102.117 104.967 101.77 105.164 101.425C103.617 101.927 102.072 102.427 100.524 102.93C99.8294 103.155 99.1344 103.385 98.4369 103.607C98.1119 103.712 97.7819 103.835 97.4469 103.902C97.1944 103.952 95.7869 103.932 96.2569 103.417C96.6919 102.94 96.4419 101.875 95.6594 101.977C94.6718 102.107 93.6818 101.402 94.1543 100.297C94.5768 99.3099 93.1243 98.4499 92.6968 99.4449C91.7893 101.565 93.1993 103.985 95.6594 103.665L95.0618 102.225C93.6293 103.795 95.2719 105.725 97.0894 105.647C98.3994 105.592 99.7394 104.957 100.972 104.557C102.519 104.055 104.064 103.555 105.612 103.052C106.032 102.917 106.347 102.465 106.202 102.015C105.599 100.15 104.994 98.2824 104.392 96.4173C104.059 95.3873 102.429 95.8273 102.764 96.8648Z" fill="#231F20"/>
<path d="M95.5091 96.9478L95.4816 95.9878C95.8216 95.8328 96.1391 95.8428 96.4291 96.0203C96.8216 96.1828 97.0866 96.4753 97.3541 96.8003C97.6641 97.1803 98.2216 97.0628 98.5466 96.8003C100.009 95.6253 102.002 95.6928 103.497 96.7478C104.387 97.3753 105.229 95.9128 104.349 95.2903C102.189 93.7652 99.3816 93.9802 97.3541 95.6078H98.5466C97.4041 94.2127 95.1791 93.5477 93.8841 95.1603C92.7391 96.5878 93.7766 98.5378 95.5116 98.6378C96.5966 98.7003 96.5941 97.0128 95.5116 96.9503L95.5091 96.9478Z" fill="#231F20"/>
<path d="M105.259 56.3096C104.969 55.8595 104.679 55.407 104.392 54.957L103.887 56.1971C106.554 55.3145 109.267 54.622 112.029 54.112C111.674 53.842 111.317 53.5695 110.962 53.2995C110.997 55.1045 111.042 57.7196 108.919 58.3821C107.887 58.7046 108.327 60.3346 109.367 60.0096C112.319 59.0896 112.697 55.9695 112.647 53.302C112.637 52.717 112.119 52.3895 111.579 52.4895C108.817 52.997 106.104 53.692 103.437 54.5745C102.942 54.737 102.624 55.3345 102.932 55.8145C103.222 56.2645 103.512 56.7171 103.799 57.1671C104.384 58.0771 105.844 57.2321 105.257 56.3146L105.259 56.3096Z" fill="#231F20"/>
<path d="M89.7718 72.3599C87.1393 83.7825 83.9568 95.0701 80.2367 106.185C80.0692 106.683 80.5192 107.288 81.0492 107.253C83.9643 107.063 86.8818 106.873 89.7968 106.683C90.8744 106.613 90.8819 104.925 89.7968 104.995C86.8818 105.185 83.9643 105.375 81.0492 105.565L81.8617 106.633C85.5818 95.5176 88.7618 84.23 91.3969 72.8074C91.6394 71.7499 90.0143 71.2998 89.7693 72.3599H89.7718Z" fill="#231F20"/>
<path d="M92.4454 110.355C86.2953 125.485 81.8128 141.281 79.1402 157.393C78.3902 161.916 77.7827 166.463 77.3077 171.023C77.2627 171.458 77.7302 171.896 78.1527 171.868C82.8003 171.561 87.3528 172.581 91.4079 174.878C91.9579 175.188 92.6854 174.798 92.6779 174.151C92.4854 159.558 94.8904 145.028 102.321 132.28C104.506 128.533 107.046 125.01 109.843 121.7C110.541 120.875 109.353 119.675 108.651 120.508C103.783 126.27 99.7155 132.635 96.8054 139.606C93.9754 146.381 92.3279 153.566 91.5479 160.853C91.0754 165.271 90.9304 169.713 90.9904 174.153L92.2604 173.426C87.9653 170.993 83.0803 169.858 78.1527 170.186L78.9977 171.031C80.6727 154.938 84.1278 139.043 89.2828 123.708C90.7454 119.358 92.3479 115.06 94.0754 110.81C94.4854 109.805 92.8529 109.368 92.4479 110.363L92.4454 110.355Z" fill="#231F20"/>
<path d="M82.615 108.018C78.2824 109.348 73.9498 110.678 69.6173 112.008C68.1048 112.473 66.5673 112.893 65.0697 113.406C63.3122 114.006 61.9822 115.413 61.6672 117.273C61.2822 119.536 62.6822 121.981 63.4947 124.018C65.8697 129.966 68.7073 135.718 71.9748 141.226C72.5273 142.158 73.9873 141.311 73.4323 140.373C70.7548 135.858 68.3548 131.183 66.2797 126.361C65.2572 123.986 63.9797 121.433 63.3872 118.908C62.9822 117.181 63.9297 115.581 65.5822 115.013C69.7348 113.591 73.9973 112.428 78.1949 111.141C79.8174 110.643 81.4399 110.143 83.065 109.645C84.1 109.328 83.6575 107.698 82.6175 108.018H82.615Z" fill="#231F20"/>
<path d="M116.388 98.3096C114.588 106.897 113.176 115.56 112.146 124.272C112.626 124.072 113.106 123.875 113.586 123.675C108.663 118.242 103.741 112.807 98.818 107.375C98.088 106.567 96.898 107.765 97.6255 108.567C102.548 114 107.471 119.435 112.393 124.867C112.936 125.467 113.756 124.935 113.833 124.27C114.848 115.707 116.248 107.195 118.016 98.7546C118.238 97.6946 116.611 97.2421 116.388 98.3071V98.3096Z" fill="#231F20"/>
<path d="M70.4044 178.718C69.2119 177.523 67.6194 175.368 69.9694 174.393C71.7819 173.641 74.1219 174.823 75.842 175.428C79.6945 176.783 83.477 178.316 87.1946 180.006C88.1746 180.453 89.0346 178.998 88.0471 178.548C85.5096 177.393 82.9395 176.303 80.3395 175.296C77.752 174.293 74.9869 173.013 72.2319 172.576C70.3869 172.283 68.2244 172.798 67.3368 174.611C66.3493 176.628 67.8444 178.543 69.2119 179.913C69.9794 180.683 71.1744 179.491 70.4044 178.721V178.718Z" fill="#231F20"/>
<path d="M80.0635 172.106C81.3586 173.086 82.6536 174.066 83.9461 175.046C84.8111 175.701 85.6536 174.236 84.7986 173.588L80.916 170.648C80.051 169.993 79.2085 171.458 80.0635 172.106Z" fill="#231F20"/>
<path d="M72.6838 179.619C75.4513 180.511 78.2188 181.401 80.9864 182.294C82.4089 182.751 83.8314 183.211 85.2564 183.669C86.4264 184.046 87.6489 184.594 88.8865 184.684C91.0915 184.846 91.899 182.926 92.209 181.074C92.634 178.541 92.394 175.979 91.549 173.559C91.194 172.539 89.5615 172.979 89.9215 174.006C90.664 176.136 90.9415 178.386 90.5815 180.624C90.434 181.539 90.269 183.011 89.069 183.014C88.1189 183.014 87.0639 182.479 86.1789 182.194C81.8314 180.794 77.4813 179.391 73.1338 177.991C72.0987 177.659 71.6537 179.286 72.6863 179.619H72.6838Z" fill="#231F20"/>
<path d="M70.4427 143.281C69.6652 144.566 68.8877 145.851 68.1127 147.136C67.8127 147.631 68.1877 148.491 68.8402 148.406C73.2702 147.821 77.7003 147.238 82.1303 146.653C82.7929 146.566 83.3229 145.763 82.7279 145.213C82.1028 144.636 81.3953 144.538 80.6553 144.963C79.7128 145.503 80.5628 146.961 81.5078 146.421L81.5353 146.408L82.1328 144.968C77.7028 145.553 73.2727 146.136 68.8427 146.721C69.0852 147.143 69.3277 147.568 69.5702 147.991L71.9002 144.136C72.4627 143.203 71.0052 142.356 70.4427 143.283V143.281Z" fill="#231F20"/>
<path d="M65.4067 147.836C64.0092 147.538 62.6142 147.453 61.1942 147.651C59.8992 147.831 59.0967 148.003 58.6792 149.323C57.9716 151.561 59.4292 153.756 61.4517 154.636C64.1242 155.798 67.0743 154.933 69.7793 154.351C73.1543 153.623 76.5269 152.896 79.9019 152.168C80.9619 151.938 80.5144 150.313 79.4544 150.541C75.0069 151.501 70.5343 152.721 66.0342 153.398C64.0667 153.696 60.9967 153.578 60.3067 151.218C60.1967 150.838 60.1217 150.318 60.2517 149.933C60.4767 149.276 60.9492 149.358 61.6342 149.276C62.7492 149.143 63.8617 149.226 64.9567 149.458C66.0517 149.691 66.4692 148.058 65.4042 147.831L65.4067 147.836Z" fill="#231F20"/>
<path d="M65.1519 158.571C70.072 157.551 74.9946 156.528 79.9146 155.508C80.9771 155.288 80.5271 153.661 79.4671 153.881C74.547 154.901 69.6245 155.923 64.7044 156.943C63.6419 157.163 64.0919 158.791 65.1519 158.571Z" fill="#231F20"/>
<path d="M78.3888 125.315C80.0489 129.068 81.7064 132.823 83.3664 136.575C83.8089 136.235 84.2489 135.893 84.6914 135.553L84.3214 135.258C83.4789 134.588 82.2789 135.775 83.1289 136.45L83.4989 136.745C84.2589 137.35 85.2214 136.62 84.8239 135.723C83.1639 131.97 81.5064 128.215 79.8464 124.463C79.4089 123.473 77.9538 124.33 78.3888 125.315Z" fill="#231F20"/>
<path d="M75.6746 126.556C79.1396 125.413 82.6071 124.268 86.0722 123.126C87.0997 122.788 86.6597 121.156 85.6247 121.498C82.1596 122.641 78.6921 123.786 75.2271 124.928C74.1995 125.266 74.6396 126.898 75.6746 126.556Z" fill="#231F20"/>
<path d="M87.6439 111.415C87.9764 113.835 88.3089 116.257 88.6389 118.677C88.7864 119.747 90.4114 119.292 90.2664 118.23C89.9339 115.81 89.6014 113.387 89.2714 110.967C89.1239 109.897 87.4989 110.352 87.6439 111.415Z" fill="#231F20"/>
</svg>
