<svg width="201" height="201" viewBox="0 0 201 201" fill="none" xmlns="http://www.w3.org/2000/svg">
<path d="M152.137 127.408C152.137 127.408 148.867 122.953 146.33 120.838C143.792 118.723 135.444 117.23 135.444 117.23L106.924 87.615C106.924 87.615 107.757 83.185 109.197 78.1924C110.639 73.1998 105.907 68.8248 105.907 68.8248C105.907 68.8248 94.7839 57.4946 89.3788 52.0896C83.9738 46.6845 84.8263 48.387 79.6937 46.9645C74.5612 45.542 66.5636 53.6671 66.5636 53.6671L78.8287 66.2922C78.8287 66.2922 85.2038 71.8548 86.9688 73.6223C88.7363 75.3899 87.5763 76.9274 87.5763 76.9274C87.5763 76.9274 80.5662 84.265 78.5912 86.24C76.6162 88.215 75.9387 87.3925 75.9387 87.3925C75.9387 87.3925 54.1559 65.9097 53.7109 66.2948C41.2382 77.0499 49.4833 85.935 49.4833 85.935L64.6235 101.373C64.6235 101.373 69.9236 107.295 76.4787 108.75C83.0338 110.205 88.8388 105.425 88.8388 105.425C88.8388 105.425 111.704 127.873 116.692 134.111C121.679 140.346 115.444 142.841 123.967 149.701C132.489 156.561 138.517 155.936 148.865 148.598C159.212 141.261 152.135 127.411 152.135 127.411L152.137 127.408ZM136.044 143.311C131.822 143.311 128.399 139.888 128.399 135.666C128.399 131.443 131.822 128.021 136.044 128.021C140.267 128.021 143.69 131.443 143.69 135.666C143.69 139.888 140.267 143.311 136.044 143.311Z" fill="#E8D575"/>
<path d="M136.454 117.048C127.792 108.386 119.127 99.7204 110.464 91.0578C109.259 89.8528 108.054 88.6478 106.849 87.4428C106.894 87.7828 106.936 88.1253 106.981 88.4653C110.879 82.7977 111.079 75.0951 107.281 69.3125C105.466 66.5475 102.744 64.2625 100.421 61.9374C97.2263 58.7424 94.0313 55.5474 90.8363 52.3523C90.0937 51.6098 89.3587 50.8573 88.6062 50.1223C86.4562 48.0198 83.7362 46.6422 80.7461 46.2472C77.1111 45.7672 73.401 46.7722 70.5135 49.0323C68.8635 50.3248 67.446 51.9548 65.9684 53.4323C65.6459 53.7548 65.6459 54.3023 65.9684 54.6248C70.5485 59.2049 75.1286 63.785 79.7111 68.3675C80.3611 69.0175 81.0086 69.665 81.6586 70.315C82.4286 71.085 83.6212 69.89 82.8512 69.1225C78.2711 64.5425 73.691 59.9624 69.1085 55.3799L67.161 53.4323V54.6248C68.2635 53.5223 69.3535 52.4098 70.466 51.3198C72.6985 49.1348 75.6361 47.8498 78.7736 47.8098C82.0136 47.7673 85.0812 49.0373 87.3937 51.2948C87.9712 51.8573 88.5337 52.4348 89.1062 53.0073C94.0213 57.9224 98.9838 62.7974 103.856 67.7575C109.124 73.1201 109.769 81.4427 105.526 87.6128C105.316 87.9178 105.409 88.3853 105.659 88.6353C114.322 97.2979 122.987 105.963 131.649 114.626C132.854 115.831 134.059 117.036 135.264 118.241C136.034 119.011 137.227 117.816 136.457 117.048H136.454Z" fill="#231F20"/>
<path d="M95.0042 113.87C101.974 120.84 108.947 127.813 115.917 134.783C116.319 135.186 116.857 135.588 117.187 136.053C117.422 136.383 117.187 135.601 117.079 136.371C116.909 137.556 117.334 139.141 117.612 140.286C118.815 145.251 122.092 149.623 126.51 152.188C134.642 156.908 145.3 154.811 151.052 147.381C157.923 138.506 155.377 125.548 145.982 119.603C145.062 119.02 144.215 120.48 145.13 121.06C153.297 126.228 155.815 137.261 150.437 145.363C145.22 153.223 134.292 155.368 126.457 150.166C122.095 147.268 119.207 142.378 118.812 137.153C118.74 136.211 118.917 135.421 118.257 134.733C117.839 134.296 117.399 133.876 116.972 133.448C113.152 129.628 109.332 125.808 105.514 121.99C102.409 118.885 99.3043 115.78 96.1992 112.675C95.4292 111.905 94.2367 113.1 95.0067 113.868L95.0042 113.87Z" fill="#231F20"/>
<path d="M86.4334 75.0925C87.6734 76.53 85.7984 77.84 84.8659 78.7726C83.4634 80.1751 82.0634 81.5751 80.6609 82.9776C79.6458 83.9926 78.6683 85.0676 77.6058 86.0326C76.6308 86.9201 75.7133 86.5151 74.9308 85.7351C69.9957 80.8001 65.0582 75.8625 60.1231 70.9275C58.3806 69.1849 56.6381 67.4424 54.8955 65.6999C54.573 65.3774 54.0255 65.3774 53.703 65.6999C52.5505 66.8524 51.3755 67.9874 50.243 69.1624C47.9455 71.5475 46.5829 74.6875 46.4104 77.995C46.2404 81.2626 47.2904 84.5276 49.303 87.1002C50.038 88.0402 50.9155 88.8602 51.758 89.7027C54.8255 92.7702 57.8956 95.8403 60.9631 98.9078C63.1356 101.08 65.2332 103.385 67.5257 105.433C73.3983 110.67 82.2709 111.155 88.7335 106.71C89.6235 106.098 88.7785 104.635 87.881 105.253C82.2784 109.105 74.6308 109.035 69.2807 104.718C67.1057 102.963 65.2082 100.768 63.2356 98.7953C60.2031 95.7628 57.1681 92.7277 54.1355 89.6952C51.563 87.1226 49.0505 84.7551 48.298 80.9776C47.5804 77.375 48.6155 73.4925 51.063 70.7499C52.268 69.4024 53.6155 68.1674 54.893 66.8899H53.7005C58.4881 71.6775 63.2731 76.4625 68.0607 81.2501C70.0607 83.2501 72.0107 85.3226 74.0708 87.2602C75.4408 88.5477 77.3308 88.5952 78.7208 87.3027C79.8283 86.2726 80.8684 85.1551 81.9384 84.0851C83.5559 82.4676 85.1734 80.8501 86.7909 79.2326C87.1459 78.8776 87.5359 78.5325 87.851 78.1375C88.896 76.8225 88.6785 75.12 87.6259 73.9C86.9159 73.075 85.7259 74.275 86.4334 75.0925Z" fill="#231F20"/>
<path d="M82.2512 70.5625C83.3362 70.5625 83.3387 68.875 82.2512 68.875C81.1637 68.875 81.1637 70.5625 82.2512 70.5625Z" fill="#231F20"/>
<path d="M140.93 140.661C138.205 143.264 133.87 143.374 131.157 140.661C128.492 137.996 128.492 133.553 131.157 130.888C133.817 128.228 138.27 128.216 140.93 130.888C143.638 133.608 143.538 137.928 140.93 140.661C140.18 141.446 141.373 142.641 142.123 141.853C144.59 139.268 145.358 135.481 143.855 132.191C142.35 128.893 138.798 126.856 135.193 127.221C131.627 127.583 128.562 130.201 127.697 133.691C126.832 137.181 128.28 140.886 131.237 142.904C134.648 145.229 139.19 144.651 142.12 141.851C142.908 141.098 141.713 139.908 140.928 140.658L140.93 140.661Z" fill="#231F20"/>
</svg>
