<svg width="200" height="200" viewBox="0 0 200 200" fill="none" xmlns="http://www.w3.org/2000/svg">
<path d="M72.0088 113.939V138.619C72.0088 138.619 88.369 137.369 89.684 131.354V109.437C89.684 109.437 81.2539 113.937 72.0088 113.937" fill="#E8D575"/>
<path d="M70.716 94.4761C61.8109 94.4761 54.5908 97.6711 54.5908 101.614C54.5908 105.556 61.8109 108.751 70.716 108.751C79.6211 108.751 86.8412 105.556 86.8412 101.614C86.8412 97.6711 79.6211 94.4761 70.716 94.4761ZM70.716 104.404C67.236 104.404 64.4134 103.154 64.4134 101.614C64.4134 100.074 67.236 98.8236 70.716 98.8236C74.1961 98.8236 77.0186 100.074 77.0186 101.614C77.0186 103.154 74.1961 104.404 70.716 104.404Z" fill="#E8D575"/>
<path d="M124.324 89.8585V147.214C124.324 147.214 140.684 145.964 141.999 139.949V85.356C141.999 85.356 133.569 89.856 124.324 89.856" fill="#E8D575"/>
<path d="M123.029 70.396C114.124 70.396 106.904 73.591 106.904 77.5336C106.904 81.4761 114.124 84.6712 123.029 84.6712C131.935 84.6712 139.155 81.4761 139.155 77.5336C139.155 73.591 131.935 70.396 123.029 70.396ZM123.029 80.3236C119.549 80.3236 116.727 79.0736 116.727 77.5336C116.727 75.9936 119.549 74.7436 123.029 74.7436C126.51 74.7436 129.332 75.9936 129.332 77.5336C129.332 79.0736 126.512 80.3236 123.029 80.3236Z" fill="#E8D575"/>
<path d="M94.6042 102.437C94.4667 95.1539 84.9565 91.9414 79.1565 90.8489C74.3264 89.9389 69.3463 89.8589 64.4863 90.5514C60.3512 91.1414 56.1112 92.3189 52.5586 94.5839C50.1086 96.1464 47.7586 98.434 47.3161 101.436C46.8886 104.317 48.4186 106.934 50.5311 108.779C53.4411 111.319 57.2337 112.772 60.9462 113.654C65.7438 114.797 70.7839 115.054 75.6814 114.532C80.3815 114.029 85.254 112.859 89.2816 110.289C92.0441 108.527 94.5417 105.892 94.6067 102.437C94.6267 101.351 92.9391 101.351 92.9191 102.437C92.8666 105.154 90.8216 107.252 88.6816 108.669C85.594 110.714 81.934 111.827 78.314 112.472C70.4514 113.872 61.1137 113.332 54.0687 109.234C51.8486 107.942 49.4686 106.002 48.9936 103.322C48.5336 100.724 50.2236 98.464 52.1486 96.9314C54.9487 94.7039 58.5112 93.4789 61.9612 92.7164C66.2388 91.7689 70.6889 91.5664 75.0464 91.9689C79.369 92.3664 83.834 93.3939 87.6316 95.5639C90.1641 97.0114 92.8566 99.2815 92.9166 102.439C92.9366 103.524 94.6242 103.527 94.6042 102.439" fill="#231915"/>
<path d="M70.9186 95.4512C74.9061 95.4762 79.1887 95.9987 82.7462 97.9313C84.7687 99.0313 87.0713 101.144 85.3812 103.524C83.5437 106.114 79.6187 107.096 76.6936 107.634C72.3511 108.431 67.6985 108.336 63.4135 107.259C60.8684 106.619 55.9409 105.106 55.8384 101.791C55.8059 100.709 54.1184 100.704 54.1509 101.791C54.2559 105.169 57.7434 107.089 60.5259 108.131C65.2235 109.894 70.5786 110.171 75.5161 109.514C79.2437 109.019 83.8737 107.944 86.4263 104.914C88.4888 102.466 87.7063 99.5188 85.3362 97.6237C81.4312 94.5012 75.7461 93.7937 70.9186 93.7637C69.8336 93.7562 69.8311 95.4437 70.9186 95.4512Z" fill="#231915"/>
<path d="M47.231 102.436C47.231 105.189 47.221 107.939 47.231 110.691C47.2435 114.254 49.5636 116.914 52.4311 118.779C57.0612 121.789 62.8487 122.964 68.2838 123.279C74.2489 123.624 80.5014 122.909 86.029 120.547C89.9816 118.857 94.5141 115.782 94.6041 111.009H92.9166C92.9166 113.936 92.9666 116.869 92.9166 119.797C92.8341 124.662 87.099 127.384 83.164 128.679C76.3789 130.909 68.7188 131.109 61.7737 129.532C57.3037 128.517 50.4436 126.252 49.0936 121.172C48.6986 119.687 48.9211 117.944 48.9211 116.429V111.284C48.9211 110.199 47.2335 110.196 47.2335 111.284V116.062C47.2335 117.599 47.0985 119.212 47.301 120.742C48.0135 126.124 54.1786 129.057 58.7512 130.472C65.9238 132.692 73.9989 132.792 81.269 130.979C86.139 129.764 92.5741 127.209 94.2766 121.942C94.8141 120.279 94.6066 118.364 94.6066 116.644V111.006C94.6066 109.919 92.9391 109.919 92.9191 111.006C92.8466 114.844 89.0141 117.339 85.9015 118.769C80.869 121.084 75.0864 121.804 69.5938 121.644C64.3512 121.492 58.8112 120.512 54.2061 117.879C51.4936 116.327 48.9336 114.021 48.9236 110.689C48.9136 107.939 48.9236 105.186 48.9236 102.434C48.9236 101.349 47.236 101.346 47.236 102.434" fill="#231915"/>
<path d="M92.9166 128.696C92.8441 132.534 89.0115 135.029 85.899 136.459C80.8664 138.774 75.0839 139.494 69.5913 139.334C64.3487 139.184 58.8087 138.202 54.2036 135.569C51.4911 134.016 48.931 131.711 48.9185 128.379C48.9085 125.626 48.9185 122.876 48.9185 120.124C48.9185 119.039 47.231 119.036 47.231 120.124C47.231 122.876 47.221 125.626 47.231 128.379C47.2435 131.941 49.5635 134.601 52.4311 136.466C57.0611 139.477 62.8487 140.652 68.2838 140.967C74.2488 141.312 80.5014 140.597 86.029 138.234C89.9815 136.544 94.5116 133.469 94.6041 128.696C94.6241 127.611 92.9366 127.611 92.9166 128.696Z" fill="#231915"/>
<path d="M146.841 78.1758C146.704 70.8932 137.194 67.6806 131.394 66.5881C126.564 65.6781 121.586 65.5981 116.724 66.2906C112.589 66.8806 108.348 68.0581 104.796 70.3232C102.346 71.8882 99.9959 74.1732 99.5534 77.1758C99.1259 80.0558 100.656 82.6733 102.768 84.5183C105.678 87.0584 109.471 88.5109 113.184 89.3934C117.981 90.5359 123.021 90.7934 127.919 90.2709C132.619 89.7684 137.491 88.5984 141.519 86.0284C144.281 84.2658 146.779 81.6308 146.844 78.1758C146.864 77.0908 145.176 77.0908 145.156 78.1758C145.104 80.8933 143.059 82.9908 140.919 84.4083C137.831 86.4534 134.171 87.5659 130.551 88.2109C122.689 89.6109 113.351 89.0709 106.306 84.9734C104.086 83.6808 101.706 81.7408 101.231 79.0608C100.771 76.4632 102.461 74.2032 104.386 72.6707C107.186 70.4432 110.749 69.2182 114.199 68.4556C118.476 67.5081 122.926 67.3056 127.284 67.7081C131.606 68.1056 136.071 69.1332 139.869 71.3032C142.401 72.7507 145.094 75.0207 145.154 78.1783C145.174 79.2633 146.861 79.2658 146.841 78.1783" fill="#231915"/>
<path d="M145.154 86.7462C145.081 90.5837 141.249 93.0788 138.136 94.5088C133.101 96.8238 127.321 97.5438 121.829 97.3838C116.586 97.2338 111.046 96.2513 106.441 93.6188C103.726 92.0663 101.168 89.7612 101.156 86.4287C101.146 83.6762 101.156 80.9261 101.156 78.1736C101.156 77.0886 99.4683 77.0861 99.4683 78.1736C99.4683 80.9261 99.4583 83.6762 99.4683 86.4287C99.4808 89.9912 101.801 92.6513 104.668 94.5163C109.298 97.5263 115.086 98.7013 120.524 99.0163C126.489 99.3613 132.741 98.6463 138.269 96.2838C142.221 94.5938 146.751 91.5188 146.844 86.7462C146.864 85.6612 145.176 85.6612 145.156 86.7462" fill="#231915"/>
<path d="M145.154 95.5939C145.081 99.4314 141.249 101.926 138.136 103.356C133.101 105.671 127.321 106.391 121.829 106.231C116.586 106.081 111.046 105.099 106.441 102.466C103.726 100.914 101.168 98.6089 101.156 95.2763C101.146 92.5238 101.156 89.7738 101.156 87.0212C101.156 85.9362 99.4683 85.9337 99.4683 87.0212C99.4683 89.7738 99.4583 92.5238 99.4683 95.2763C99.4808 98.8389 101.801 101.499 104.668 103.364C109.298 106.374 115.086 107.549 120.524 107.864C126.489 108.209 132.741 107.494 138.269 105.131C142.221 103.441 146.751 100.366 146.844 95.5939C146.864 94.5088 145.176 94.5088 145.156 95.5939" fill="#231915"/>
<path d="M99.469 95.8685C99.469 98.621 99.459 101.371 99.469 104.124C99.4815 107.686 101.801 110.346 104.669 112.211C109.299 115.221 115.087 116.396 120.522 116.711C126.487 117.056 132.739 116.341 138.267 113.979C142.219 112.289 146.75 109.214 146.842 104.441H145.155C145.155 107.244 145.247 110.064 145.155 112.864C144.982 117.936 138.587 120.644 134.522 121.851C127.782 123.854 120.267 123.959 113.444 122.296C109.102 121.236 102.529 118.934 101.306 113.961C100.939 112.469 101.159 110.724 101.159 109.204V104.181C101.159 103.096 99.4715 103.094 99.4715 104.181V108.959C99.4715 110.464 99.3465 112.029 99.524 113.529C100.141 118.789 106.014 121.741 110.464 123.204C117.477 125.509 125.379 125.686 132.562 124.101C137.567 122.996 144.11 120.619 146.275 115.474C146.987 113.779 146.845 111.976 146.845 110.179V104.439C146.845 103.351 145.177 103.351 145.157 104.439C145.085 108.276 141.252 110.771 138.139 112.201C133.107 114.516 127.324 115.236 121.832 115.076C116.589 114.924 111.049 113.944 106.444 111.311C103.732 109.759 101.174 107.454 101.161 104.121C101.151 101.371 101.161 98.6185 101.161 95.866C101.161 94.781 99.474 94.7785 99.474 95.866" fill="#231915"/>
<path d="M145.154 121.062C145.081 124.899 141.249 127.394 138.136 128.824C133.101 131.139 127.321 131.859 121.829 131.699C116.586 131.549 111.046 130.567 106.441 127.934C103.726 126.382 101.168 124.077 101.156 120.744C101.146 117.992 101.156 115.242 101.156 112.489C101.156 111.404 99.4683 111.402 99.4683 112.489C99.4683 115.242 99.4583 117.992 99.4683 120.744C99.4808 124.307 101.801 126.967 104.668 128.832C109.298 131.842 115.086 133.017 120.524 133.332C126.489 133.677 132.741 132.962 138.269 130.599C142.221 128.909 146.751 125.834 146.844 121.062C146.864 119.977 145.176 119.977 145.156 121.062" fill="#231915"/>
<path d="M99.469 112.492C99.469 115.244 99.459 117.994 99.469 120.747C99.4815 124.309 101.801 126.969 104.669 128.834C109.299 131.844 115.087 133.019 120.522 133.334C126.487 133.679 132.739 132.964 138.267 130.602C142.219 128.912 146.75 125.837 146.842 121.064H145.155C145.155 123.867 145.247 126.687 145.155 129.487C144.982 134.559 138.587 137.267 134.522 138.474C127.782 140.477 120.267 140.582 113.444 138.919C109.102 137.859 102.529 135.557 101.306 130.584C100.939 129.092 101.159 127.347 101.159 125.827V120.804C101.159 119.719 99.4715 119.717 99.4715 120.804V125.582C99.4715 127.087 99.3465 128.652 99.524 130.152C100.141 135.412 106.014 138.362 110.464 139.827C117.477 142.132 125.379 142.309 132.562 140.724C137.567 139.619 144.11 137.242 146.275 132.097C146.987 130.402 146.845 128.599 146.845 126.802V121.062C146.845 119.974 145.177 119.974 145.157 121.062C145.085 124.899 141.252 127.394 138.139 128.824C133.107 131.139 127.324 131.859 121.832 131.699C116.589 131.547 111.049 130.567 106.444 127.934C103.732 126.382 101.174 124.077 101.161 120.744C101.151 117.994 101.161 115.242 101.161 112.489C101.161 111.404 99.474 111.402 99.474 112.489" fill="#231915"/>
<path d="M99.469 129.114V134.014C99.469 135.577 99.314 137.244 99.5665 138.797C100.454 144.232 106.862 147.109 111.522 148.464C118.847 150.592 127.082 150.617 134.427 148.567C139.129 147.254 145.655 144.444 146.707 139.014C147.037 137.314 146.842 135.449 146.842 133.732V128.047C146.842 126.962 145.155 126.959 145.155 128.047C145.155 131.177 145.18 134.307 145.155 137.437C145.117 142.114 140.094 144.822 136.254 146.212C129.444 148.679 121.644 148.972 114.587 147.487C111.562 146.852 108.552 145.867 105.907 144.239C104.004 143.069 102.069 141.427 101.391 139.214C100.931 137.709 101.156 135.924 101.156 134.377V129.109C101.156 128.024 99.469 128.022 99.469 129.109" fill="#231915"/>
<path d="M123.154 71.2408C127.141 71.2658 131.424 71.7883 134.982 73.7208C137.004 74.8208 139.307 76.9333 137.617 79.3134C135.779 81.9034 131.854 82.8859 128.929 83.4234C124.586 84.2209 119.934 84.1259 115.649 83.0484C113.104 82.4084 108.176 80.8959 108.074 77.5809C108.041 76.4983 106.354 76.4933 106.386 77.5809C106.491 80.9584 109.976 82.8784 112.761 83.9209C117.459 85.6834 122.814 85.961 127.751 85.3034C131.479 84.8084 136.109 83.7334 138.662 80.7034C140.724 78.2559 139.942 75.3083 137.572 73.4133C133.667 70.2908 127.981 69.5832 123.154 69.5532C122.069 69.5457 122.066 71.2333 123.154 71.2408Z" fill="#231915"/>
</svg>
