<svg width="200" height="201" viewBox="0 0 200 201" fill="none" xmlns="http://www.w3.org/2000/svg">
<path d="M46.586 90.9497L58.8361 112.812L56.9161 95.2097L65.6037 101.687L78.7589 106.502L87.1965 94.2722L91.3165 96.6347C91.3165 96.6347 93.009 96.9147 93.009 98.6148C93.009 100.315 87.319 112.487 87.319 112.487H71.7888L55.0986 127.743L58.0386 136.48L58.9636 139.055L34.5383 142.048C34.5383 142.048 28.0907 140.955 27.6707 134.895C27.2482 128.835 27.3307 120.24 27.3307 120.24C27.3307 120.24 31.9208 106.08 33.3183 104.685C34.7158 103.29 40.1934 97.3072 40.1934 97.3072L43.1484 93.5197C43.1484 93.5197 46.166 90.5346 46.581 90.9522L46.586 90.9497Z" fill="#D1D3D4"/>
<path d="M124.901 92.4973L120.201 95.6798C120.201 95.6798 120.139 105.22 124.341 112.855H128.599L150.184 134.653L145.644 137.75L149.069 142.043L152.892 140.835C152.892 140.835 168.124 137.638 169.414 129.563C169.414 129.563 169.489 110.882 165.284 103.625L162.797 99.5224L156.427 91.0673L154.594 89.1572L144.707 107.51L143.817 94.8948L141.727 97.4173C141.536 97.6473 141.401 97.9198 141.336 98.2123L140.939 100.005C140.939 100.005 138.431 103.49 138.431 105.905C138.431 108.32 138.256 114.515 138.256 114.515C138.256 114.515 132.256 108.805 131.839 107.51C131.421 106.215 124.901 92.4973 124.901 92.4973Z" fill="#D1D3D4"/>
<path d="M54.8387 64.2415C54.9662 64.5465 54.9887 64.9491 55.0212 65.2741C55.1837 66.9166 54.2462 68.9116 52.7587 69.8216C50.0987 71.4516 44.6236 71.2741 44.6211 71.2741C44.5336 71.2666 44.6361 69.9266 44.6436 69.8441C44.7611 68.7141 45.1011 67.6016 45.6886 66.6266C46.8436 64.7141 49.9612 62.964 52.2112 62.9915C53.1337 63.004 54.4412 63.289 54.8387 64.2415Z" fill="#E8D575"/>
<path d="M59.1945 66.7842C59.3695 68.6318 60.422 71.0718 64.0096 71.0718C64.2271 71.0718 64.4271 70.9643 64.4896 70.7568C64.6571 70.1918 64.8321 69.0318 63.8846 68.0818C62.9871 67.1842 61.0571 66.8792 59.822 66.2417C59.462 66.0542 59.157 66.3767 59.1945 66.7817V66.7842Z" fill="#E8D575"/>
<path d="M151.851 64.0392C150.836 63.2142 149.836 62.7892 148.891 62.6267C148.889 62.6267 148.884 62.6267 148.881 62.6242C146.789 62.1092 142.359 62.8917 142.176 65.1993C141.994 67.5068 145.821 70.1468 145.821 70.1468C144.436 67.6343 145.579 65.4093 145.704 64.8343C146.391 64.8318 146.901 65.4818 147.256 65.9943C148.591 67.9218 149.311 70.4568 151.149 71.9944C151.756 72.5019 152.466 72.8644 153.231 73.0719C153.686 73.1944 154.154 73.2619 154.621 73.2894C154.829 73.3019 156.109 73.4144 156.204 73.2419C156.204 73.2419 158.366 69.3393 151.854 64.0392H151.851Z" fill="#E8D575"/>
<path d="M62.8656 79.4493C63.6106 80.6118 63.9531 81.8743 63.9631 83.2193C63.9731 84.5619 63.6481 85.8819 62.9881 87.0419C61.6155 89.4594 58.9705 90.6519 56.193 90.4269C54.788 90.3144 53.2354 89.7119 52.1529 88.7594C51.8179 88.4644 51.3129 88.4294 50.9804 88.7594C50.6779 89.0619 50.6429 89.6344 50.9804 89.9319C53.4779 92.1295 57.2105 92.722 60.288 91.467C61.8631 90.8244 63.1831 89.7719 64.1256 88.3519C65.0156 87.0119 65.5006 85.4194 65.6006 83.8194C65.7156 82.0093 65.2756 80.1418 64.2956 78.6118C64.0556 78.2343 63.5606 78.0818 63.1631 78.3143C62.7881 78.5343 62.6231 79.0693 62.8656 79.4468V79.4493Z" fill="#231F20"/>
<path d="M58.1706 81.5169C58.3181 81.8869 58.4681 82.2594 58.6156 82.6294C58.6406 82.7369 58.6906 82.8319 58.7631 82.9119C58.8206 83.0019 58.8981 83.0744 58.9956 83.1244C59.0906 83.1844 59.1931 83.2169 59.3031 83.2219C59.4131 83.2469 59.5231 83.2419 59.6331 83.2069C59.8331 83.1419 60.0281 83.0169 60.1282 82.8269L60.2107 82.6294C60.2507 82.4819 60.2507 82.3369 60.2107 82.1894C60.0631 81.8194 59.9131 81.4469 59.7656 81.0769C59.7406 80.9694 59.6906 80.8744 59.6181 80.7944C59.5606 80.7044 59.4831 80.6319 59.3856 80.5819C59.2906 80.5219 59.1881 80.4894 59.0781 80.4844C58.9681 80.4594 58.8581 80.4644 58.7481 80.4994C58.5481 80.5644 58.3531 80.6894 58.2531 80.8794L58.1706 81.0769C58.1306 81.2244 58.1306 81.3694 58.1706 81.5169Z" fill="#231F20"/>
<path d="M59.9205 77.7369V78.6269C59.9155 78.7419 59.9406 78.8469 59.9931 78.9469C60.0256 79.0494 60.0831 79.1394 60.1656 79.2144C60.2406 79.2944 60.3306 79.3519 60.4331 79.3869C60.5306 79.4394 60.6381 79.4619 60.7531 79.4594L60.9731 79.4294C61.1131 79.3894 61.2356 79.3194 61.3381 79.2169C61.4881 79.0544 61.5806 78.8544 61.5806 78.6319V77.7419C61.5856 77.6269 61.5606 77.5219 61.5081 77.4219C61.4756 77.3194 61.4181 77.2294 61.3356 77.1544C61.2606 77.0744 61.1706 77.0169 61.0681 76.9819C60.9706 76.9294 60.8631 76.9069 60.7481 76.9094L60.5281 76.9394C60.3881 76.9794 60.2656 77.0494 60.1631 77.1519C60.013 77.3144 59.9205 77.5144 59.9205 77.7369Z" fill="#231F20"/>
<path d="M53.0234 77.7369C53.0234 78.2569 53.0234 78.7744 53.0234 79.2944C53.0234 79.5069 53.1159 79.7294 53.2659 79.8794C53.4159 80.0294 53.6459 80.1319 53.8509 80.1219C54.0559 80.1119 54.2885 80.0419 54.436 79.8794C54.5835 79.7169 54.6785 79.5169 54.6785 79.2944C54.6785 78.7744 54.6785 78.2569 54.6785 77.7369C54.6785 77.5244 54.586 77.3019 54.436 77.1519C54.286 77.0019 54.0559 76.8994 53.8509 76.9094C53.6459 76.9194 53.4134 76.9894 53.2659 77.1519C53.1184 77.3144 53.0234 77.5144 53.0234 77.7369Z" fill="#231F20"/>
<path d="M55.7092 67.6467C57.2642 71.2543 60.8742 73.7443 64.7568 74.0968C65.2043 74.1368 65.5843 73.6868 65.5843 73.2693C65.5843 72.7868 65.2043 72.4818 64.7568 72.4418C64.3668 72.4068 64.0343 72.3543 63.5793 72.2443C63.1493 72.1418 62.7268 72.0093 62.3168 71.8493C62.0268 71.7368 61.6243 71.5443 61.2718 71.3518C60.8967 71.1443 60.5367 70.9168 60.1917 70.6643C59.6042 70.2392 58.9467 69.6092 58.4317 68.9817C58.2317 68.7367 57.9767 68.3742 57.7692 68.0342C57.5317 67.6442 57.3242 67.2367 57.1417 66.8167C56.9642 66.4067 56.3617 66.3142 56.0092 66.5192C55.5842 66.7667 55.5342 67.2392 55.7117 67.6517L55.7092 67.6467Z" fill="#231F20"/>
<path d="M67.5919 71.5146C68.0195 69.8745 67.7045 68.052 66.6769 66.692C65.6369 65.317 64.0344 64.4895 62.3119 64.4195C61.8644 64.402 61.4844 64.8145 61.4844 65.247C61.4844 65.712 61.8644 66.057 62.3119 66.0745C62.8469 66.097 63.4794 66.257 63.9644 66.512C64.4919 66.787 64.9719 67.172 65.3019 67.602C66.0819 68.6195 66.2969 69.9045 65.9919 71.0721C65.8794 71.5046 66.1344 71.9721 66.5694 72.0921C66.9969 72.2096 67.4745 71.9471 67.5895 71.5146H67.5919Z" fill="#231F20"/>
<path d="M60.1046 62.0541C56.917 59.8341 52.577 59.2516 48.9294 60.6191C45.4794 61.9141 42.7268 64.7591 41.5468 68.2492C41.1643 69.3792 40.9168 70.6167 41.1843 71.7992C41.4368 72.9117 42.2393 73.8767 43.3419 74.2192C43.7694 74.3517 44.2444 74.0617 44.3619 73.6417C44.4844 73.1967 44.2119 72.7542 43.7844 72.6217C43.7519 72.6117 43.5694 72.5342 43.6544 72.5767C43.5769 72.5367 43.4994 72.4917 43.4294 72.4442C43.4919 72.4867 43.3244 72.3542 43.2919 72.3217C43.2644 72.2942 43.1169 72.1292 43.1619 72.1867C42.9093 71.8567 42.8118 71.6067 42.7518 71.1942C42.6293 70.3567 42.8818 69.4767 43.1469 68.6917C43.6144 67.3092 44.4469 65.9541 45.4619 64.8766C47.7019 62.4966 50.7969 61.3091 54.087 61.5891C55.9045 61.7441 57.7295 62.4091 59.2721 63.4841C59.6396 63.7391 60.1921 63.5516 60.4046 63.1866C60.6471 62.7741 60.4746 62.3091 60.1071 62.0541H60.1046Z" fill="#231F20"/>
<path d="M56.2319 68.8517C54.4669 71.7793 51.0143 73.4293 47.6068 73.0418C47.1618 72.9918 46.7793 73.4593 46.7793 73.8693C46.7793 74.3593 47.1618 74.6468 47.6068 74.6968C51.5569 75.1468 55.6219 73.0768 57.6644 69.6842C58.2169 68.7692 56.7844 67.9342 56.2344 68.8467L56.2319 68.8517Z" fill="#231F20"/>
<path d="M47.771 77.9117C47.3335 76.7067 46.261 75.8492 44.996 75.6417C43.7285 75.4317 42.3434 75.7467 41.4909 76.7692C40.5884 77.8492 40.3334 79.3292 40.7184 80.6743C41.1234 82.0968 42.2134 83.1768 43.6285 83.6018C45.2585 84.0943 47.0235 83.6718 48.341 82.6318C48.6935 82.3543 48.631 81.7493 48.341 81.4593C47.9935 81.1118 47.521 81.1818 47.1685 81.4593C47.301 81.3543 47.0985 81.5068 47.0885 81.5143C47.036 81.5518 46.981 81.5868 46.926 81.6193C46.806 81.6943 46.681 81.7618 46.5535 81.8243C46.506 81.8468 46.461 81.8693 46.4135 81.8893C46.5735 81.8218 46.336 81.9143 46.3235 81.9193C46.1785 81.9718 46.0285 82.0168 45.8785 82.0518C45.7535 82.0818 45.626 82.1068 45.4985 82.1268C45.6835 82.0993 45.431 82.1318 45.411 82.1318C45.3585 82.1368 45.3085 82.1393 45.256 82.1418C45.1135 82.1493 44.9735 82.1468 44.831 82.1418C44.766 82.1393 44.7035 82.1318 44.6385 82.1268C44.5385 82.1168 44.536 82.1168 44.631 82.1268C44.5935 82.1218 44.556 82.1143 44.5185 82.1068C44.256 82.0593 43.996 81.9893 43.7485 81.8868C43.891 81.9443 43.7385 81.8793 43.7035 81.8618C43.646 81.8343 43.591 81.8043 43.5335 81.7743C43.401 81.6993 43.2685 81.6168 43.1485 81.5243C43.281 81.6243 43.096 81.4743 43.0835 81.4618C43.0485 81.4293 43.0135 81.3993 42.981 81.3643C42.9309 81.3143 42.8834 81.2643 42.8359 81.2118C42.8359 81.2118 42.6934 81.0368 42.7659 81.1318C42.8384 81.2268 42.7059 81.0443 42.7059 81.0468C42.6659 80.9893 42.6284 80.9293 42.5934 80.8693C42.5209 80.7493 42.4584 80.6218 42.4009 80.4943C42.4659 80.6443 42.4159 80.5268 42.4059 80.4943C42.3834 80.4268 42.3584 80.3618 42.3384 80.2943C42.3034 80.1818 42.2759 80.0667 42.2509 79.9517C42.2359 79.8817 42.2234 79.8142 42.2134 79.7442C42.2184 79.7767 42.2284 79.9142 42.2184 79.7542C42.2084 79.6142 42.2009 79.4742 42.2034 79.3317C42.2034 79.2617 42.2084 79.1917 42.2134 79.1217C42.2134 79.1192 42.2409 78.8942 42.2209 79.0242C42.2009 79.1542 42.2409 78.9317 42.2409 78.9292C42.2534 78.8617 42.2709 78.7942 42.2884 78.7267C42.3184 78.6142 42.3559 78.5067 42.3934 78.3992C42.4634 78.2042 42.3334 78.4717 42.4059 78.3767C42.4509 78.3167 42.4784 78.2292 42.5184 78.1642C42.5484 78.1142 42.5809 78.0667 42.6084 78.0167C42.6309 77.9792 42.7234 77.8542 42.6209 77.9892C42.6934 77.8967 42.7709 77.8117 42.8534 77.7292C42.901 77.6842 42.951 77.6417 42.9985 77.5967C42.866 77.7192 42.961 77.6217 43.006 77.5942C43.111 77.5267 43.2185 77.4642 43.3285 77.4042C43.3735 77.3792 43.5085 77.3317 43.3285 77.3992C43.386 77.3767 43.446 77.3542 43.5035 77.3367C43.6035 77.3042 43.7035 77.2767 43.806 77.2567C43.856 77.2467 43.911 77.2417 43.961 77.2292C44.0835 77.1992 43.756 77.2392 43.961 77.2317C44.0885 77.2267 44.211 77.2167 44.3385 77.2217C44.401 77.2217 44.4635 77.2292 44.5285 77.2317C44.7385 77.2417 44.351 77.1942 44.5585 77.2317C44.6835 77.2542 44.806 77.2792 44.926 77.3142C44.986 77.3317 45.046 77.3492 45.106 77.3717C45.141 77.3842 45.331 77.4692 45.141 77.3792C45.2535 77.4317 45.3635 77.4867 45.471 77.5492C45.5235 77.5817 45.5735 77.6167 45.626 77.6492C45.781 77.7442 45.5285 77.5567 45.6535 77.6667C45.746 77.7467 45.836 77.8292 45.9185 77.9192C45.946 77.9517 46.061 78.1117 45.9435 77.9417C45.9835 78.0017 46.026 78.0592 46.061 78.1192C46.0885 78.1642 46.1135 78.2092 46.136 78.2542C46.156 78.2917 46.1735 78.3292 46.1885 78.3667C46.146 78.2642 46.141 78.2567 46.1735 78.3442C46.326 78.7642 46.736 79.0492 47.1935 78.9217C47.5985 78.8092 47.926 78.3242 47.771 77.9017V77.9117Z" fill="#231F20"/>
<path d="M53.7217 91.3095C53.4242 92.347 53.1292 93.387 52.8317 94.4245C52.7117 94.842 52.9767 95.3445 53.4092 95.4445C53.8417 95.5445 54.3017 95.312 54.4292 94.867C54.7267 93.8295 55.0217 92.7895 55.3192 91.752C55.4392 91.3345 55.1742 90.832 54.7417 90.732C54.3092 90.632 53.8492 90.8645 53.7217 91.3095Z" fill="#231F20"/>
<path d="M45.5842 90.8298C48.1867 95.6849 50.7867 100.54 53.3893 105.395C54.1268 106.77 54.8618 108.143 55.5993 109.518C55.8118 109.913 56.3568 110.035 56.7318 109.815C57.1293 109.583 57.2418 109.078 57.0293 108.683C54.4268 103.827 51.8267 98.9724 49.2242 94.1173C48.4867 92.7423 47.7517 91.3698 47.0142 89.9948C46.8017 89.5998 46.2567 89.4773 45.8817 89.6973C45.4842 89.9298 45.3717 90.4348 45.5842 90.8298Z" fill="#231F20"/>
<path d="M44.2242 91.7397C43.0092 92.9222 41.5592 94.6948 42.2067 96.5173C42.7892 98.1573 44.4817 98.7198 46.0443 99.0173C46.1168 98.4748 46.1918 97.9323 46.2643 97.3898C45.0867 97.4423 44.2292 98.2723 43.8517 99.3473C43.4617 100.455 43.7567 101.65 44.3867 102.607C45.0767 103.657 46.0543 104.49 46.9543 105.347C47.9793 106.322 49.0018 107.3 50.0268 108.275C51.2018 109.395 52.3743 110.512 53.5494 111.632C54.3219 112.367 55.4944 111.197 54.7219 110.46C52.8693 108.695 51.0193 106.93 49.1668 105.165C48.2893 104.33 47.3843 103.517 46.5443 102.645C46.1943 102.28 45.9093 101.95 45.6642 101.52C45.5542 101.325 45.4868 101.185 45.4293 101.005C45.3917 100.885 45.3617 100.765 45.3367 100.642C45.3667 100.785 45.3292 100.53 45.3292 100.47C45.3292 100.417 45.3292 100.362 45.3317 100.31C45.3317 100.29 45.3567 100.082 45.3417 100.182C45.3267 100.272 45.3517 100.142 45.3542 100.135C45.3717 100.07 45.3842 100.005 45.4017 99.9398C45.4167 99.8898 45.4342 99.8398 45.4517 99.7873C45.4792 99.7048 45.4067 99.8598 45.4742 99.7298C45.5217 99.6373 45.5768 99.5498 45.6268 99.4573C45.6993 99.3273 45.6593 99.4048 45.6343 99.4398C45.6743 99.3898 45.7168 99.3448 45.7618 99.2998C45.7968 99.2648 45.8343 99.2298 45.8718 99.1973C45.9593 99.1198 45.7268 99.2698 45.9118 99.1723C45.9693 99.1423 46.1843 99.0548 46.0443 99.0973C46.0918 99.0823 46.1393 99.0723 46.1868 99.0573C46.3543 99.0073 46.0743 99.0573 46.2693 99.0498C46.6793 99.0323 47.0343 98.7498 47.0843 98.3323C47.1293 97.9523 46.9018 97.5023 46.4918 97.4223C46.1768 97.3623 45.8643 97.2973 45.5543 97.2148C45.4117 97.1773 45.2717 97.1348 45.1317 97.0873C45.0617 97.0648 44.9942 97.0398 44.9267 97.0148C44.8917 97.0023 44.7467 96.9373 44.8467 96.9823C44.7067 96.9173 44.5692 96.8473 44.4367 96.7648C44.3767 96.7298 44.3192 96.6898 44.2642 96.6523C44.3742 96.7298 44.1817 96.5823 44.1767 96.5773C44.1267 96.5323 44.0792 96.4823 44.0342 96.4348C44.0042 96.4023 43.9217 96.2898 43.9842 96.3823C43.9367 96.3148 43.8942 96.2448 43.8542 96.1723C43.7992 96.0723 43.8367 96.1548 43.8117 96.0823C43.6167 95.5623 43.7567 95.0748 44.0642 94.5397C44.4167 93.9247 44.8942 93.4122 45.4042 92.9172C46.1693 92.1722 44.9967 90.9997 44.2317 91.7447L44.2242 91.7397Z" fill="#231F20"/>
<path d="M55.7803 95.1723C56.5778 96.0773 57.3753 96.9848 58.1728 97.8898C58.4603 98.2173 59.0553 98.2048 59.3453 97.8898C59.6653 97.5423 59.6528 97.0673 59.3453 96.7173C58.5478 95.8123 57.7503 94.9048 56.9528 93.9998C56.6653 93.6722 56.0703 93.6847 55.7803 93.9998C55.4603 94.3473 55.4728 94.8223 55.7803 95.1723Z" fill="#231F20"/>
<path d="M54.1629 96.5596C54.6429 97.6696 55.1204 98.7797 55.6004 99.8897C55.7654 99.4847 55.9304 99.0772 56.0954 98.6722C55.3479 98.9172 54.6004 99.1622 53.8529 99.4072C53.4429 99.5422 53.1329 99.9872 53.2754 100.427C53.4079 100.837 53.8529 101.15 54.2954 101.005C55.0429 100.76 55.7904 100.515 56.538 100.27C57.093 100.087 57.2505 99.5547 57.033 99.0522C56.553 97.9422 56.0754 96.8321 55.5954 95.7221C55.4229 95.3221 54.8054 95.2021 54.4629 95.4246C54.0479 95.6921 53.9804 96.1296 54.1654 96.5571L54.1629 96.5596Z" fill="#231F20"/>
<path d="M55.5311 101.547C55.3761 103.4 55.2236 105.255 55.0686 107.107C55.0311 107.555 55.4761 107.935 55.8961 107.935C56.3761 107.935 56.6886 107.555 56.7236 107.107C56.8786 105.255 57.0311 103.4 57.1861 101.547C57.2237 101.1 56.7786 100.72 56.3586 100.72C55.8786 100.72 55.5661 101.1 55.5311 101.547Z" fill="#231F20"/>
<path d="M58.6464 101.545C58.4339 105.475 58.2214 109.407 58.0089 113.337C57.9839 113.785 58.4064 114.165 58.8364 114.165C59.3064 114.165 59.6414 113.785 59.6639 113.337C59.8764 109.407 60.0889 105.475 60.3014 101.545C60.3264 101.097 59.9039 100.717 59.4739 100.717C59.0039 100.717 58.6689 101.097 58.6464 101.545Z" fill="#231F20"/>
<path d="M62.436 107.985C62.7185 110.367 62.9185 112.76 63.0335 115.157C63.056 115.605 63.3985 115.985 63.861 115.985C64.2935 115.985 64.711 115.605 64.6885 115.157C64.5735 112.76 64.376 110.367 64.091 107.985C64.0385 107.54 63.7485 107.157 63.2635 107.157C62.856 107.157 62.381 107.537 62.436 107.985Z" fill="#231F20"/>
<path d="M43.3845 112.067C40.917 108.637 38.0519 105.507 34.8269 102.775C34.4869 102.485 33.9894 102.44 33.6544 102.775C33.3569 103.072 33.3119 103.655 33.6544 103.947C36.7669 106.587 39.5669 109.592 41.952 112.905C42.212 113.267 42.6745 113.442 43.0845 113.202C43.442 112.992 43.6445 112.435 43.382 112.07L43.3845 112.067Z" fill="#231F20"/>
<path d="M40.9952 95.1395C39.5352 96.8021 38.0777 98.4621 36.6176 100.125C36.3326 100.45 36.2726 100.98 36.6176 101.297C36.9301 101.585 37.4852 101.645 37.7902 101.297C39.2502 99.6346 40.7077 97.9746 42.1677 96.3121C42.4527 95.987 42.5127 95.457 42.1677 95.1395C41.8552 94.852 41.3002 94.792 40.9952 95.1395Z" fill="#231F20"/>
<path d="M31.2984 106.655C30.4759 109.04 29.6034 111.402 28.7033 113.757C28.1058 115.32 27.4883 116.88 26.9783 118.475C26.5508 119.813 26.2408 121.173 26.0808 122.568C25.9008 124.115 25.9258 125.68 26.0208 127.233C26.1883 129.958 26.5508 132.673 26.9133 135.38C26.9733 135.823 27.2508 136.208 27.7408 136.208C28.1433 136.208 28.6283 135.825 28.5683 135.38C28.2383 132.905 27.9133 130.425 27.7258 127.935C27.6058 126.325 27.5433 124.705 27.6833 123.095C27.6958 122.938 27.7133 122.78 27.7308 122.62C27.7408 122.533 27.7533 122.448 27.7608 122.363C27.7758 122.22 27.7533 122.415 27.7508 122.43C27.7583 122.37 27.7683 122.31 27.7758 122.253C27.8233 121.925 27.8808 121.6 27.9458 121.278C28.0783 120.63 28.2458 119.99 28.4383 119.358C28.9008 117.825 29.4859 116.332 30.0559 114.837C31.0359 112.27 31.9984 109.697 32.8934 107.097C33.0384 106.675 32.7259 106.192 32.3159 106.077C31.8609 105.952 31.4434 106.232 31.2959 106.655H31.2984Z" fill="#231F20"/>
<path d="M137.251 77.612C135.499 80.2746 135.244 83.8596 136.839 86.6571C138.456 89.4947 141.784 90.9747 144.986 90.6872C146.836 90.5197 148.569 89.8397 149.982 88.6272C150.322 88.3347 150.282 87.7546 149.982 87.4546C149.644 87.1171 149.152 87.1621 148.809 87.4546C148.551 87.6771 148.382 87.8021 148.054 88.0046C147.754 88.1897 147.444 88.3547 147.121 88.4947C147.251 88.4372 146.986 88.5497 146.994 88.5447C146.911 88.5772 146.829 88.6072 146.746 88.6347C146.609 88.6822 146.469 88.7272 146.326 88.7672C145.974 88.8697 145.614 88.9472 145.249 88.9997C145.084 89.0247 145.444 88.9822 145.161 89.0097C145.074 89.0172 144.986 89.0272 144.896 89.0347C144.719 89.0497 144.544 89.0572 144.366 89.0597C144.011 89.0672 143.659 89.0497 143.306 89.0122C142.794 88.9572 142.006 88.7547 141.389 88.5222C141.239 88.4646 140.879 88.2922 140.634 88.1547C140.481 88.0697 140.331 87.9771 140.184 87.8796C140.134 87.8471 140.086 87.8146 140.039 87.7796C140.011 87.7596 139.784 87.5921 139.854 87.6471C139.596 87.4446 139.354 87.2221 139.129 86.9846C138.839 86.6796 138.709 86.5146 138.496 86.1896C138.109 85.5996 137.899 85.1396 137.714 84.5171C137.499 83.7946 137.434 83.3296 137.426 82.6146C137.411 81.1321 137.839 79.727 138.684 78.447C138.929 78.072 138.759 77.5295 138.386 77.3145C137.981 77.077 137.499 77.237 137.254 77.612H137.251Z" fill="#231F20"/>
<path d="M141.38 79.7744C141.23 80.1394 141.077 80.5044 140.927 80.8694C140.892 80.9794 140.887 81.0894 140.912 81.1994C140.917 81.3094 140.95 81.4119 141.01 81.5069C141.062 81.6044 141.132 81.6819 141.222 81.7394C141.302 81.8119 141.397 81.8619 141.505 81.8869C141.717 81.9344 141.955 81.9244 142.142 81.8044L142.31 81.6744C142.412 81.5719 142.482 81.4494 142.522 81.3094C142.672 80.9444 142.825 80.5794 142.975 80.2144C143.01 80.1044 143.015 79.9944 142.99 79.8844C142.985 79.7744 142.952 79.6719 142.892 79.5769C142.84 79.4794 142.77 79.4019 142.68 79.3444C142.6 79.2719 142.505 79.2219 142.397 79.1969C142.185 79.1494 141.947 79.1594 141.76 79.2794L141.592 79.4094C141.49 79.5119 141.42 79.6344 141.38 79.7744Z" fill="#231F20"/>
<path d="M139.633 76.4546C139.628 76.9671 139.62 77.4771 139.615 77.9897C139.613 78.1997 139.71 78.4272 139.858 78.5747C140.005 78.7222 140.238 78.8272 140.443 78.8172C140.648 78.8072 140.88 78.7372 141.028 78.5747C141.175 78.4122 141.268 78.2147 141.27 77.9897C141.275 77.4771 141.283 76.9671 141.288 76.4546C141.29 76.2446 141.193 76.0171 141.045 75.8696C140.898 75.7221 140.665 75.6171 140.46 75.6271C140.255 75.6371 140.023 75.7071 139.875 75.8696C139.725 76.0321 139.635 76.2296 139.633 76.4546Z" fill="#231F20"/>
<path d="M146.449 76.5371C146.444 77.0496 146.437 77.5646 146.432 78.0771C146.429 78.2871 146.527 78.5147 146.674 78.6622C146.822 78.8097 147.054 78.9147 147.259 78.9047C147.464 78.8947 147.697 78.8247 147.844 78.6622C147.992 78.4997 148.084 78.3021 148.087 78.0771C148.092 77.5646 148.099 77.0496 148.104 76.5371C148.107 76.3271 148.009 76.0996 147.862 75.9521C147.719 75.8096 147.482 75.6996 147.277 75.7096C147.072 75.7196 146.839 75.7896 146.692 75.9521C146.544 76.1146 146.452 76.3121 146.449 76.5371Z" fill="#231F20"/>
<path d="M136.584 73.5018C135.816 72.4443 135.564 71.1643 135.934 69.9468C136.271 68.8317 137.106 67.9467 138.224 67.4542C138.634 67.2742 138.729 66.6742 138.521 66.3217C138.274 65.8992 137.799 65.8442 137.389 66.0242C135.931 66.6667 134.796 67.9867 134.336 69.5067C133.846 71.1193 134.164 72.9768 135.154 74.3393C135.416 74.7018 135.874 74.8793 136.286 74.6368C136.644 74.4268 136.849 73.8668 136.584 73.5043V73.5018Z" fill="#231F20"/>
<path d="M154.874 77.2317C154.949 77.0342 154.787 77.3792 154.889 77.1992C154.914 77.1542 154.937 77.1067 154.962 77.0642C154.987 77.0217 155.017 76.9792 155.044 76.9342C155.147 76.7617 154.927 77.0542 155.062 76.9067C155.129 76.8317 155.197 76.7567 155.272 76.6867C155.302 76.6592 155.334 76.6342 155.364 76.6067C155.434 76.5492 155.427 76.5542 155.342 76.6242C155.374 76.5992 155.409 76.5767 155.442 76.5542C155.527 76.4967 155.617 76.4467 155.707 76.3992C155.744 76.3792 155.782 76.3642 155.819 76.3442C156.004 76.2492 155.654 76.3942 155.852 76.3317C155.952 76.2992 156.049 76.2642 156.152 76.2367C156.202 76.2242 156.254 76.2117 156.304 76.2017C156.352 76.1917 156.589 76.1592 156.364 76.1842C156.574 76.1592 156.784 76.1517 156.994 76.1667C157.039 76.1692 157.244 76.2042 157.024 76.1667C157.067 76.1742 157.107 76.1792 157.147 76.1892C157.269 76.2142 157.392 76.2442 157.509 76.2842C157.547 76.2967 157.742 76.3767 157.544 76.2892C157.582 76.3067 157.619 76.3242 157.657 76.3417C157.759 76.3917 157.854 76.4542 157.954 76.5142C157.997 76.5392 158.104 76.6342 157.964 76.5142C158.012 76.5542 158.062 76.5967 158.107 76.6392C158.142 76.6717 158.174 76.7042 158.207 76.7392C158.224 76.7567 158.382 76.9467 158.322 76.8667C158.247 76.7692 158.379 76.9517 158.379 76.9517C158.417 77.0092 158.452 77.0692 158.487 77.1292C158.517 77.1842 158.642 77.4767 158.579 77.3042C158.619 77.4117 158.657 77.5217 158.687 77.6317C158.702 77.6867 158.714 77.7442 158.727 77.7992C158.737 77.8417 158.772 78.0917 158.749 77.8892C158.777 78.1217 158.782 78.3567 158.764 78.5892C158.764 78.6217 158.729 78.8517 158.764 78.6492C158.757 78.6967 158.749 78.7417 158.739 78.7892C158.712 78.9292 158.679 79.0642 158.637 79.1992C158.617 79.2667 158.589 79.3317 158.567 79.3992C158.517 79.5467 158.557 79.4267 158.569 79.3992C158.522 79.5067 158.469 79.6118 158.409 79.7143C158.344 79.8268 158.274 79.9343 158.199 80.0368C158.124 80.1393 158.329 79.9018 158.177 80.0618C158.119 80.1218 158.067 80.1843 158.009 80.2418C157.967 80.2843 157.924 80.3243 157.879 80.3618C157.864 80.3743 157.677 80.5168 157.809 80.4218C157.704 80.4968 157.599 80.5668 157.487 80.6293C157.442 80.6543 157.397 80.6793 157.352 80.7018C157.337 80.7093 157.109 80.8143 157.272 80.7443C157.132 80.8043 156.984 80.8518 156.837 80.8918C156.689 80.9318 156.539 80.9643 156.387 80.9868C156.542 80.9643 156.409 80.9843 156.377 80.9868C156.274 80.9918 156.172 81.0018 156.069 81.0043C155.914 81.0068 155.759 81.0043 155.604 80.9893C155.552 80.9843 155.502 80.9793 155.449 80.9743C155.629 80.9968 155.317 80.9468 155.287 80.9393C155.134 80.9068 154.984 80.8668 154.837 80.8193C154.787 80.8043 154.739 80.7868 154.689 80.7693C154.642 80.7518 154.592 80.7318 154.544 80.7143C154.612 80.7418 154.617 80.7443 154.564 80.7218C154.424 80.6568 154.287 80.5843 154.152 80.5043C154.097 80.4718 154.042 80.4368 153.989 80.3993C153.947 80.3693 153.904 80.3418 153.862 80.3093C153.927 80.3618 153.922 80.3568 153.847 80.2968C153.499 80.0168 153.014 79.9568 152.674 80.2968C152.384 80.5868 152.324 81.1868 152.674 81.4693C153.864 82.4318 155.352 82.8243 156.864 82.5818C158.234 82.3618 159.467 81.4543 160.024 80.1768C160.572 78.9217 160.589 77.4042 159.864 76.2092C159.182 75.0842 157.924 74.4542 156.617 74.5142C155.142 74.5817 153.809 75.3992 153.279 76.8042C153.127 77.2117 153.449 77.7292 153.857 77.8242C154.329 77.9317 154.712 77.6817 154.877 77.2467L154.874 77.2317Z" fill="#231F20"/>
<path d="M145.654 90.3845C145.934 91.4146 146.217 92.4446 146.497 93.4746C146.612 93.8921 147.092 94.1896 147.517 94.0521C147.942 93.9146 148.217 93.4821 148.094 93.0321C147.814 92.0021 147.532 90.972 147.252 89.942C147.137 89.5245 146.657 89.227 146.232 89.3645C145.804 89.502 145.532 89.9345 145.654 90.3845Z" fill="#231F20"/>
<path d="M153.88 88.7395C151.247 93.5096 148.617 98.2796 145.985 103.05C145.242 104.397 144.497 105.745 143.755 107.092C143.24 108.027 144.67 108.865 145.185 107.93C147.817 103.16 150.447 98.3896 153.08 93.6196C153.822 92.272 154.567 90.9245 155.31 89.577C155.825 88.642 154.395 87.8045 153.88 88.7395Z" fill="#231F20"/>
<path d="M155.46 91.6544C155.948 92.1419 156.398 92.6344 156.738 93.2294C156.905 93.5244 157.003 93.7469 157.068 94.1019C157.048 93.9994 157.075 94.1644 157.075 94.1994C157.08 94.2744 157.078 94.352 157.075 94.427C157.073 94.502 157.048 94.6269 157.005 94.742C156.98 94.8095 156.89 94.9645 156.83 95.0545C156.785 95.122 156.883 95.0095 156.785 95.107C156.728 95.162 156.67 95.2195 156.615 95.277C156.518 95.3745 156.628 95.277 156.563 95.322C156.508 95.362 156.45 95.3995 156.393 95.4345C156.263 95.5145 156.128 95.5845 155.988 95.647C155.935 95.6695 155.935 95.6695 155.988 95.647L155.908 95.677C155.825 95.7045 155.745 95.7345 155.663 95.762C155.525 95.807 155.385 95.847 155.245 95.882C154.938 95.962 154.628 96.022 154.318 96.077C153.918 96.1495 153.668 96.6145 153.725 96.987C153.788 97.407 154.118 97.682 154.54 97.7045C154.708 97.7145 154.58 97.7045 154.545 97.6995C154.593 97.7095 154.64 97.7245 154.688 97.7345C154.698 97.7345 154.813 97.777 154.725 97.742C154.63 97.7045 154.77 97.7645 154.79 97.777C154.833 97.802 155.005 97.932 154.893 97.8345C154.93 97.867 154.965 97.8995 155 97.9345C155.013 97.947 155.145 98.0945 155.083 98.0195C155.048 97.9795 155.163 98.1395 155.19 98.1845C155.218 98.2295 155.328 98.462 155.278 98.3345C155.313 98.4195 155.34 98.507 155.365 98.597C155.375 98.6345 155.385 98.6745 155.395 98.712C155.395 98.7095 155.433 98.932 155.42 98.8345C155.413 98.7845 155.43 99.027 155.428 99.0795C155.428 99.127 155.405 99.367 155.428 99.2095C155.398 99.402 155.308 99.692 155.258 99.8045C155.068 100.24 154.8 100.59 154.503 100.92C153.72 101.787 152.813 102.55 151.96 103.345C151.045 104.195 150.13 105.045 149.218 105.897C148.15 106.89 147.085 107.882 146.017 108.875C145.69 109.18 145.71 109.737 146.017 110.047C146.345 110.375 146.86 110.352 147.19 110.047C149.263 108.12 151.335 106.192 153.408 104.265C155.063 102.725 157.55 100.897 157 98.312C156.745 97.1045 155.798 96.1195 154.538 96.047C154.61 96.5895 154.685 97.132 154.758 97.6745C156.305 97.3995 157.995 96.857 158.58 95.2345C159.23 93.4319 157.823 91.6719 156.63 90.4819C155.875 89.7269 154.703 90.8994 155.458 91.6544H155.46Z" fill="#231F20"/>
<path d="M144.004 92.577C143.204 93.462 142.407 94.3495 141.607 95.2345C141.317 95.557 141.264 96.092 141.607 96.407C141.924 96.697 142.469 96.752 142.779 96.407C143.579 95.522 144.377 94.6345 145.177 93.7495C145.467 93.427 145.519 92.892 145.177 92.577C144.859 92.2869 144.314 92.2319 144.004 92.577Z" fill="#231F20"/>
<path d="M143.686 100.045C143.816 101.88 143.946 103.712 144.076 105.547C144.106 105.98 144.436 106.397 144.903 106.375C145.326 106.355 145.766 106.01 145.731 105.547C145.601 103.712 145.471 101.88 145.341 100.045C145.311 99.6122 144.981 99.1947 144.513 99.2172C144.091 99.2372 143.651 99.5822 143.686 100.045Z" fill="#231F20"/>
<path d="M140.608 100.005C140.771 103.892 140.933 107.782 141.096 111.67C141.113 112.117 141.463 112.497 141.923 112.497C142.358 112.497 142.771 112.117 142.751 111.67C142.588 107.782 142.426 103.892 142.263 100.005C142.246 99.5573 141.896 99.1772 141.436 99.1772C141.001 99.1772 140.588 99.5573 140.608 100.005Z" fill="#231F20"/>
<path d="M137.78 105.027C137.172 109.705 137.487 114.43 137.767 119.12C137.795 119.567 138.13 119.947 138.595 119.947C139.022 119.947 139.45 119.567 139.422 119.12C139.142 114.43 138.827 109.707 139.435 105.027C139.492 104.582 139.012 104.2 138.607 104.2C138.112 104.2 137.837 104.582 137.78 105.027Z" fill="#231F20"/>
<path d="M145.842 124.865C145.662 121.405 145.242 117.922 144.14 114.625C143.997 114.2 143.57 113.922 143.12 114.047C142.705 114.162 142.397 114.64 142.542 115.067C143.602 118.232 144.015 121.545 144.187 124.865C144.21 125.312 144.552 125.692 145.015 125.692C145.445 125.692 145.867 125.312 145.842 124.865Z" fill="#231F20"/>
<path d="M155.933 109.082C158.158 106.067 160.768 103.34 163.656 100.952C164.001 100.667 163.951 100.075 163.656 99.7798C163.313 99.4372 162.831 99.4947 162.483 99.7798C159.483 102.262 156.816 105.112 154.503 108.245C154.238 108.605 154.443 109.17 154.801 109.377C155.221 109.625 155.668 109.442 155.933 109.08V109.082Z" fill="#231F20"/>
<path d="M157.945 95.7021C159.368 97.3621 160.79 99.0221 162.213 100.685C162.495 101.015 163.098 100.997 163.385 100.685C163.708 100.332 163.688 99.8646 163.385 99.5121C161.963 97.8521 160.54 96.1921 159.118 94.5296C158.835 94.1996 158.233 94.2171 157.945 94.5296C157.623 94.8821 157.643 95.3496 157.945 95.7021Z" fill="#231F20"/>
<path d="M155.937 112.377C156.687 117.512 156.565 122.742 157.627 127.837C157.72 128.275 158.235 128.53 158.647 128.415C159.102 128.29 159.317 127.835 159.225 127.395C158.162 122.305 158.285 117.067 157.535 111.935C157.47 111.492 156.91 111.247 156.515 111.357C156.04 111.487 155.872 111.932 155.937 112.377Z" fill="#231F20"/>
<path d="M164.202 103.845C166.087 110.422 167.53 117.14 168.202 123.955C168.395 125.9 168.525 127.847 168.595 129.8C168.61 130.247 168.965 130.627 169.422 130.627C169.88 130.627 170.267 130.247 170.25 129.8C170 122.822 168.942 115.89 167.307 109.105C166.847 107.192 166.34 105.292 165.8 103.402C165.507 102.38 163.907 102.815 164.202 103.842V103.845Z" fill="#231F20"/>
<path d="M138.491 76.3517C138.923 76.6667 139.358 76.9817 139.791 77.2967C139.886 77.3567 139.988 77.3893 140.098 77.3943C140.208 77.4193 140.318 77.4143 140.428 77.3793C140.621 77.3268 140.828 77.1767 140.923 76.9992C141.026 76.8067 141.076 76.5742 141.006 76.3617L140.923 76.1642C140.851 76.0392 140.751 75.9417 140.626 75.8667C140.193 75.5517 139.758 75.2367 139.326 74.9217C139.231 74.8617 139.128 74.8292 139.018 74.8242C138.908 74.7992 138.798 74.8042 138.688 74.8392C138.496 74.8917 138.288 75.0417 138.193 75.2192C138.091 75.4117 138.041 75.6442 138.111 75.8567L138.193 76.0542C138.266 76.1792 138.366 76.2767 138.491 76.3517Z" fill="#231F20"/>
<path d="M145.758 76.3718C146.068 76.5843 146.376 76.7968 146.686 77.0093C146.781 77.0693 146.883 77.1018 146.993 77.1068C147.103 77.1318 147.213 77.1268 147.323 77.0918C147.431 77.0668 147.526 77.0168 147.606 76.9443C147.696 76.8868 147.768 76.8093 147.818 76.7118C147.921 76.5193 147.971 76.2868 147.901 76.0743L147.818 75.8768C147.746 75.7518 147.646 75.6542 147.521 75.5792C147.211 75.3667 146.903 75.1542 146.593 74.9417C146.498 74.8817 146.396 74.8492 146.286 74.8442C146.176 74.8192 146.066 74.8242 145.956 74.8592C145.848 74.8842 145.753 74.9342 145.673 75.0067C145.583 75.0642 145.511 75.1417 145.461 75.2392C145.358 75.4318 145.308 75.6643 145.378 75.8768L145.461 76.0743C145.533 76.1993 145.633 76.2968 145.758 76.3718Z" fill="#231F20"/>
<path d="M138.583 68.2995C141.346 72.227 145.656 74.9971 150.381 75.8746C151.713 76.1221 153.068 76.2321 154.423 76.1771C154.871 76.1596 155.251 75.8096 155.251 75.3496C155.251 74.9146 154.871 74.5021 154.423 74.5221C150.071 74.6996 145.703 73.1046 142.461 70.1995C141.538 69.372 140.696 68.437 140.013 67.467C139.755 67.102 139.288 66.9295 138.88 67.1695C138.518 67.382 138.325 67.9345 138.583 68.302V68.2995Z" fill="#231F20"/>
<path d="M152.271 74.2719C151.868 74.0769 151.483 73.8469 151.12 73.5843C151.103 73.5718 150.978 73.4969 150.973 73.4744C151.053 73.5369 151.068 73.5469 151.021 73.5094C150.996 73.4894 150.973 73.4718 150.948 73.4518C150.868 73.3868 150.79 73.3219 150.715 73.2544C150.54 73.0993 150.373 72.9368 150.21 72.7668C150.048 72.5968 149.915 72.4318 149.77 72.2618C149.863 72.3868 149.705 72.1843 149.77 72.2618C149.733 72.2118 149.698 72.1643 149.663 72.1143C149.598 72.0243 149.535 71.9318 149.473 71.8368C149.223 71.4543 149.01 71.0493 148.83 70.6268C148.755 70.4493 148.51 70.2943 148.335 70.2468C148.138 70.1918 147.873 70.2168 147.698 70.3293C147.28 70.5993 147.22 71.0343 147.4 71.4618C148.173 73.2868 149.653 74.8319 151.431 75.6994C151.821 75.8894 152.346 75.8169 152.563 75.4019C152.761 75.0294 152.681 74.4719 152.266 74.2694L152.271 74.2719Z" fill="#231F20"/>
<path d="M139.63 64.4418C141.87 61.6292 145.333 60.1492 148.89 60.5317C150.645 60.7217 152.415 61.4292 153.878 62.4967C155.34 63.5642 156.485 65.0818 157.35 66.6793C158.38 68.5818 159.15 70.8318 158.825 73.0219C158.76 73.4644 158.935 73.9119 159.403 74.0419C159.793 74.1494 160.356 73.9094 160.423 73.4644C160.771 71.1193 160.218 68.8368 159.221 66.7143C158.338 64.8393 157.113 63.0617 155.53 61.7117C152.358 58.9992 147.833 58.0692 143.875 59.4667C141.765 60.2117 139.855 61.5192 138.458 63.2717C138.18 63.6217 138.115 64.1017 138.458 64.4443C138.748 64.7343 139.35 64.7968 139.63 64.4443V64.4418Z" fill="#231F20"/>
<path d="M157.608 60.4466C158.758 59.4391 160.533 59.3441 161.808 60.2591C161.896 60.3216 161.858 60.2916 161.961 60.3816C162.041 60.4516 162.118 60.5241 162.191 60.5991C162.253 60.6641 162.316 60.7291 162.376 60.7991C162.416 60.8442 162.456 60.8917 162.493 60.9392C162.446 60.8767 162.518 60.9767 162.528 60.9892C162.778 61.3492 162.933 61.6467 163.046 62.0067C163.108 62.2067 163.161 62.4167 163.188 62.6242C163.176 62.5217 163.193 62.7342 163.196 62.7642C163.203 62.8817 163.203 63.0017 163.198 63.1192C163.198 63.1767 163.191 63.2342 163.186 63.2917C163.186 63.2917 163.168 63.4317 163.181 63.3542C163.193 63.2767 163.168 63.4167 163.168 63.4167C163.156 63.4742 163.146 63.5317 163.131 63.5867C163.111 63.6717 163.088 63.7567 163.061 63.8392C163.051 63.8717 162.953 64.1367 162.991 64.0492C162.798 64.5067 162.608 64.7642 162.276 65.0667C162.243 65.0942 162.213 65.1242 162.181 65.1492C162.068 65.2417 162.328 65.0617 162.113 65.1967C162.031 65.2492 161.948 65.3017 161.861 65.3492C161.846 65.3567 161.691 65.4342 161.771 65.3992C161.828 65.3742 161.688 65.4292 161.673 65.4342C161.551 65.4767 161.428 65.5067 161.301 65.5317C160.861 65.6192 160.611 66.1417 160.723 66.5517C160.848 67.0092 161.303 67.2192 161.743 67.1292C164.023 66.6742 165.176 64.1292 164.758 61.9992C164.316 59.7441 162.291 58.0366 160.003 57.9691C158.693 57.9291 157.423 58.4091 156.443 59.2691C156.106 59.5641 156.141 60.1391 156.443 60.4416C156.778 60.7766 157.278 60.7366 157.616 60.4416L157.608 60.4466Z" fill="#231F20"/>
<path d="M146.782 98.4823C148.214 97.6423 149.649 96.8023 151.082 95.9598C151.457 95.7398 151.622 95.2023 151.379 94.8273C151.137 94.4497 150.647 94.2948 150.247 94.5298C148.814 95.3698 147.379 96.2098 145.947 97.0523C145.572 97.2723 145.407 97.8098 145.649 98.1848C145.892 98.5623 146.382 98.7173 146.782 98.4823Z" fill="#231F20"/>
<path d="M36.875 144.948C35.575 146.32 34.2875 147.698 32.925 149.008C32.2949 149.616 31.6674 150.223 31.0399 150.831C30.7199 151.143 30.7274 151.688 31.0399 152.003C31.3599 152.323 31.8899 152.316 32.2124 152.003C33.5775 150.678 34.9625 149.381 36.27 147.998C36.8625 147.37 37.455 146.745 38.0475 146.118C38.355 145.793 38.37 145.268 38.0475 144.945C37.725 144.623 37.185 144.62 36.875 144.945V144.948Z" fill="#231F20"/>
<path d="M147.587 131.037C141.227 125.1 135.562 118.482 129.427 112.322C129.172 112.067 128.982 111.87 128.602 111.84C128.339 111.82 128.067 111.83 127.802 111.827C127.209 111.817 126.616 111.807 126.024 111.8C124.869 111.782 123.714 111.77 122.559 111.757C120.249 111.732 117.939 111.717 115.631 111.707C111.071 111.687 106.511 111.695 101.951 111.712C92.7711 111.747 83.5935 111.827 74.4133 111.842C73.8808 111.842 73.3483 111.842 72.8133 111.842C72.3083 111.842 71.7483 111.745 71.3358 112.087C71.2683 112.142 71.2058 112.202 71.1408 112.257C70.7533 112.6 70.3633 112.94 69.9758 113.282C68.5158 114.565 67.0557 115.85 65.5932 117.132C62.9307 119.472 60.2682 121.812 57.6056 124.152L57.4581 124.282C56.6556 124.987 57.8306 126.155 58.6306 125.455C60.2007 124.075 61.7682 122.697 63.3382 121.317C65.8257 119.132 68.3108 116.947 70.7983 114.762C71.3683 114.26 71.9408 113.757 72.5108 113.257C72.3158 113.337 72.1208 113.42 71.9258 113.5C79.2984 113.5 86.671 113.45 94.0436 113.407C101.416 113.365 108.789 113.332 116.161 113.367C120.306 113.387 124.451 113.427 128.597 113.5C128.402 113.42 128.207 113.337 128.012 113.257C132.849 118.1 137.384 123.23 142.194 128.102C143.574 129.5 144.977 130.875 146.414 132.215C147.194 132.943 148.367 131.773 147.587 131.042V131.037Z" fill="#231F20"/>
<path d="M167.623 150.833C164.85 148.081 162.078 145.325 159.313 142.563C158.558 141.808 157.385 142.98 158.14 143.735C160.908 146.496 163.678 149.251 166.45 152.006C167.208 152.758 168.38 151.586 167.623 150.833Z" fill="#231F20"/>
<path d="M40.3444 116.82C40.2744 120.337 40.2069 123.857 40.1369 127.375C40.1169 128.442 41.7719 128.442 41.7944 127.375C41.8644 123.857 41.9319 120.337 42.0019 116.82C42.0219 115.752 40.3669 115.752 40.3444 116.82Z" fill="#231F20"/>
<path d="M29.3962 140.003C30.0937 140.915 31.0387 141.563 32.0863 142.018C33.1338 142.473 34.3163 142.803 35.4988 142.863C36.3063 142.905 37.1288 142.79 37.9313 142.708C38.8613 142.613 39.7889 142.498 40.7164 142.378C45.0839 141.808 49.4315 141.095 53.794 140.49C53.944 140.47 54.0965 140.448 54.2465 140.428C54.314 140.418 54.3815 140.41 54.4515 140.4C54.484 140.395 54.7165 140.365 54.554 140.385C54.819 140.35 55.0816 140.315 55.3466 140.28C55.8716 140.213 56.3966 140.148 56.9241 140.088C57.8416 139.983 58.7616 139.888 59.6841 139.828C60.1316 139.798 60.5116 139.468 60.5116 139C60.5116 138.575 60.1316 138.143 59.6841 138.173C55.8041 138.425 51.939 139.088 48.0965 139.66C45.9664 139.978 43.8389 140.298 41.7039 140.59C41.5689 140.608 41.4314 140.628 41.2964 140.645C41.2714 140.648 41.1339 140.668 41.2739 140.648C41.2214 140.655 41.1664 140.663 41.1139 140.67C40.8514 140.705 40.5889 140.74 40.3264 140.773C39.8764 140.83 39.4264 140.885 38.9763 140.938C38.1663 141.033 37.3563 141.118 36.5438 141.178C36.0563 141.215 35.5788 141.225 35.0913 141.173C35.0563 141.17 34.8813 141.143 35.0213 141.165C34.9363 141.153 34.8513 141.138 34.7688 141.123C34.6263 141.098 34.4838 141.068 34.3413 141.035C34.0513 140.968 33.7638 140.888 33.4813 140.793C32.9088 140.603 32.4588 140.403 31.9038 140.063C31.7838 139.99 31.6663 139.913 31.5488 139.83C31.5038 139.798 31.4588 139.765 31.4138 139.733C31.5263 139.818 31.3488 139.678 31.3263 139.66C31.2263 139.575 31.1288 139.488 31.0363 139.395C30.9912 139.35 30.9488 139.305 30.9062 139.258C30.8837 139.233 30.7187 139.03 30.8237 139.168C30.5537 138.813 30.1112 138.625 29.6912 138.87C29.3412 139.075 29.1212 139.645 29.3937 140.003H29.3962Z" fill="#231F20"/>
<path d="M36.005 131.823C40.7576 129.86 46.0826 129.163 51.1352 130.18C52.5752 130.47 53.9852 130.895 55.3478 131.448C55.7628 131.615 56.2578 131.265 56.3678 130.87C56.4978 130.395 56.2053 130.02 55.7903 129.85C50.7727 127.808 45.1251 127.595 39.8801 128.833C38.4076 129.18 36.965 129.648 35.5675 130.225C35.155 130.395 34.86 130.775 34.99 131.245C35.0975 131.635 35.5925 131.995 36.01 131.823H36.005Z" fill="#231F20"/>
<path d="M54.0721 128.68C54.3321 129.263 54.5846 129.92 54.8371 130.6C55.1171 131.358 55.3846 132.118 55.6521 132.88C56.1721 134.36 56.6896 135.845 57.3296 137.28C57.5121 137.69 58.1071 137.785 58.4621 137.578C58.8821 137.33 58.9421 136.855 58.7596 136.445C58.4996 135.863 58.2471 135.205 57.9946 134.525C57.7146 133.768 57.4471 133.008 57.1796 132.245C56.6596 130.765 56.1421 129.28 55.5021 127.845C55.3196 127.435 54.7246 127.34 54.3696 127.548C53.9496 127.795 53.8896 128.27 54.0721 128.68Z" fill="#231F20"/>
<path d="M59.9937 132.12C60.2562 131.52 60.5637 130.858 60.9762 130.395C61.1987 130.148 61.3737 129.993 61.6287 129.85C61.7687 129.773 61.7987 129.758 61.9512 129.71C62.0412 129.683 62.1312 129.66 62.2237 129.64C62.3437 129.615 62.2562 129.633 62.3262 129.628C62.6212 129.615 62.7537 129.633 62.9687 129.745C63.0212 129.773 63.1137 129.848 63.0187 129.768C63.0737 129.815 63.1262 129.868 63.1737 129.923C63.0962 129.835 63.1637 129.91 63.1937 129.965C63.2237 130.02 63.2562 130.073 63.2812 130.128C63.2337 130.018 63.2712 130.11 63.2887 130.173C63.3062 130.235 63.3187 130.29 63.3312 130.353C63.3012 130.185 63.3262 130.345 63.3262 130.385C63.3262 130.445 63.3262 130.505 63.3187 130.565C63.3387 130.373 63.2987 130.59 63.2912 130.623C63.2562 130.768 63.3262 130.578 63.2787 130.648C63.2537 130.685 63.1587 130.788 63.2662 130.68C63.2162 130.733 63.1637 130.78 63.1062 130.825C62.5637 131.253 63.0012 132.32 63.6912 132.24C65.1288 132.075 66.6538 131.883 68.0788 132.113C68.7463 132.22 69.4188 132.405 70.0038 132.748C70.4563 133.013 70.8838 133.385 71.2013 133.808C71.5263 134.238 71.7338 134.653 71.8538 135.205C71.9363 135.59 71.9113 136.13 71.7388 136.528C71.5563 136.953 71.1913 137.34 70.7913 137.59C70.3188 137.888 69.8088 138.058 69.2838 138.133C67.7413 138.353 66.0413 137.638 64.5912 137.013C64.1812 136.835 63.7037 136.89 63.4587 137.31C63.2537 137.66 63.3437 138.265 63.7562 138.443C65.4163 139.158 67.1913 139.938 69.0413 139.81C70.5538 139.708 72.0363 139.06 72.9189 137.788C73.8039 136.515 73.6864 134.858 72.9864 133.535C72.2713 132.183 71.0088 131.223 69.5688 130.758C67.6713 130.148 65.6313 130.353 63.6887 130.575L64.2737 131.99C64.9437 131.463 65.1188 130.475 64.8737 129.693C64.5812 128.758 63.8137 128.125 62.8462 127.995C61.8437 127.86 60.8637 128.243 60.1162 128.903C59.3962 129.538 58.9387 130.413 58.5587 131.278C58.3787 131.688 58.4387 132.168 58.8562 132.41C59.2087 132.615 59.8087 132.525 59.9887 132.113L59.9937 132.12Z" fill="#231F20"/>
<path d="M155.082 130.603C152.232 132.595 149.385 134.585 146.535 136.578C146.167 136.833 146 137.303 146.237 137.71C146.45 138.073 147.002 138.265 147.37 138.008C150.22 136.015 153.067 134.025 155.917 132.033C156.285 131.778 156.452 131.308 156.215 130.9C156.002 130.538 155.45 130.345 155.082 130.603Z" fill="#231F20"/>
<path d="M142.668 136.547C144.978 138.965 147.288 141.38 149.598 143.798C150.336 144.57 151.508 143.398 150.771 142.625C148.461 140.208 146.151 137.792 143.841 135.375C143.103 134.602 141.931 135.775 142.668 136.547Z" fill="#231F20"/>
<path d="M152.152 141.663C156.69 141.118 161.072 139.513 164.85 136.933C165.922 136.2 166.947 135.393 167.912 134.523C168.245 134.223 168.217 133.655 167.912 133.35C167.582 133.02 167.075 133.05 166.74 133.35C163.587 136.193 159.755 138.245 155.652 139.328C154.505 139.63 153.282 139.87 152.15 140.005C151.705 140.058 151.322 140.348 151.322 140.833C151.322 141.24 151.705 141.715 152.15 141.66L152.152 141.663Z" fill="#231F20"/>
<path d="M138.719 144.745C138.099 144.86 137.489 145.053 136.862 145.138C136.629 145.17 136.392 145.18 136.159 145.168C136.142 145.168 135.962 145.153 136.049 145.163C136.124 145.17 135.982 145.153 135.984 145.153C135.854 145.128 135.724 145.098 135.599 145.055C135.452 145.008 135.532 145.04 135.397 144.97C135.309 144.923 135.219 144.873 135.142 144.813C135.209 144.865 135.032 144.703 134.997 144.658C135.067 144.74 134.899 144.495 134.892 144.475C134.729 144.103 134.782 143.585 134.817 143.148C134.817 143.123 134.852 142.8 134.834 142.943C134.849 142.83 134.869 142.72 134.889 142.608C134.932 142.39 134.984 142.173 135.049 141.96C135.082 141.855 135.119 141.753 135.154 141.65C135.154 141.648 135.204 141.523 135.172 141.598C135.137 141.683 135.202 141.528 135.212 141.51C135.302 141.318 135.404 141.13 135.522 140.953C135.552 140.908 135.582 140.865 135.612 140.823C135.687 140.713 135.542 140.905 135.627 140.803C135.684 140.73 135.747 140.663 135.809 140.595C135.882 140.518 135.959 140.445 136.037 140.375C136.077 140.34 136.117 140.305 136.159 140.273C136.069 140.343 136.182 140.26 136.219 140.235C136.394 140.12 136.572 140.015 136.764 139.933C136.659 139.978 136.952 139.868 136.977 139.86C137.102 139.82 137.229 139.788 137.359 139.758C138.559 139.47 139.864 139.448 141.067 139.67C141.507 139.75 141.959 139.55 142.087 139.093C142.197 138.69 141.949 138.155 141.509 138.073C140.094 137.813 138.649 137.808 137.237 138.09C136.029 138.333 134.999 138.898 134.254 139.893C133.586 140.783 133.291 141.888 133.176 142.98C133.111 143.598 133.086 144.273 133.279 144.873C133.486 145.518 133.929 146.055 134.524 146.383C136.019 147.21 137.614 146.638 139.164 146.348C139.604 146.265 139.854 145.733 139.742 145.328C139.614 144.865 139.164 144.668 138.722 144.75L138.719 144.745Z" fill="#231F20"/>
<path d="M138.972 144.065C138.232 145.003 138.14 146.3 138.922 147.253C139.627 148.113 140.892 148.345 141.882 147.873C142.815 147.428 143.265 146.425 143.915 145.72C144.565 145.015 145.365 144.463 146.287 144.073C146.7 143.898 146.79 143.29 146.585 142.94C146.335 142.513 145.865 142.468 145.452 142.643C144.657 142.978 143.932 143.45 143.285 144.02C142.68 144.553 142.18 145.29 141.727 145.858C141.61 146.003 141.485 146.145 141.342 146.268C141.26 146.338 141.172 146.393 141.085 146.423C141.077 146.423 140.83 146.475 140.967 146.46C140.882 146.47 140.792 146.468 140.707 146.46C140.845 146.47 140.617 146.44 140.585 146.43C140.572 146.428 140.35 146.33 140.46 146.388C140.207 146.26 140.12 146.133 140.045 145.878C140.025 145.775 140.02 145.76 140.032 145.83C140.027 145.785 140.027 145.74 140.027 145.695C140.027 145.65 140.027 145.605 140.032 145.56C140.022 145.615 140.025 145.615 140.035 145.558C140.045 145.51 140.095 145.343 140.09 145.355C140.055 145.438 140.235 145.13 140.15 145.238C140.427 144.888 140.492 144.408 140.15 144.065C139.862 143.778 139.257 143.713 138.977 144.065H138.972Z" fill="#231F20"/>
<path d="M58.7266 84.0146C57.519 84.0796 56.3115 84.1446 55.104 84.2097C54.689 84.2322 54.2315 84.5722 54.2765 85.0372C54.379 86.1347 54.839 87.1897 55.6665 87.9372C56.499 88.6922 57.6016 89.1147 58.7291 89.0897C59.1616 89.0797 59.5791 88.7147 59.5566 88.2622C59.5366 87.8222 59.1916 87.4222 58.7291 87.4347C58.6191 87.4347 58.5116 87.4347 58.4016 87.4297C58.3516 87.4272 58.3041 87.4222 58.2541 87.4172C58.0516 87.3997 58.4366 87.4547 58.2391 87.4147C58.0416 87.3747 57.8541 87.3297 57.6641 87.2647C57.624 87.2497 57.5415 87.2047 57.4965 87.2022C57.5765 87.2072 57.6165 87.2547 57.504 87.2022C57.4065 87.1547 57.309 87.1047 57.2165 87.0472C57.1315 86.9972 57.0515 86.9397 56.969 86.8847C56.804 86.7722 57.099 86.9997 56.949 86.8697C56.9115 86.8372 56.874 86.8047 56.8365 86.7722C56.764 86.7072 56.6965 86.6397 56.629 86.5672C56.5965 86.5322 56.564 86.4947 56.5315 86.4597C56.5115 86.4372 56.494 86.4147 56.4765 86.3922C56.439 86.3447 56.4515 86.3622 56.5165 86.4447C56.379 86.3297 56.274 86.0847 56.194 85.9272C56.1715 85.8847 56.1515 85.8397 56.1315 85.7972C56.044 85.6197 56.1915 85.9672 56.124 85.7822C56.0915 85.6922 56.059 85.5997 56.0315 85.5072C56.004 85.4147 55.9815 85.3197 55.9615 85.2247C55.9515 85.1797 55.949 85.0947 55.9315 85.0522L55.9465 85.1572C55.9415 85.1197 55.939 85.0797 55.934 85.0422L55.1065 85.8697C56.314 85.8047 57.5216 85.7397 58.7291 85.6747C59.1616 85.6522 59.5791 85.3097 59.5566 84.8472C59.5366 84.4172 59.1916 83.9947 58.7291 84.0197L58.7266 84.0146Z" fill="#231F20"/>
<path d="M141.347 84.9246C142.927 85.4621 144.677 85.0646 145.952 84.0196C145.517 83.9646 145.084 83.9071 144.649 83.8521C144.689 83.9371 144.687 83.9346 144.647 83.8421C144.664 83.8846 144.679 83.9271 144.692 83.9721C144.719 84.0596 144.744 84.1471 144.764 84.2346C144.774 84.2721 144.844 84.5646 144.792 84.3521C144.812 84.4371 144.809 84.5371 144.809 84.6246C144.809 84.7121 144.809 84.8071 144.804 84.8996C144.802 84.9471 144.804 85.1496 144.804 84.9521C144.804 85.1171 144.727 85.3146 144.672 85.4671C144.659 85.5046 144.644 85.5421 144.629 85.5821C144.674 85.4771 144.677 85.4671 144.639 85.5521C144.602 85.6246 144.567 85.6971 144.524 85.7671C144.494 85.8196 144.462 85.8721 144.427 85.9221C144.404 85.9571 144.382 85.9896 144.357 86.0221C144.427 85.9346 144.432 85.9271 144.374 85.9996C144.267 86.1221 144.159 86.2421 144.037 86.3496C144.007 86.3771 143.974 86.4021 143.944 86.4271C144.032 86.3596 144.039 86.3546 143.967 86.4071C143.899 86.4521 143.832 86.4971 143.762 86.5396C143.392 86.7646 143.219 87.2922 143.464 87.6722C143.704 88.0447 144.202 88.2097 144.597 87.9697C145.382 87.4947 145.959 86.7696 146.267 85.9071C146.607 84.9546 146.484 83.9196 146.074 83.0146C145.969 82.7846 145.704 82.6496 145.469 82.6196C145.192 82.5821 144.984 82.6746 144.774 82.8471C144.704 82.9046 144.712 82.8996 144.799 82.8321C144.767 82.8571 144.734 82.8796 144.702 82.9046C144.634 82.9521 144.567 82.9971 144.497 83.0396C144.377 83.1121 144.204 83.2446 144.064 83.2671C144.169 83.2246 144.179 83.2196 144.094 83.2546C144.057 83.2696 144.019 83.2846 143.979 83.2971C143.922 83.3171 143.864 83.3371 143.804 83.3546C143.649 83.4021 143.489 83.4421 143.329 83.4696C143.289 83.4771 143.249 83.4846 143.209 83.4896C143.329 83.4746 143.342 83.4721 143.247 83.4846C143.164 83.4921 143.084 83.4996 143.004 83.5021C142.862 83.5096 142.719 83.5071 142.577 83.4996C142.499 83.4946 142.409 83.4946 142.334 83.4771C142.569 83.5346 142.302 83.4671 142.254 83.4571C142.094 83.4246 141.937 83.3796 141.784 83.3271C141.374 83.1871 140.859 83.4871 140.764 83.9046C140.659 84.3646 140.904 84.7746 141.342 84.9246H141.347Z" fill="#231F20"/>
<path d="M71.528 63.0818C74.8305 60.8093 78.1331 58.5392 81.4356 56.2667C82.5556 55.4967 83.6731 54.7267 84.7931 53.9592C85.1607 53.7067 85.3281 53.2317 85.0906 52.8267C84.8781 52.4617 84.3281 52.2742 83.9581 52.5292C80.6556 54.8017 77.3531 57.0717 74.0505 59.3443C72.9305 60.1143 71.813 60.8843 70.693 61.6518C70.3255 61.9043 70.158 62.3793 70.3955 62.7843C70.608 63.1493 71.158 63.3368 71.528 63.0818Z" fill="#231F20"/>
<path d="M73.2422 72.8544C75.2997 72.4444 77.3572 72.0344 79.4148 71.6219C79.8548 71.5344 80.1048 71.0118 79.9923 70.6018C79.8673 70.1443 79.4123 69.9343 78.9723 70.0243C76.9147 70.4343 74.8572 70.8443 72.7997 71.2569C72.3597 71.3444 72.1097 71.8669 72.2222 72.2769C72.3472 72.7344 72.8022 72.9444 73.2422 72.8544Z" fill="#231F20"/>
<path d="M65.1161 58.4643C66.3286 56.3142 67.5436 54.1617 68.7561 52.0117C69.2811 51.0817 67.8486 50.2467 67.3261 51.1742C66.1136 53.3242 64.8986 55.4767 63.6861 57.6267C63.1611 58.5568 64.5936 59.3918 65.1161 58.4643Z" fill="#231F20"/>
<path d="M119.124 69.1543C122.674 69.5618 126.224 69.9668 129.777 70.3743C130.222 70.4243 130.605 69.9568 130.605 69.5468C130.605 69.0568 130.222 68.7693 129.777 68.7193C126.227 68.3118 122.677 67.9068 119.124 67.4993C118.679 67.4493 118.297 67.9168 118.297 68.3268C118.297 68.8168 118.679 69.1043 119.124 69.1543Z" fill="#231F20"/>
<path d="M120.034 51.0716C123.036 53.0717 126.036 55.0717 129.039 57.0717C130.256 57.8817 131.471 58.6942 132.689 59.5043C133.062 59.7518 133.607 59.5768 133.822 59.2068C134.059 58.8017 133.897 58.3217 133.524 58.0742C130.521 56.0742 127.521 54.0742 124.519 52.0742C123.301 51.2642 122.086 50.4516 120.869 49.6416C120.496 49.3941 119.951 49.5691 119.736 49.9391C119.499 50.3441 119.661 50.8241 120.034 51.0716Z" fill="#231F20"/>
<path d="M137.012 49.5666C138.247 51.9516 139.479 54.3391 140.714 56.7241C140.919 57.1217 141.477 57.2392 141.847 57.0217C142.249 56.7866 142.349 56.2866 142.144 55.8891C140.909 53.5041 139.677 51.1166 138.442 48.7315C138.237 48.334 137.679 48.2165 137.309 48.434C136.907 48.669 136.807 49.1691 137.012 49.5666Z" fill="#231F20"/>
<path d="M63.9308 101.675C68.8009 103.707 73.6684 105.74 78.5385 107.772C78.951 107.945 79.451 107.587 79.5585 107.195C79.6885 106.717 79.3935 106.35 78.981 106.175C74.1109 104.142 69.2434 102.11 64.3733 100.077C63.9608 99.9047 63.4608 100.262 63.3533 100.655C63.2233 101.132 63.5183 101.5 63.9308 101.675Z" fill="#231F20"/>
<path d="M88.5047 89.5572C88.5972 88.7972 88.4047 88.0422 88.2547 87.2997C88.1972 87.0172 88.1447 86.7397 88.1522 86.4522C88.1522 86.3997 88.1872 86.1247 88.1622 86.2672C88.1897 86.1197 88.2272 85.9747 88.2772 85.8347C88.3272 85.6947 88.1847 85.9872 88.3022 85.7747C88.3272 85.7297 88.3497 85.6822 88.3772 85.6372C88.3722 85.6447 88.5147 85.4422 88.4447 85.5322C88.3747 85.6222 88.5372 85.4397 88.5297 85.4472C88.5522 85.4197 88.6497 85.3597 88.5297 85.4372C88.5272 85.4372 88.7297 85.3247 88.6197 85.3747C88.5097 85.4247 88.7272 85.3447 88.7272 85.3447C88.5847 85.3847 88.7547 85.3447 88.8222 85.3472C88.6647 85.3347 89.0297 85.4322 88.8997 85.3722C89.0597 85.4472 89.0272 85.4272 89.1597 85.5547C89.3522 85.7447 89.4647 85.9347 89.5947 86.2247C89.8472 86.7872 90.0197 87.4672 90.3922 88.0022C90.7647 88.5372 91.2872 88.9522 91.8422 89.3122C92.3272 89.6272 92.8522 89.9147 93.2172 90.2672C93.4222 90.4672 93.5072 90.5797 93.6498 90.8447C93.7673 91.0648 93.8523 91.3173 93.8973 91.6223C93.9223 91.7848 93.8973 91.4448 93.9048 91.7298C93.9073 91.8248 93.9123 91.9173 93.9098 92.0123C93.9048 92.1998 93.9098 92.1748 93.8723 92.3523C93.7973 92.6998 93.7248 92.8623 93.5273 93.1623C93.4098 93.3398 93.1472 93.6073 93.0022 93.7148C92.7072 93.9298 92.5372 94.0048 92.2122 94.0948C91.1847 94.3773 91.6222 95.9773 92.6522 95.6923C94.2198 95.2598 95.3723 93.9048 95.5473 92.2948C95.6348 91.4973 95.4448 90.6673 95.0573 89.9672C94.6823 89.2897 94.0973 88.7972 93.4597 88.3772C92.8622 87.9847 92.3047 87.7247 91.8622 87.2122C91.7472 87.0797 91.5547 86.7197 91.4672 86.4972C91.3072 86.0947 91.1722 85.6822 90.9822 85.2922C90.6397 84.5872 90.0047 83.9122 89.2147 83.7397C88.4622 83.5772 87.6922 83.8447 87.2047 84.4372C86.6947 85.0547 86.4447 85.8872 86.4997 86.6872C86.5647 87.6547 86.9647 88.5797 86.8472 89.5547C86.7922 89.9997 87.2672 90.3822 87.6747 90.3822C88.1672 90.3822 88.4497 89.9997 88.5022 89.5547L88.5047 89.5572Z" fill="#231F20"/>
<path d="M90.4811 87.777C89.6261 88.6321 88.8061 89.6996 88.8686 90.9771C88.8986 91.6221 89.1236 92.2621 89.5886 92.7221C89.9986 93.1271 90.5986 93.3596 91.1761 93.3221C91.8436 93.2771 92.5261 92.9546 92.8286 92.3246C93.0161 91.9346 92.9486 91.4121 92.5311 91.1921C92.1611 90.9971 91.5986 91.0721 91.3986 91.4896C91.3736 91.5396 91.3261 91.5946 91.3086 91.6446C91.3911 91.5421 91.4111 91.5146 91.3686 91.5621C91.3536 91.5796 91.3386 91.5946 91.3236 91.6096C91.2361 91.7096 91.4986 91.5021 91.3161 91.6096C91.2436 91.6521 91.1511 91.6471 91.3561 91.6046C91.3136 91.6146 91.2711 91.6346 91.2286 91.6471C91.1986 91.6546 91.1711 91.6621 91.1411 91.6671C91.0536 91.6821 91.0811 91.6796 91.2261 91.6571C91.1861 91.6521 91.1286 91.6646 91.0886 91.6646C91.0586 91.6646 91.0261 91.6646 90.9961 91.6621C90.9061 91.6546 90.9336 91.6596 91.0786 91.6746C91.0386 91.6571 90.9861 91.6571 90.9436 91.6446C90.9161 91.6371 90.7236 91.5696 90.8686 91.6246C91.0136 91.6796 90.8336 91.5971 90.8036 91.5821C90.6661 91.5121 90.9261 91.7046 90.8236 91.6021C90.8086 91.5871 90.6611 91.4621 90.6711 91.4446C90.6636 91.4571 90.7786 91.6071 90.6736 91.4371C90.6411 91.3821 90.6136 91.3271 90.5836 91.2696C90.5586 91.2121 90.5686 91.2371 90.6161 91.3421C90.6036 91.3071 90.5911 91.2746 90.5811 91.2396C90.5661 91.1871 90.5511 91.1346 90.5411 91.0796C90.5336 91.0446 90.5261 91.0071 90.5211 90.9721C90.5386 91.1021 90.5411 91.1196 90.5311 91.0271C90.5261 90.9046 90.5311 90.7871 90.5336 90.6646C90.5386 90.5996 90.5336 90.6271 90.5211 90.7471C90.5261 90.7096 90.5336 90.6746 90.5411 90.6371C90.5511 90.5821 90.5661 90.5271 90.5786 90.4746C90.5986 90.3996 90.6261 90.3246 90.6536 90.2496C90.7236 90.0546 90.5736 90.3996 90.6686 90.2171C90.7386 90.0871 90.8036 89.9596 90.8836 89.8346C90.9236 89.7721 90.9661 89.7121 91.0086 89.6521C91.0261 89.6271 91.0461 89.6021 91.0661 89.5771C91.0011 89.6621 90.9961 89.6671 91.0536 89.5946C91.2436 89.3671 91.4461 89.1521 91.6561 88.9421C91.9636 88.6346 91.9861 88.0721 91.6561 87.7695C91.3261 87.467 90.8111 87.442 90.4836 87.7695L90.4811 87.777Z" fill="#231F20"/>
<path d="M85.7421 93.5623C86.9221 95.7598 89.1496 97.1948 91.6022 97.5048C92.0347 97.5598 92.4497 97.0848 92.4297 96.6773C92.4072 96.1823 92.0647 95.9073 91.6022 95.8498C91.7647 95.8698 91.5872 95.8473 91.5547 95.8423C91.4922 95.8323 91.4272 95.8198 91.3647 95.8073C91.2397 95.7823 91.1122 95.7548 90.9897 95.7223C90.7397 95.6573 90.4947 95.5798 90.2547 95.4873C90.2372 95.4798 90.0496 95.4023 90.1396 95.4423C90.2296 95.4823 90.0221 95.3873 90.0271 95.3898C89.9096 95.3348 89.7946 95.2773 89.6821 95.2173C89.4546 95.0973 89.2346 94.9623 89.0221 94.8173C88.9796 94.7873 88.9371 94.7573 88.8946 94.7273C88.8871 94.7223 88.6896 94.5723 88.8146 94.6698C88.7146 94.5898 88.6146 94.5073 88.5171 94.4223C88.3346 94.2598 88.1596 94.0898 87.9946 93.9098C87.9071 93.8148 87.8246 93.7173 87.7421 93.6173C87.7096 93.5773 87.6371 93.4798 87.7046 93.5723C87.6671 93.5198 87.6296 93.4698 87.5921 93.4173C87.4371 93.1973 87.2971 92.9648 87.1696 92.7273C86.9646 92.3447 86.4021 92.1947 86.0371 92.4297C85.6496 92.6798 85.5196 93.1548 85.7396 93.5623H85.7421Z" fill="#231F20"/>
<path d="M86.2938 94.2995C84.5562 96.9346 82.8187 99.5671 81.0812 102.202C80.7062 102.772 80.3312 103.34 79.9537 103.91C79.7062 104.282 79.8787 104.827 80.2512 105.042C80.6562 105.28 81.1387 105.12 81.3837 104.745C83.1212 102.11 84.8587 99.4771 86.5963 96.8421C86.9713 96.272 87.3463 95.7045 87.7238 95.1345C87.9713 94.762 87.7988 94.217 87.4263 94.002C87.0213 93.7645 86.5388 93.9245 86.2938 94.2995Z" fill="#231F20"/>
<path d="M92.2969 99.4097C90.3594 103.462 88.4219 107.512 86.4844 111.565C86.2919 111.967 86.3719 112.46 86.7819 112.697C87.1444 112.91 87.7219 112.805 87.9144 112.4C89.8519 108.347 91.7894 104.297 93.7269 100.245C93.9194 99.8422 93.8394 99.3497 93.4294 99.1122C93.0669 98.8997 92.4894 99.0047 92.2969 99.4097Z" fill="#231F20"/>
<path d="M119.659 97.0445C121.687 95.672 123.714 94.2994 125.744 92.9244C126.114 92.6744 126.279 92.1944 126.042 91.7919C125.827 91.4244 125.279 91.2419 124.909 91.4944C122.882 92.8669 120.854 94.2394 118.824 95.6145C118.454 95.8645 118.289 96.3445 118.527 96.747C118.742 97.1145 119.289 97.297 119.659 97.0445Z" fill="#231F20"/>
<path d="M125.194 95.8146C127.361 100.242 129.529 104.67 131.696 109.097C131.894 109.5 132.464 109.61 132.829 109.395C133.239 109.155 133.324 108.665 133.126 108.262C130.959 103.835 128.791 99.4072 126.624 94.9796C126.426 94.5771 125.856 94.4671 125.491 94.6821C125.081 94.9221 124.996 95.4121 125.194 95.8146Z" fill="#231F20"/>
<path d="M119.44 96.2621C119.165 100.145 119.767 104.09 121.192 107.712C121.355 108.127 121.747 108.42 122.212 108.29C122.61 108.18 122.955 107.69 122.79 107.27C121.412 103.767 120.832 100.015 121.097 96.2596C121.13 95.8121 120.695 95.4321 120.27 95.4321C119.795 95.4321 119.472 95.8121 119.442 96.2596L119.44 96.2621Z" fill="#231F20"/>
<path d="M119.477 91.7319C118.387 91.1994 117.337 90.5869 116.342 89.8944C115.882 89.5719 115.502 89.3219 115.12 88.9244C114.857 88.6519 114.71 88.3544 114.78 88.0569C114.877 87.6469 115.142 87.3594 115.55 87.1344C115.752 87.0219 115.927 86.9594 116.16 86.8944C116.282 86.8594 116.407 86.8319 116.532 86.8069C116.59 86.7969 116.647 86.7844 116.707 86.7769C116.617 86.7894 116.712 86.7769 116.75 86.7719C116.985 86.7519 117.22 86.7419 117.455 86.7519C117.572 86.7569 117.69 86.7669 117.807 86.7769C117.807 86.7769 117.95 86.7944 117.872 86.7844C117.795 86.7744 118.005 86.8069 118.022 86.8119C118.457 86.8944 118.95 87.0569 119.247 87.2019C120.187 87.6594 120.86 88.2794 121.342 89.1769C121.555 89.5719 122.1 89.6944 122.475 89.4744C122.872 89.2419 122.985 88.7369 122.772 88.3419C121.657 86.2619 119.237 84.9319 116.882 85.1044C115.545 85.2019 114.055 85.7319 113.415 87.0069C113.1 87.6344 113.005 88.3719 113.26 89.0369C113.51 89.6869 113.99 90.1769 114.53 90.5994C115.807 91.5944 117.19 92.4494 118.645 93.1595C119.047 93.3545 119.54 93.2695 119.777 92.862C119.99 92.4969 119.885 91.9244 119.48 91.7294L119.477 91.7319Z" fill="#231F20"/>
<path d="M122.377 87.4571C122.255 87.6171 122.435 87.3871 122.457 87.3596C122.5 87.3071 122.542 87.2546 122.587 87.2046C122.69 87.0846 122.795 86.9696 122.907 86.8596C122.972 86.7971 123.042 86.7421 123.107 86.6821C122.975 86.8071 123.122 86.6721 123.155 86.6521C123.227 86.6021 123.302 86.5571 123.38 86.5171L123.437 86.4871C123.522 86.4471 123.517 86.4496 123.42 86.4946C123.475 86.4496 123.602 86.4346 123.67 86.4196L123.732 86.4071C123.827 86.3921 123.817 86.3921 123.702 86.4096C123.73 86.3896 123.93 86.3921 123.957 86.4096L123.862 86.3971C123.905 86.4046 123.945 86.4146 123.987 86.4246C124.03 86.4371 124.07 86.4496 124.11 86.4646C124.002 86.4171 123.977 86.4071 124.032 86.4346C124.045 86.4421 124.19 86.5296 124.19 86.5296C124.092 86.4521 124.077 86.4396 124.145 86.4971C124.165 86.5146 124.182 86.5321 124.202 86.5521C124.222 86.5696 124.24 86.5896 124.257 86.6096C124.315 86.6771 124.305 86.6621 124.227 86.5646C124.222 86.5696 124.44 86.8721 124.415 86.8871C124.367 86.7721 124.36 86.7571 124.392 86.8396L124.41 86.8921C124.432 86.9621 124.452 87.0321 124.467 87.1021C124.472 87.1296 124.477 87.1546 124.482 87.1821C124.492 87.2471 124.49 87.2171 124.472 87.0971C124.462 87.1046 124.485 87.2921 124.485 87.3146C124.485 87.3696 124.485 87.4221 124.48 87.4771C124.477 87.5171 124.472 87.5596 124.467 87.5996C124.482 87.4921 124.482 87.4846 124.467 87.5821C124.432 87.7371 124.395 87.8896 124.342 88.0396C124.32 88.1046 124.295 88.1672 124.27 88.2322C124.342 88.0422 124.232 88.3147 124.215 88.3472C124.077 88.6372 123.917 88.9172 123.755 89.1947C123.537 89.5697 123.655 90.1197 124.052 90.3272C124.45 90.5347 124.955 90.4322 125.185 90.0297C125.81 88.9447 126.437 87.6671 125.985 86.3971C125.777 85.8121 125.395 85.2521 124.817 84.9796C124.087 84.6371 123.31 84.7096 122.597 85.0546C121.9 85.3921 121.407 86.0221 120.945 86.6196C120.822 86.7771 120.812 87.0771 120.862 87.2571C120.915 87.4496 121.065 87.6571 121.242 87.7521C121.682 87.9846 122.092 87.8221 122.375 87.4546L122.377 87.4571Z" fill="#231F20"/>
</svg>
