<svg width="200" height="200" viewBox="0 0 200 200" fill="none" xmlns="http://www.w3.org/2000/svg">
<path d="M105.089 66.6182C105.274 70.1358 107.014 75.1408 114.991 76.7459L114.581 70.5558C114.491 69.1983 116.039 68.3633 117.124 69.1833C118.209 70.0033 119.219 71.1183 119.286 72.4483V73.8058C119.286 73.8058 122.944 76.9809 125.481 81.1634C128.019 85.346 127.409 89.086 127.409 89.086L125.084 94.5386C125.084 94.5386 133.964 91.2535 135.154 80.2509C136.344 69.2483 127.076 63.5582 125.746 63.2907C124.416 63.0232 116.704 60.1882 109.259 65.5957C109.259 65.5957 108.174 65.7632 107.134 65.2482C106.166 64.7682 105.029 65.5407 105.086 66.6182H105.089Z" fill="#E8D575"/>
<path d="M93.1007 114.869C93.1007 114.869 88.7332 123.766 92.2857 125.059C95.8383 126.351 98.6658 123.429 98.6658 119.964V114.641L93.1007 114.866V114.869Z" fill="#DCDDDD"/>
<path d="M104.487 102.528C104.487 102.528 104.652 106.366 104.167 108.526C103.682 110.686 101.732 114.934 101.732 114.934C101.732 114.934 103.002 116.769 103.002 118.834C103.002 120.899 99.999 128.586 99.999 128.586C99.999 128.586 117.267 128.126 123.727 131.111L131.104 128.146L133.447 129.966L121.399 134.629C121.399 134.629 118.919 135.886 119.834 137.661C120.749 139.436 125.117 146.257 125.117 146.257L144.992 141.151C144.992 141.151 148.255 138.716 146.822 136.619C145.39 134.521 143.85 131.221 143.315 129.261C142.78 127.301 139.5 112.174 137.689 110.364C135.879 108.554 131.814 103.461 127.502 103.461C123.189 103.461 115.959 106.674 114.812 106.674C113.664 106.674 106.869 103.086 106.869 101.896C106.869 100.706 104.484 102.528 104.484 102.528H104.487Z" fill="#DCDDDD"/>
<path d="M96.5508 104.214L93.3232 107.944L94.4608 108.919L97.8933 105.636L96.5508 104.214Z" fill="#E8D575"/>
<path d="M100.974 102.024L99.5938 101.494L106.196 94.5362C106.196 94.5362 107.841 93.6187 107.841 94.5362C107.841 95.4537 100.871 102.426 100.871 102.426" fill="#E8D575"/>
<path d="M75.8359 158.452L78.2335 159.794L82.4035 158.484L81.2535 157.109L75.8359 158.452Z" fill="#E8D575"/>
<path d="M86.7207 158.867C86.7207 158.867 90.4857 156.772 95.5833 157.624C100.681 158.477 105.786 163.354 105.786 163.354L106.406 164.095L104.666 165.947C104.666 165.947 96.4983 160.259 93.7908 159.794C91.0833 159.329 86.7232 158.867 86.7232 158.867H86.7207Z" fill="#DCDDDD"/>
<path d="M50.5206 156.654L49.4531 157.957C49.4531 157.957 51.6282 176.707 102.804 176.707C153.979 176.707 152.454 155.149 152.454 155.149C152.454 155.149 143.584 171.42 107.839 171.42H90.5686C90.5686 171.42 64.8533 170.99 50.5206 156.654Z" fill="#E8D575"/>
<path d="M102.684 62.2532C101.354 66.5058 102.239 71.2908 105.117 74.7159C107.929 78.0634 112.467 79.7484 116.782 79.2009C117.194 79.1484 117.682 78.8559 117.627 78.3559C117.339 75.8284 117.054 73.3034 116.767 70.7758C116.287 70.9758 115.807 71.1733 115.327 71.3733C119.892 74.9609 124.909 78.9084 126.325 84.8435C126.975 87.5735 126.727 90.5786 125.082 92.9211C123.432 95.2686 120.674 96.6412 117.827 96.6612C116.742 96.6687 116.739 98.3562 117.827 98.3487C124.367 98.3037 129 92.5436 128.262 86.176C127.437 79.0609 121.804 74.3309 116.522 70.1808C116.027 69.7933 114.989 69.9633 115.082 70.7783C115.369 73.3059 115.654 75.8309 115.942 78.3584L116.787 77.5134C113.002 77.9934 109.122 76.6809 106.562 73.8059C103.892 70.8058 103.132 66.4908 104.317 62.7007C104.642 61.6607 103.014 61.2182 102.689 62.2532H102.684Z" fill="#231815"/>
<path d="M104.961 75.9831C102.061 81.7407 103.134 88.9508 107.626 93.5859C108.384 94.3659 109.577 93.1734 108.819 92.3933C104.874 88.3233 103.861 81.9057 106.416 76.8356C106.904 75.8681 105.449 75.0131 104.959 75.9831H104.961Z" fill="#231815"/>
<path d="M119.915 78.9107L118.977 80.7382C118.482 81.7033 119.937 82.5583 120.435 81.5908C120.747 80.9807 121.06 80.3732 121.372 79.7632C121.867 78.7982 120.412 77.9432 119.915 78.9107Z" fill="#231815"/>
<path d="M116.056 90.6936C117.221 91.1711 118.596 90.8286 119.459 89.9336C120.214 89.1536 119.021 87.9585 118.266 88.741C117.776 89.2461 117.141 89.3261 116.504 89.0661C116.081 88.8936 115.576 89.2536 115.466 89.6561C115.334 90.1386 115.631 90.5211 116.056 90.6936Z" fill="#231815"/>
<path d="M109.721 84.8112L109.824 84.9512C109.876 85.0487 109.949 85.1287 110.041 85.1887C110.124 85.2637 110.219 85.3137 110.329 85.3387C110.441 85.3737 110.554 85.3787 110.666 85.3537C110.779 85.3487 110.884 85.3162 110.979 85.2537L111.149 85.1212C111.254 85.0162 111.326 84.8912 111.366 84.7487L111.396 84.5237C111.396 84.3712 111.356 84.2287 111.281 84.0987L111.179 83.9587C111.126 83.8612 111.054 83.7812 110.961 83.7212C110.879 83.6462 110.784 83.5962 110.674 83.5712C110.561 83.5362 110.449 83.5312 110.336 83.5562C110.224 83.5612 110.119 83.5937 110.024 83.6562L109.854 83.7887C109.749 83.8937 109.676 84.0187 109.636 84.1612L109.606 84.3862C109.606 84.5387 109.646 84.6812 109.721 84.8112Z" fill="#231815"/>
<path d="M121.139 79.0335L120.979 78.5085C120.917 78.301 120.779 78.1135 120.592 78.0035C120.404 77.8935 120.144 77.8535 119.942 77.9185C119.517 78.056 119.214 78.5035 119.352 78.956C119.404 79.131 119.457 79.306 119.512 79.481C119.574 79.6885 119.712 79.876 119.899 79.986C120.087 80.096 120.347 80.136 120.549 80.071C120.974 79.9335 121.277 79.486 121.139 79.0335Z" fill="#231815"/>
<path d="M108.444 64.6358C115.684 59.4932 126.099 60.4008 132.002 67.1533C137.917 73.9209 137.879 84.246 131.807 90.9086C128.407 94.6387 123.599 96.9162 118.559 97.1487C117.476 97.1987 117.471 98.8862 118.559 98.8362C128.619 98.3687 137.432 90.4186 138.127 80.2085C138.759 70.9084 132.234 61.9733 123.079 60.0533C117.754 58.9357 112.041 60.0183 107.591 63.1783C106.714 63.8008 107.556 65.2658 108.444 64.6358Z" fill="#231815"/>
<path d="M112.607 98.2534C112.757 99.311 112.909 100.366 113.059 101.423C113.329 101.068 113.602 100.711 113.872 100.356C111.302 100.286 108.732 100.213 106.162 100.143C105.577 100.128 105.037 100.896 105.434 101.413C106.892 103.318 108.469 105.346 110.692 106.394C113.217 107.584 115.712 106.939 118.175 105.929C120.715 104.886 123.142 104.121 125.927 104.386C128.71 104.651 131.365 105.786 133.465 107.629C134.277 108.341 135.477 107.154 134.657 106.436C131.017 103.246 125.965 101.911 121.232 103.041C118.565 103.679 115.987 105.649 113.157 105.371C110.397 105.099 108.454 102.611 106.889 100.566C106.647 100.988 106.404 101.413 106.162 101.836C108.732 101.906 111.302 101.978 113.872 102.048C114.477 102.066 114.76 101.498 114.685 100.981C114.535 99.9235 114.382 98.8684 114.232 97.8109C114.08 96.7409 112.452 97.1959 112.604 98.2584L112.607 98.2534Z" fill="#231815"/>
<path d="M101.307 109.599C103.907 107.131 103.604 102.326 100.024 100.878C98.6519 100.323 96.9344 100.701 96.3044 102.151C95.5894 103.796 96.7744 105.326 97.8769 106.434C98.6444 107.204 99.8369 106.011 99.0694 105.241C98.5244 104.693 97.3219 103.591 97.9044 102.696C98.5694 101.673 100.039 102.706 100.562 103.326C101.879 104.893 101.527 107.059 100.112 108.401C99.3219 109.151 100.517 110.341 101.304 109.594L101.307 109.599Z" fill="#231815"/>
<path d="M100.727 99.6461C101.817 98.4186 102.887 97.1711 103.937 95.9086C104.449 95.2936 106.632 92.1311 107.219 94.1036C107.524 95.1286 104.969 97.0286 104.237 97.7511C103.044 98.9286 101.859 100.111 100.677 101.299C99.9093 102.069 101.104 103.264 101.869 102.491C103.414 100.939 104.972 99.3986 106.527 97.8561C107.857 96.5386 109.939 94.8936 108.502 92.8636C107.189 91.0085 105.149 91.8585 103.957 93.2636C102.484 94.9961 101.042 96.7486 99.5318 98.4511C98.8143 99.2611 100.002 100.459 100.724 99.6437L100.727 99.6461Z" fill="#231815"/>
<path d="M97.154 105.606C95.5015 107.156 93.849 108.706 92.1964 110.256C91.4014 111.001 92.5964 112.191 93.389 111.449C95.0415 109.899 96.694 108.349 98.3465 106.799C99.1415 106.054 97.9465 104.864 97.154 105.606Z" fill="#231815"/>
<path d="M94.0042 104.001C91.3242 107.054 88.3691 109.456 86.8991 113.379C86.6616 114.011 87.3616 114.556 87.9366 114.416C89.8917 113.939 91.4292 112.784 93.0967 111.721C94.0092 111.139 93.1642 109.676 92.2442 110.264C90.7067 111.246 89.2917 112.349 87.4866 112.789C87.8316 113.134 88.1791 113.481 88.5241 113.826C89.8767 110.224 92.7367 107.994 95.1967 105.194C95.9117 104.381 94.7217 103.184 94.0042 104.001Z" fill="#231815"/>
<path d="M92.0593 108.081C92.5868 108.559 93.1168 109.039 93.6443 109.516C93.9818 109.821 94.5043 109.849 94.8368 109.516C95.1468 109.206 95.1768 108.631 94.8368 108.324L93.2518 106.889C92.9143 106.584 92.3918 106.556 92.0593 106.889C91.7493 107.199 91.7193 107.774 92.0593 108.081Z" fill="#231815"/>
<path d="M91.1943 111.684C91.1793 111.764 91.1418 111.831 91.0893 111.889C91.0343 111.956 91.0243 111.969 91.0643 111.929C91.0643 111.929 90.8768 112.059 90.9693 112.006C90.8193 112.064 90.7743 112.081 90.8393 112.061C90.8543 112.056 90.8693 112.051 90.8843 112.049C90.8768 112.059 90.6293 112.071 90.7718 112.066C90.8693 112.064 90.8243 112.124 90.6593 112.049C90.6918 112.064 90.7993 112.099 90.6468 112.036C90.5668 111.999 90.5518 111.994 90.6018 112.024L90.4793 111.929L90.5018 111.951C90.4243 111.879 90.3743 111.789 90.3493 111.686C90.4368 111.899 90.5318 112.071 90.7368 112.191C90.9168 112.296 91.1843 112.341 91.3868 112.276C91.5893 112.211 91.7868 112.084 91.8918 111.889C91.9968 111.694 92.0618 111.444 91.9768 111.239C91.8593 110.956 91.7193 110.736 91.4568 110.569C91.2618 110.444 91.0043 110.384 90.7768 110.381C90.5493 110.379 90.3118 110.446 90.1093 110.559C89.8343 110.714 89.6918 110.956 89.5743 111.236C89.4968 111.424 89.5618 111.719 89.6593 111.886C89.7618 112.061 89.9618 112.229 90.1643 112.274C90.3793 112.324 90.6218 112.311 90.8143 112.189C91.0068 112.066 91.1118 111.899 91.2018 111.684H91.1943Z" fill="#231815"/>
<path d="M100.207 94.5713C98.8265 93.9313 97.199 93.2763 95.7215 94.0388C94.3639 94.7413 93.9489 96.3013 93.4639 97.6313C92.9239 99.1089 92.0139 100.876 92.7639 102.444C93.3539 103.676 94.7664 104.191 95.959 103.479C96.8915 102.921 96.0415 101.464 95.1064 102.021C93.8039 102.799 94.3739 100.061 94.5189 99.6464C94.8064 98.8189 95.1064 97.9914 95.4214 97.1738C95.6764 96.5113 95.9465 95.7113 96.6915 95.4563C97.5715 95.1563 98.5815 95.6663 99.354 96.0238C100.334 96.4763 101.192 95.0238 100.207 94.5663V94.5713Z" fill="#231815"/>
<path d="M95.274 91.3512C89.0264 90.0586 89.4714 99.4488 89.9664 103.214C90.1064 104.274 91.7964 104.289 91.6539 103.214C91.3339 100.786 90.4414 92.0712 94.824 92.9787C95.884 93.1987 96.3365 91.5712 95.2715 91.3512H95.274Z" fill="#231815"/>
<path d="M90.1794 95.3985C86.0193 96.731 86.7418 101.519 87.8169 104.734C88.1594 105.759 89.7894 105.319 89.4444 104.286C88.7119 102.096 87.5194 98.021 90.6294 97.026C91.6594 96.696 91.2194 95.066 90.1819 95.3985H90.1794Z" fill="#231815"/>
<path d="M88.0287 103.876C87.3162 104.124 86.3762 103.849 86.1437 103.049C85.9137 102.251 86.5512 101.509 87.2887 101.341C88.3462 101.101 87.8987 99.4735 86.8412 99.7135C85.2062 100.084 84.0562 101.846 84.5162 103.496C84.9762 105.146 86.8962 106.049 88.4762 105.504C89.4962 105.151 89.0587 103.521 88.0287 103.876Z" fill="#231815"/>
<path d="M100.359 108.769C100.439 111.026 99.3117 113.094 97.1942 114.011C95.4217 114.781 93.0942 114.574 91.9567 112.846C91.3616 111.944 89.8991 112.786 90.4991 113.699C92.0317 116.029 95.0342 116.651 97.5642 115.681C100.427 114.581 102.154 111.806 102.047 108.769C102.009 107.686 100.322 107.681 100.359 108.769Z" fill="#231815"/>
<path d="M110.309 138.817C107.424 139.367 104.539 139.917 101.654 140.467C100.137 140.757 96.7192 140.869 96.9767 143.204C97.2617 145.792 100.749 145.112 102.444 144.894C105.237 144.537 107.987 143.974 110.694 143.209C111.737 142.914 111.294 141.287 110.247 141.582C108.367 142.114 106.464 142.557 104.539 142.889C103.459 143.077 102.374 143.229 101.282 143.344C100.849 143.389 100.339 143.519 99.9117 143.467C99.4292 143.407 98.2617 143.157 99.1117 142.694C99.7967 142.322 100.859 142.329 101.622 142.184C102.584 142.002 103.544 141.817 104.507 141.634C106.592 141.237 108.674 140.839 110.759 140.442C111.824 140.239 111.374 138.612 110.312 138.814L110.309 138.817Z" fill="#231815"/>
<path d="M102.807 147.652C107.507 147.724 112.079 145.547 116.602 144.544C117.662 144.309 117.215 142.682 116.155 142.917C111.789 143.882 107.337 146.034 102.807 145.962C101.719 145.944 101.719 147.632 102.807 147.649V147.652Z" fill="#231815"/>
<path d="M116.152 142.917C114.012 143.399 112.087 144.857 110.614 146.439C109.967 147.134 109.312 147.979 109.499 148.994C109.667 149.897 110.447 150.507 111.317 150.647C113.277 150.965 115.314 148.999 116.812 147.997C118.902 146.594 121.127 145.172 123.725 145.162C124.407 145.159 124.72 144.457 124.452 143.892C123.347 141.547 121.665 139.582 120.56 137.234C120.097 136.252 118.642 137.109 119.102 138.087C120.207 140.432 121.89 142.397 122.995 144.744C123.237 144.322 123.48 143.897 123.722 143.474C120.382 143.489 117.617 145.417 114.954 147.217C114.267 147.682 113.577 148.187 112.847 148.584C112.582 148.729 111.532 149.327 111.327 148.912C111.097 148.439 111.767 147.664 112.059 147.369C113.319 146.107 114.824 144.944 116.594 144.547C117.654 144.309 117.204 142.682 116.147 142.919L116.152 142.917Z" fill="#231815"/>
<path d="M121.624 135.442C125.982 133.959 130.342 132.474 134.699 130.992C135.572 130.694 135.467 129.324 134.474 129.334C133.162 129.349 132.172 127.834 131.542 126.871C130.382 125.104 129.494 123.156 128.644 121.224C127.174 117.881 126.082 113.954 123.802 111.049C123.132 110.196 121.944 111.396 122.609 112.241C123.682 113.609 124.334 115.389 125.014 116.969C125.937 119.111 126.804 121.274 127.782 123.391C128.962 125.951 130.987 131.059 134.477 131.022C134.402 130.469 134.327 129.917 134.252 129.364C129.894 130.847 125.534 132.332 121.177 133.814C120.154 134.162 120.594 135.792 121.624 135.442Z" fill="#231815"/>
<path d="M125.342 147.642C130.514 146.152 135.687 144.667 140.857 143.172C144.384 142.152 148.432 140.139 146.869 135.732C146.354 134.279 145.454 133.009 144.929 131.554C144.434 130.181 144.044 128.771 143.669 127.361C142.787 124.024 142.042 120.654 141.129 117.324C140.347 114.464 139.552 111.239 137.674 108.869C136.999 108.019 135.814 109.219 136.482 110.061C137.947 111.909 138.579 114.529 139.214 116.746C140.084 119.776 140.784 122.851 141.552 125.906C142.187 128.431 142.799 131.016 143.857 133.404C144.564 134.999 146.077 136.747 145.364 138.589C144.699 140.307 142.462 140.939 140.877 141.409C135.559 142.982 130.219 144.479 124.892 146.014C123.849 146.314 124.294 147.944 125.339 147.642H125.342Z" fill="#231815"/>
<path d="M103.599 141.116C107.574 137.711 112.774 136.139 117.972 136.651C119.052 136.756 119.044 135.069 117.972 134.964C112.322 134.409 106.709 136.241 102.407 139.924C101.582 140.631 102.779 141.821 103.599 141.116Z" fill="#231815"/>
<path d="M89.609 116.986C88.529 119.649 87.469 122.656 88.734 125.454C89.6815 127.551 91.814 128.684 94.079 128.599C99.5016 128.394 101.724 122.819 101.374 118.101C101.294 117.024 99.6066 117.016 99.6866 118.101C99.9541 121.729 98.6791 126.441 94.4041 126.889C92.4315 127.096 90.6415 126.141 90.0515 124.176C89.369 121.899 90.3915 119.519 91.2365 117.434C91.644 116.429 90.014 115.991 89.609 116.986Z" fill="#231815"/>
<path d="M91.8465 139.134C89.1789 138.779 86.5089 138.351 83.8339 138.069C81.5738 137.831 80.2238 138.629 79.2813 140.669C76.9188 145.779 74.5837 150.902 72.2337 156.017C71.8862 156.774 72.6012 157.579 73.3887 157.172C77.5113 155.037 82.3413 155.939 86.2964 158.007C87.2589 158.509 88.1114 157.054 87.1489 156.549C82.6288 154.187 77.2213 153.289 72.5362 155.714L73.6912 156.869C75.7688 152.347 77.8463 147.824 79.9213 143.301C80.3513 142.366 80.6938 141.159 81.3413 140.349C82.0888 139.414 83.4014 139.699 84.4339 139.834C86.9064 140.156 89.3764 140.494 91.8465 140.824C92.919 140.966 92.909 139.279 91.8465 139.136V139.134Z" fill="#231815"/>
<path d="M92.9314 143.714C90.7039 148.139 88.2214 152.427 85.9939 156.852C85.6264 157.582 86.3864 158.452 87.1489 158.007C91.1014 155.697 95.9265 155.869 100.214 157.087C104.264 158.237 107.732 160.944 109.929 164.519C110.272 165.079 111.037 165.049 111.387 164.519C113.987 160.587 116.587 156.652 119.184 152.719C119.784 151.812 118.324 150.964 117.727 151.867C115.127 155.799 112.527 159.734 109.929 163.667H111.387C108.962 159.722 105.134 156.727 100.664 155.457C95.944 154.114 90.6389 154.009 86.2989 156.547L87.4539 157.702C89.6814 153.277 92.1639 148.989 94.3915 144.564C94.879 143.597 93.424 142.742 92.9339 143.712L92.9314 143.714Z" fill="#231815"/>
<path d="M144.044 141.554C147.217 143.529 150.66 146.257 151.467 150.119C151.895 152.159 151.33 154.189 150.237 155.922C147.462 160.322 142.099 162.947 137.432 164.792C130.272 167.625 122.592 169.16 114.959 170C105.989 170.987 96.8864 171.02 87.9088 170.112C80.1812 169.332 72.4086 167.852 65.1285 165.087C60.3334 163.267 54.8509 160.702 51.8358 156.34C45.2908 146.864 59.5709 139.939 66.5385 137.487C74.0286 134.849 81.9587 133.467 89.8538 132.797C99.0489 132.017 108.372 132.182 117.522 133.402C119.697 133.692 121.862 134.052 124.017 134.474C125.077 134.682 125.532 133.057 124.464 132.847C114.914 130.979 105.119 130.359 95.4014 130.762C86.6438 131.124 77.8162 132.284 69.3986 134.789C63.471 136.552 57.2034 138.989 52.6308 143.299C49.5408 146.209 47.5058 150.379 49.0433 154.607C50.7908 159.415 55.6384 162.552 60.0159 164.705C66.946 168.115 74.6286 169.957 82.2312 171.092C91.6863 172.502 101.321 172.795 110.852 172.07C119.262 171.43 127.734 170.037 135.709 167.232C141.089 165.34 146.98 162.725 150.67 158.19C152.002 156.552 152.995 154.655 153.24 152.534C153.61 149.309 152.072 146.337 149.915 144.042C148.452 142.487 146.705 141.219 144.899 140.094C143.974 139.519 143.127 140.979 144.047 141.552L144.044 141.554Z" fill="#231815"/>
<path d="M151.612 156.655C151.552 161.935 146.27 165.54 142.107 167.755C134.807 171.64 126.43 173.542 118.299 174.692C108.052 176.14 97.5542 176.25 87.2665 175.155C78.6714 174.24 69.8538 172.502 61.9587 168.875C57.1362 166.66 50.2586 162.777 50.1886 156.655C50.1761 155.57 48.4885 155.567 48.501 156.655C48.5635 162.242 53.5186 166.217 57.9662 168.732C65.5188 173.005 74.3289 175.067 82.8465 176.287C93.5966 177.83 104.594 177.972 115.384 176.747C124.252 175.74 133.285 173.89 141.38 170.007C146.625 167.492 153.225 163.2 153.297 156.655C153.31 155.57 151.622 155.567 151.61 156.655H151.612Z" fill="#231815"/>
<path d="M80.4388 63.8207C80.7213 63.9057 80.5913 63.7807 80.2962 63.4507C80.0187 63.1407 79.6962 62.8632 79.3562 62.6282C78.6287 62.1232 77.7862 61.8082 76.9112 61.6882C75.4637 61.4882 73.9987 61.8932 72.8637 62.8132C70.8961 64.4057 70.5036 67.2958 71.6711 69.4833C72.9787 71.9333 76.0687 72.9458 78.5812 71.7383C81.4063 70.3808 82.4288 66.9132 80.9438 64.2082C80.4212 63.2557 78.9637 64.1057 79.4862 65.0607C80.5963 67.0858 79.6137 69.7083 77.3662 70.4133C75.5187 70.9933 73.5837 69.9658 72.9312 68.1783C72.3687 66.6432 72.8137 64.8307 74.2087 63.9107C75.2512 63.2232 76.5512 63.1507 77.6937 63.6332C78.3412 63.9057 78.7962 64.3032 79.2437 64.8357C79.4937 65.1307 79.6162 65.3332 79.9912 65.4482C81.0313 65.7657 81.4788 64.1357 80.4388 63.8207Z" fill="#231815"/>
<path d="M70.7589 65.1382C62.8288 63.5007 56.2113 57.0756 54.7787 49.0255C53.2337 40.3554 58.4588 31.7878 65.2064 26.7627C72.7465 21.1427 82.4666 19.0151 91.7317 19.0926C101.139 19.1726 110.629 21.5852 117.197 28.7053C124.412 36.5254 125.517 48.0305 119.807 57.0431C119.225 57.9631 120.685 58.8106 121.265 57.8956C126.555 49.543 126.502 38.7279 120.842 30.5728C115.089 22.2827 105.707 18.3951 95.9042 17.5951C85.8066 16.7701 75.004 18.4601 66.3364 23.9452C58.6613 28.8028 52.5262 37.3054 52.8512 46.7005C53.1862 56.4306 60.9188 64.8282 70.3114 66.7682C71.3714 66.9882 71.8239 65.3607 70.7589 65.1407V65.1382Z" fill="#231815"/>
<path d="M83.6436 68.7333C88.2236 69.6058 92.8712 69.7858 97.5037 69.2208C98.5687 69.0908 98.5812 67.4033 97.5037 67.5333C93.0262 68.0783 88.5236 67.9508 84.0936 67.1058C83.0335 66.9033 82.5785 68.5308 83.646 68.7333H83.6436Z" fill="#231815"/>
<path d="M91.6116 77.7111C91.5016 75.381 89.7341 73.416 87.3165 73.416C84.899 73.416 83.0215 75.376 83.0215 77.7111C83.0215 80.0461 84.9815 82.0061 87.3165 82.0061C89.6516 82.0061 91.5016 80.0436 91.6116 77.7111C91.6641 76.6261 89.9766 76.6286 89.9241 77.7111C89.7666 81.0486 84.719 81.0836 84.709 77.7111C84.699 74.3435 89.7641 74.371 89.9241 77.7111C89.9766 78.7911 91.6641 78.7986 91.6116 77.7111Z" fill="#231815"/>
<path d="M83.2464 143.584C84.0639 143.679 84.8814 143.774 85.6989 143.869C86.1514 143.922 86.5439 143.444 86.5439 143.024C86.5439 142.524 86.1539 142.234 85.6989 142.179C84.8814 142.084 84.0639 141.989 83.2464 141.894C82.7939 141.842 82.4014 142.319 82.4014 142.739C82.4014 143.239 82.7914 143.529 83.2464 143.584Z" fill="#231815"/>
<path d="M88.4214 142.379L88.2914 142.694C88.2564 142.807 88.2514 142.919 88.2764 143.032C88.2814 143.144 88.3139 143.249 88.3764 143.344C88.4789 143.519 88.6789 143.687 88.8814 143.732C89.0964 143.782 89.3389 143.769 89.5314 143.647L89.7014 143.514C89.8064 143.409 89.8789 143.284 89.9189 143.142C89.9614 143.037 90.0064 142.932 90.0489 142.827C90.0839 142.714 90.0889 142.602 90.0639 142.489C90.0589 142.377 90.0264 142.272 89.9639 142.177C89.8614 142.002 89.6614 141.834 89.4589 141.789C89.2439 141.739 89.0014 141.752 88.8089 141.874L88.6389 142.007C88.5339 142.112 88.4614 142.237 88.4214 142.379Z" fill="#231815"/>
<path d="M81.111 148.279C81.781 147.857 82.4485 147.994 82.951 148.584C83.2835 148.974 84.056 148.884 84.276 148.414C84.4985 147.762 84.8785 147.742 85.4235 148.349C85.6311 148.744 86.2036 148.884 86.5786 148.652L86.2611 148.299C85.4285 148.999 86.6286 150.187 87.4536 149.492C88.8811 148.292 87.2886 146.219 85.726 147.194C86.1111 147.294 86.4961 147.397 86.8811 147.497C85.9836 145.797 83.6485 145.784 82.821 147.562C83.2635 147.504 83.7035 147.447 84.146 147.392C83.1635 146.234 81.536 146.017 80.261 146.822C79.346 147.399 80.191 148.862 81.1135 148.279H81.111Z" fill="#231815"/>
<path d="M95.4394 152.412C95.9069 151.514 96.7869 151.657 97.1594 152.532C97.3269 152.924 97.9794 153.079 98.3144 152.834C99.6144 151.882 101.304 151.967 102.442 153.139C102.782 153.492 103.284 153.424 103.634 153.139C104.669 152.299 106.052 152.712 106.492 153.939C106.75 154.657 107.6 154.737 108.035 154.142C108.627 153.324 109.625 153.797 109.657 154.692C109.695 155.774 111.382 155.779 111.345 154.692C111.252 152.009 108.117 151.169 106.58 153.289C107.095 153.357 107.607 153.424 108.122 153.492C107.232 151.002 104.479 150.297 102.444 151.949H103.637C102.017 150.277 99.3619 149.992 97.4644 151.379C97.8494 151.479 98.2344 151.582 98.6194 151.682C97.7394 149.622 94.9969 149.617 93.9869 151.562C93.4869 152.524 94.9419 153.379 95.4444 152.414L95.4394 152.412Z" fill="#231815"/>
<path d="M96.874 148.799H97.639C98.0815 148.799 98.504 148.412 98.484 147.954C98.464 147.497 98.114 147.109 97.639 147.109H96.874C96.4315 147.109 96.009 147.497 96.029 147.954C96.049 148.412 96.399 148.799 96.874 148.799Z" fill="#231815"/>
<path d="M75.2715 159.519C77.744 158.137 80.6415 157.627 83.4341 158.157C84.0191 158.267 84.5941 158.424 85.1541 158.619C85.6716 158.797 86.2166 159.187 86.7741 159.162C87.4191 159.132 88.2116 158.752 88.8516 158.617C89.6642 158.444 90.4867 158.329 91.3142 158.274C97.1768 157.887 102.757 160.382 106.514 164.862C107.212 165.695 108.402 164.497 107.707 163.669C102.532 157.494 94.1117 155.087 86.4366 157.519L87.0866 157.604C83.0116 155.724 78.344 155.869 74.4165 158.064C73.469 158.594 74.319 160.052 75.269 159.522L75.2715 159.519Z" fill="#231815"/>
<path d="M79.0237 160.499C80.9562 159.317 83.2962 158.957 85.4738 159.647C85.9138 159.787 86.3238 160.044 86.7838 160.104C87.3038 160.174 87.8888 160.079 88.4163 160.094C89.6338 160.129 90.8463 160.257 92.0413 160.484C96.5389 161.337 100.711 163.434 104.069 166.544C104.401 166.852 104.931 166.879 105.261 166.544C105.734 166.067 106.204 165.592 106.677 165.114C107.442 164.342 106.249 163.147 105.484 163.922C105.011 164.399 104.541 164.874 104.069 165.352H105.261C101.551 161.914 96.8864 159.572 91.8863 158.752C90.7388 158.564 89.5788 158.442 88.4138 158.409C87.8163 158.392 87.2213 158.457 86.6513 158.289C86.0813 158.122 85.5612 157.899 84.9787 157.789C82.6162 157.344 80.2187 157.792 78.1712 159.044C77.2461 159.609 78.0937 161.069 79.0237 160.502V160.499Z" fill="#231815"/>
<path d="M109.316 166.507C109.779 166.01 110.239 165.51 110.701 165.012C111.011 164.677 111.031 164.15 110.701 163.82C110.389 163.507 109.819 163.485 109.509 163.82C109.046 164.317 108.586 164.817 108.124 165.315C107.814 165.65 107.794 166.177 108.124 166.507C108.436 166.82 109.006 166.842 109.316 166.507Z" fill="#231815"/>
</svg>
