<svg width="200" height="201" viewBox="0 0 200 201" fill="none" xmlns="http://www.w3.org/2000/svg">
<path d="M123.643 146.316C123.643 146.316 121.508 147.136 119.195 146.701C116.88 146.263 114.563 146.166 114.563 146.166C114.563 146.166 112.365 145.341 112.613 141.211L101.845 135.501L99.5999 118.565L42.5842 94.7002L42.5117 95.8927L47.5693 133.383L102.49 157.373L103.337 160.444L125.47 153.328L125.75 148.671L123.645 146.316H123.643Z" fill="#DCDDDD"/>
<path d="M24.8848 65.4897V86.005H48.4976L55.5327 94.7001L55.0051 86.005H59.6752H61.4252L24.8848 65.4897Z" fill="#E8D575"/>
<path d="M55.2871 62.4923V57.8223H77.9249V74.5175H73.0373L67.6773 87.9626V77.7725H65.0497V62.6323L55.2871 62.4923Z" fill="#E8D575"/>
<path d="M127.562 64.4275C122.847 62.3999 117.677 61.7699 117.107 56.1648C117.092 56.0298 117.079 55.9023 117.067 55.7773C116.539 56.8474 110.714 68.1325 101.799 64.27C92.4441 60.2174 95.4066 57.4099 95.4066 57.4099C95.4066 57.4099 91.664 57.5649 90.729 60.9949C89.794 64.425 96.5316 69.5825 96.5316 69.5825C96.5316 69.5825 88.234 72.22 89.1715 78.1426C90.1065 84.0677 99.2991 83.6002 99.2991 83.6002C99.2991 83.6002 96.7341 91.0728 103.492 91.7078C110.249 92.3428 112.402 85.6277 112.402 85.6277C112.402 85.6277 112.132 87.8902 116.767 88.2778C121.402 88.6653 120.977 83.6002 120.977 83.6002C120.977 83.6002 125.029 86.0952 127.992 84.3802C130.955 82.6652 127.992 79.3926 127.992 79.3926C127.992 79.3926 129.362 79.3926 130.86 77.2101C132.357 75.0276 132.28 66.4525 127.564 64.4275H127.562Z" fill="#DCDDDD"/>
<path d="M132.794 140.213C132.012 142.128 130.319 143.226 128.539 144.116C127.759 144.506 126.939 144.981 126.087 145.178C125.767 145.266 125.442 145.283 125.114 145.231L124.827 144.368C125.007 143.938 126.154 143.576 126.529 143.423C127.522 143.018 127.087 141.386 126.082 141.796C124.704 142.356 122.739 143.206 122.907 145.036C123.042 146.521 124.634 147.053 125.919 146.916C127.634 146.731 129.469 145.646 130.904 144.746C132.512 143.738 133.704 142.423 134.424 140.663C134.834 139.658 133.204 139.221 132.797 140.216L132.794 140.213Z" fill="#231815"/>
<path d="M122.953 144.866C122.591 145.761 121.503 147.313 120.433 146.143C119.816 145.466 120.253 144.301 120.641 143.593C121.481 142.061 123.011 141.068 124.633 140.53C125.658 140.19 125.221 138.56 124.186 138.903C121.393 139.828 118.098 142.391 118.468 145.718C118.621 147.093 119.781 148.178 121.178 148.208C122.991 148.246 123.978 146.811 124.581 145.313C124.988 144.306 123.356 143.868 122.953 144.866Z" fill="#231815"/>
<path d="M119.271 145.773C116.484 146.821 116.179 143.156 117.026 141.466C117.996 139.528 120.049 138.5 122.076 138.055C123.136 137.823 122.689 136.195 121.629 136.428C118.504 137.113 115.409 139.23 114.916 142.608C114.509 145.403 116.581 148.581 119.719 147.401C120.726 147.023 120.289 145.391 119.271 145.773Z" fill="#231815"/>
<path d="M115.787 145.05C114.15 144.863 113.19 143.278 113.447 141.718C113.692 140.23 114.837 139.148 116.117 138.478C117.08 137.975 116.227 136.518 115.265 137.02C113.272 138.063 111.642 140.05 111.717 142.403C111.79 144.738 113.515 146.475 115.787 146.738C116.865 146.86 116.855 145.173 115.787 145.05Z" fill="#231815"/>
<path d="M104.335 157.811C103.197 146.343 102.06 134.873 100.922 123.405C100.762 121.793 100.602 120.18 100.442 118.568C100.4 118.15 100.2 117.913 99.822 117.755C93.382 115.06 86.9419 112.363 80.5018 109.668C70.2842 105.39 60.069 101.115 49.8514 96.8376C47.5039 95.8551 45.1539 94.8726 42.8063 93.8876C42.3363 93.6901 41.6738 94.1951 41.7388 94.7001C42.5813 101.23 43.4213 107.758 44.2638 114.288C44.8339 118.715 45.4039 123.14 45.9764 127.568C46.1614 129.001 46.3464 130.433 46.5314 131.866C46.6014 132.403 46.5639 133.203 46.7989 133.708C47.0164 134.171 47.5739 134.298 48.0064 134.488L50.7114 135.671C53.9315 137.078 57.1515 138.483 60.3716 139.891C69.0317 143.673 77.6943 147.458 86.3544 151.241C91.8319 153.633 97.272 156.173 102.81 158.428C102.895 158.463 102.98 158.503 103.065 158.541C104.05 158.971 104.91 157.518 103.917 157.083C97.632 154.338 91.3469 151.593 85.0619 148.846C75.0042 144.451 64.9441 140.058 54.8865 135.663C52.589 134.661 50.2914 133.656 47.9939 132.653L48.4114 133.381C46.9564 122.1 45.5039 110.823 44.0488 99.5427C43.8413 97.9276 43.6338 96.3126 43.4238 94.7001L42.3563 95.5126C48.7964 98.2076 55.2365 100.905 61.6766 103.6C71.8942 107.878 82.1093 112.153 92.3269 116.43C94.6745 117.413 97.0245 118.395 99.372 119.38L98.752 118.568C99.8895 130.036 101.027 141.506 102.165 152.973C102.325 154.586 102.485 156.198 102.645 157.811C102.75 158.881 104.44 158.893 104.332 157.811H104.335Z" fill="#231815"/>
<path d="M138.393 143.118C138.521 144.263 140.246 144.783 141.128 145.183C143.138 146.098 145.196 146.923 147.248 147.738C150.379 148.981 153.529 150.183 156.686 151.351C157.706 151.728 158.146 150.098 157.134 149.723C154.364 148.701 151.606 147.648 148.858 146.568C146.876 145.791 144.893 145.003 142.941 144.153C142.228 143.843 141.518 143.528 140.826 143.178C140.591 143.058 140.353 142.883 140.111 142.788C139.736 142.643 140.008 142.471 140.078 143.116C139.961 142.048 138.271 142.036 138.391 143.116L138.393 143.118Z" fill="#231815"/>
<path d="M123.827 134.806C126.17 134.398 129.11 135.298 130.957 137.063C131.742 137.813 132.937 136.621 132.15 135.871C129.855 133.681 126.522 132.636 123.377 133.181C122.31 133.366 122.762 134.993 123.825 134.808L123.827 134.806Z" fill="#231815"/>
<path d="M125.543 147.578C119.643 149.701 113.743 151.826 107.845 153.948C106.985 154.258 106.128 154.566 105.268 154.876C104.253 155.241 104.69 156.873 105.715 156.503C111.615 154.381 117.515 152.256 123.413 150.133C124.273 149.823 125.13 149.516 125.99 149.206C127.005 148.841 126.568 147.208 125.543 147.578Z" fill="#231815"/>
<path d="M125.245 152.513C118.5 155.006 111.775 157.558 104.917 159.726C103.885 160.053 104.327 161.681 105.365 161.353C112.223 159.186 118.948 156.633 125.693 154.141C126.703 153.768 126.265 152.136 125.245 152.513Z" fill="#231815"/>
<path d="M102.684 147.808C104.784 148.758 106.894 149.688 108.976 150.678C109.951 151.141 110.809 149.688 109.829 149.221C107.746 148.231 105.639 147.301 103.536 146.351C102.554 145.908 101.696 147.361 102.684 147.808Z" fill="#231815"/>
<path d="M103.457 152.136C104.872 153.093 106.735 152.226 108.162 151.746C110.315 151.026 112.432 150.216 114.63 149.641C115.68 149.366 115.235 147.738 114.182 148.013C112.43 148.471 110.727 149.073 109.02 149.671C108.145 149.976 107.267 150.271 106.382 150.551C105.73 150.758 104.94 151.106 104.31 150.678C103.407 150.068 102.562 151.528 103.457 152.136Z" fill="#231815"/>
<path d="M113.842 147.471C110.34 145.863 106.822 144.296 103.307 142.716C102.324 142.273 101.464 143.728 102.454 144.173C105.967 145.753 109.487 147.321 112.99 148.928C113.97 149.378 114.827 147.923 113.842 147.471Z" fill="#231815"/>
<path d="M102.4 138.278C102.987 138.543 103.575 138.811 104.16 139.081C104.575 139.271 105.067 139.198 105.315 138.778C105.527 138.416 105.427 137.816 105.012 137.623C104.427 137.353 103.84 137.086 103.252 136.821C102.837 136.633 102.345 136.701 102.097 137.123C101.885 137.486 101.982 138.088 102.4 138.278Z" fill="#231815"/>
<path d="M90.321 111.53C94.086 105.845 99.2536 101.085 104.214 96.4651C105.011 95.7226 103.814 94.5326 103.021 95.2726C97.9486 99.9951 92.711 104.868 88.8634 110.678C88.2609 111.585 89.7235 112.433 90.321 111.53Z" fill="#231815"/>
<path d="M126.031 89.8327C136.269 98.8278 142.667 111.933 140.362 125.731C139.722 129.563 138.477 133.261 136.764 136.743C136.287 137.713 137.742 138.571 138.222 137.596C141.322 131.288 142.947 124.303 142.427 117.26C141.922 110.43 139.512 103.858 135.699 98.1828C133.314 94.6352 130.434 91.4577 127.224 88.6376C126.411 87.9226 125.214 89.1126 126.031 89.8302V89.8327Z" fill="#231815"/>
<path d="M128.56 132.966C128.105 129.011 128.573 124.876 129.418 121.005C130.21 117.378 131.443 112.72 134.58 110.368C135.438 109.723 134.598 108.258 133.728 108.91C130.345 111.448 128.863 115.968 127.935 119.923C126.95 124.121 126.378 128.661 126.873 132.966C126.995 134.033 128.685 134.043 128.56 132.966Z" fill="#231815"/>
<path d="M109.523 91.9173C107.698 94.4898 104.16 95.7148 101.155 94.6523C98.1502 93.5898 96.2077 90.4273 96.3577 87.2647C96.3777 86.8422 95.9527 86.3772 95.5127 86.4197C91.5176 86.8197 87.4526 84.2072 86.5051 80.2221C85.5875 76.3646 87.8976 72.302 91.4526 70.762C92.0876 70.487 91.9101 69.6245 91.4526 69.3045C88.7926 67.442 87.4351 63.8869 88.3426 60.7369C89.2526 57.5743 92.2726 55.2943 95.5252 55.1168C96.6052 55.0568 96.6127 53.3693 95.5252 53.4293C91.5251 53.6493 87.8301 56.3793 86.7151 60.2894C85.6 64.1994 87.3201 68.4645 90.6026 70.7645V69.307C86.3451 71.1545 83.8025 76.1396 84.88 80.6746C85.9875 85.3297 90.8076 88.5822 95.5152 88.1122L94.6702 87.2672C94.4852 91.1823 96.9702 94.9998 100.705 96.2823C104.44 97.5648 108.72 95.9573 110.978 92.7723C111.608 91.8848 110.145 91.0398 109.52 91.9198L109.523 91.9173Z" fill="#231815"/>
<path d="M100.272 57.5321C99.5796 53.5421 101.987 49.172 105.855 47.8195C109.585 46.517 113.975 48.1195 116.092 51.4145C116.407 51.907 116.987 51.937 117.417 51.5845C119.965 49.5045 123.895 49.3245 126.545 51.327C129.092 53.2496 130.025 56.7371 129.042 59.7196C128.86 60.2747 129.34 60.7522 129.855 60.7872C134.68 61.1197 137.49 65.9997 135.713 70.3973C135.305 71.4048 136.938 71.8423 137.34 70.8448C139.558 65.3522 135.668 59.4971 129.855 59.0971L130.667 60.1647C131.895 56.4371 130.55 52.122 127.345 49.8245C124.14 47.527 119.332 47.8495 116.222 50.387L117.547 50.557C114.967 46.5395 109.615 44.5695 105.087 46.302C100.462 48.072 97.8096 53.1721 98.6421 57.9746C98.8271 59.0421 100.455 58.5896 100.27 57.5271L100.272 57.5321Z" fill="#231815"/>
<path d="M133.868 73.4825C137.278 75.8175 135.81 81.1301 131.69 81.3976C131.09 81.4376 130.59 82.0976 130.963 82.6676C132.295 84.7051 130.875 86.9901 128.87 87.8552C126.565 88.8502 123.988 88.3252 121.625 87.8552C121.14 87.7577 120.498 88.0827 120.558 88.6677C120.73 90.3977 119.22 91.7527 117.533 90.9252C116.56 90.4502 115.705 91.9052 116.68 92.3827C119.395 93.7127 122.558 91.7977 122.245 88.6677L121.178 89.4802C124.345 90.1102 127.935 90.7077 130.77 88.7227C132.968 87.1851 133.958 84.1651 132.42 81.8126L131.693 83.0826C134.265 82.9151 136.615 81.2251 137.32 78.6825C138.025 76.14 136.843 73.475 134.72 72.0225C133.823 71.4075 132.978 72.87 133.868 73.48V73.4825Z" fill="#231815"/>
<path d="M97.5164 71.2349C97.0363 70.9699 99.2689 70.4524 99.3239 70.4474C99.9664 70.4024 100.649 70.4174 101.266 70.6174C101.926 70.8299 102.561 71.2824 102.521 72.0399C102.464 73.1149 101.261 73.3924 100.391 73.3399C99.9564 73.3149 99.5189 73.7474 99.5464 74.185C99.6389 75.6125 99.7314 77.04 99.8239 78.4675C99.8939 79.545 101.581 79.5525 101.511 78.4675C101.419 77.04 101.326 75.6125 101.234 74.185L100.389 75.03C102.079 75.1325 103.899 74.2375 104.196 72.4324C104.471 70.7599 103.219 69.4549 101.711 68.9949C100.204 68.5349 97.9314 68.5849 96.5913 69.5249C95.4388 70.3349 95.3788 71.9949 96.6588 72.6974C97.6114 73.2199 98.4639 71.7624 97.5114 71.2399L97.5164 71.2349Z" fill="#231815"/>
<path d="M101.123 82.6348C101.138 82.6348 101.155 82.6348 101.17 82.6373L100.945 82.6073C100.968 82.6123 100.988 82.6173 101.008 82.6223L100.805 82.5373C100.83 82.5473 100.853 82.5623 100.875 82.5773L100.705 82.4448C100.72 82.4573 100.733 82.4723 100.745 82.4873L100.613 82.3173C100.628 82.3398 100.64 82.3598 100.653 82.3848L100.568 82.1823C100.578 82.2073 100.585 82.2323 100.59 82.2598L100.56 82.0348C100.565 82.0673 100.565 82.0998 100.56 82.1348L100.59 81.9098C100.585 81.9423 100.578 81.9748 100.565 82.0048L100.65 81.8023C100.638 81.8273 100.625 81.8473 100.61 81.8673L100.743 81.6973C100.73 81.7123 100.715 81.7248 100.7 81.7373L100.87 81.6048C100.853 81.6173 100.838 81.6273 100.818 81.6348L101.02 81.5498C101 81.5573 100.98 81.5623 100.958 81.5673L101.183 81.5373C101.15 81.5423 101.12 81.5423 101.088 81.5373L101.313 81.5673C101.29 81.5623 101.27 81.5573 101.25 81.5523L101.453 81.6373C101.428 81.6273 101.405 81.6123 101.383 81.5973L101.553 81.7298C101.538 81.7173 101.525 81.7023 101.513 81.6873L101.645 81.8573C101.63 81.8348 101.618 81.8148 101.605 81.7898L101.69 81.9923C101.68 81.9673 101.673 81.9423 101.668 81.9148L101.698 82.1398C101.693 82.1073 101.693 82.0748 101.698 82.0398L101.668 82.2648C101.673 82.2323 101.68 82.1998 101.693 82.1698L101.608 82.3723C101.62 82.3473 101.633 82.3273 101.648 82.3073L101.515 82.4773C101.528 82.4623 101.543 82.4498 101.558 82.4373L101.388 82.5698C101.405 82.5573 101.42 82.5473 101.44 82.5398L101.238 82.6248C101.258 82.6173 101.278 82.6123 101.3 82.6073L101.075 82.6373C101.09 82.6348 101.108 82.6323 101.123 82.6323C101.563 82.6098 101.988 82.2598 101.968 81.7873C101.948 81.3498 101.595 80.9198 101.123 80.9423C100.773 80.9598 100.473 81.0897 100.258 81.3673C100.093 81.5823 100.005 81.8273 100.008 82.0998C100.013 82.7148 100.515 83.2323 101.135 83.2298C101.755 83.2273 102.265 82.7073 102.25 82.0923C102.235 81.4773 101.765 80.9573 101.123 80.9423C100.68 80.9323 100.258 81.3373 100.278 81.7873C100.298 82.2373 100.648 82.6223 101.123 82.6323V82.6348Z" fill="#231815"/>
<path d="M112.343 71.2349C111.863 70.9699 114.095 70.4524 114.15 70.4474C114.793 70.4024 115.475 70.4174 116.093 70.6174C116.753 70.8299 117.388 71.2824 117.348 72.0399C117.29 73.1149 116.088 73.3924 115.218 73.3399C114.783 73.3149 114.345 73.7474 114.373 74.185C114.465 75.6125 114.558 77.04 114.65 78.4675C114.72 79.545 116.408 79.5525 116.338 78.4675C116.245 77.04 116.153 75.6125 116.06 74.185L115.215 75.03C116.905 75.1325 118.725 74.2375 119.023 72.4324C119.298 70.7599 118.045 69.4549 116.538 68.9949C115.03 68.5349 112.758 68.5849 111.418 69.5249C110.265 70.3349 110.205 71.9949 111.485 72.6974C112.438 73.2199 113.29 71.7624 112.338 71.2399L112.343 71.2349Z" fill="#231815"/>
<path d="M115.947 82.6348C115.962 82.6348 115.98 82.6348 115.995 82.6373L115.77 82.6073C115.792 82.6123 115.812 82.6173 115.832 82.6223L115.63 82.5373C115.655 82.5473 115.677 82.5623 115.7 82.5773L115.53 82.4448C115.545 82.4573 115.557 82.4723 115.57 82.4873L115.437 82.3173C115.452 82.3398 115.465 82.3598 115.477 82.3848L115.392 82.1823C115.402 82.2073 115.41 82.2323 115.415 82.2598L115.385 82.0348C115.39 82.0673 115.39 82.0998 115.385 82.1348L115.415 81.9098C115.41 81.9423 115.402 81.9748 115.39 82.0048L115.475 81.8023C115.462 81.8273 115.45 81.8473 115.435 81.8673L115.567 81.6973C115.555 81.7123 115.54 81.7248 115.525 81.7373L115.695 81.6048C115.677 81.6173 115.662 81.6273 115.642 81.6348L115.845 81.5498C115.825 81.5573 115.805 81.5623 115.782 81.5673L116.007 81.5373C115.975 81.5423 115.945 81.5423 115.912 81.5373L116.137 81.5673C116.115 81.5623 116.095 81.5573 116.075 81.5523L116.277 81.6373C116.252 81.6273 116.23 81.6123 116.207 81.5973L116.377 81.7298C116.362 81.7173 116.35 81.7023 116.337 81.6873L116.47 81.8573C116.455 81.8348 116.442 81.8148 116.43 81.7898L116.515 81.9923C116.505 81.9673 116.497 81.9423 116.492 81.9148L116.522 82.1398C116.517 82.1073 116.517 82.0748 116.522 82.0398L116.492 82.2648C116.497 82.2323 116.505 82.1998 116.517 82.1698L116.432 82.3723C116.445 82.3473 116.457 82.3273 116.472 82.3073L116.34 82.4773C116.352 82.4623 116.367 82.4498 116.382 82.4373L116.212 82.5698C116.23 82.5573 116.245 82.5473 116.265 82.5398L116.062 82.6248C116.082 82.6173 116.102 82.6123 116.125 82.6073L115.9 82.6373C115.915 82.6348 115.932 82.6323 115.947 82.6323C116.387 82.6098 116.812 82.2598 116.792 81.7873C116.772 81.3498 116.42 80.9198 115.947 80.9423C115.597 80.9598 115.297 81.0897 115.082 81.3673C114.917 81.5823 114.83 81.8273 114.832 82.0998C114.837 82.7148 115.34 83.2323 115.96 83.2298C116.58 83.2273 117.09 82.7073 117.075 82.0923C117.06 81.4773 116.59 80.9573 115.947 80.9423C115.505 80.9323 115.082 81.3373 115.102 81.7873C115.122 82.2373 115.472 82.6223 115.947 82.6323V82.6348Z" fill="#231815"/>
<path d="M108.429 95.3123C111.952 97.1173 117.244 96.9298 118.792 92.6423C119.162 91.6197 117.532 91.1772 117.164 92.1948C116.017 95.3798 111.747 95.1173 109.282 93.8548C108.317 93.3598 107.462 94.8173 108.429 95.3123Z" fill="#231815"/>
<path d="M61.4265 64.6445H24.886C24.431 64.6445 24.041 65.032 24.041 65.4895V86.0048C24.041 86.4598 24.4285 86.8498 24.886 86.8498H42.8137C44.3638 86.8498 46.0513 86.6623 47.5913 86.8498C47.6713 86.8598 47.8888 86.8048 47.9588 86.8498C47.2813 86.4023 47.8988 87.3648 47.8488 87.1523C47.9163 87.4423 48.4313 87.8223 48.6438 88.0673C49.1213 88.6148 49.5988 89.1648 50.0763 89.7123C52.0389 91.9674 54.0014 94.2224 55.9639 96.4799C56.5464 97.1499 57.5539 96.4274 57.3739 95.6599C56.6064 92.3674 55.8414 89.0748 55.0739 85.7848L54.2614 86.8523H61.4265C61.8815 86.8523 62.2715 86.4648 62.2715 86.0073V65.492C62.2715 64.407 60.584 64.4045 60.584 65.492V86.0073L61.429 85.1623H54.2639C53.6989 85.1623 53.3264 85.6998 53.4514 86.2298C54.2189 89.5223 54.9839 92.8149 55.7514 96.1049L57.1614 95.2849C55.4114 93.2724 53.6614 91.2624 51.9089 89.2498C51.0589 88.2748 50.2113 87.2998 49.3613 86.3248C48.9238 85.8198 48.6163 85.2748 47.9363 85.1623C46.7363 84.9648 45.3388 85.1623 44.1263 85.1623H24.886L25.731 86.0073V65.492L24.886 66.337H61.429C62.514 66.337 62.5165 64.6495 61.429 64.6495L61.4265 64.6445Z" fill="#231815"/>
<path d="M68.3246 76.7925H64.217C63.132 76.7925 63.1295 78.48 64.217 78.48H68.3246C69.4096 78.48 69.4121 76.7925 68.3246 76.7925Z" fill="#231815"/>
<path d="M52.2291 62.2947V55.3221L51.3841 56.1671H80.6744L79.8294 55.3221V77.6374L80.6744 76.7924H74.8394C73.7544 76.7924 73.7519 78.4799 74.8394 78.4799H80.6744C81.1294 78.4799 81.5195 78.0924 81.5195 77.6349V55.3196C81.5195 54.8646 81.1319 54.4746 80.6744 54.4746H51.3841C50.9291 54.4746 50.5391 54.8621 50.5391 55.3196V62.2922C50.5391 63.3772 52.2266 63.3797 52.2266 62.2922L52.2291 62.2947Z" fill="#231815"/>
<path d="M67.482 77.6373C67.0745 84.1449 66.6669 90.65 66.2594 97.1576C66.2069 98.0001 67.4395 98.2976 67.832 97.5826C71.242 91.355 73.872 84.7349 75.6546 77.8598C75.9271 76.8073 74.2995 76.3598 74.027 77.4123C72.2795 84.1499 69.717 90.625 66.3744 96.7301L67.947 97.1551C68.3545 90.6475 68.762 84.1424 69.1695 77.6348C69.237 76.5498 67.5495 76.5548 67.482 77.6348V77.6373Z" fill="#231815"/>
<path d="M105.858 97.2048C111.883 100.977 119.983 100.727 125.736 96.5348C126.606 95.9023 125.763 94.4373 124.883 95.0773C119.588 98.9374 112.27 99.2299 106.71 95.7473C105.788 95.1698 104.94 96.6298 105.858 97.2048Z" fill="#231815"/>
<path d="M129.725 29.6967C130.693 26.2342 134.978 27.3492 136.955 29.1042C138.015 30.0467 139.398 31.9542 137.835 33.1093C136.473 34.1168 134.608 33.3768 133.195 32.8718C132.775 32.7218 132.26 33.0443 132.158 33.4618C131.785 34.9893 131.413 36.5193 131.04 38.0468C130.783 39.1018 132.41 39.5518 132.668 38.4943C133.04 36.9668 133.413 35.4368 133.785 33.9093L132.748 34.4993C134.825 35.2418 137.423 35.8968 139.225 34.1668C141.028 32.4368 140.14 30.0417 138.718 28.4717C137.173 26.7692 134.768 25.4617 132.418 25.7292C130.405 25.9592 128.65 27.2717 128.098 29.2492C127.805 30.2967 129.433 30.7442 129.725 29.6967Z" fill="#231815"/>
<path d="M130.362 43.4194C130.362 43.4194 130.39 43.3994 130.405 43.3944L130.202 43.4794L130.225 43.4744L130 43.5044H130.022C129.947 43.4944 129.872 43.4844 129.797 43.4744C129.812 43.4744 129.827 43.4794 129.842 43.4869L129.64 43.4019C129.655 43.4094 129.67 43.4169 129.682 43.4269L129.512 43.2944C129.525 43.3044 129.537 43.3169 129.55 43.3294L129.417 43.1594C129.427 43.1719 129.437 43.1869 129.445 43.2019L129.36 42.9994C129.367 43.0144 129.372 43.0294 129.372 43.0444L129.342 42.8194V42.8419C129.352 42.7669 129.362 42.6919 129.372 42.6169C129.372 42.6319 129.367 42.6469 129.36 42.6619L129.445 42.4594L129.43 42.4794L129.562 42.3094L129.545 42.3269L129.715 42.1944L129.695 42.2069L129.897 42.1219C129.882 42.1294 129.867 42.1319 129.852 42.1319L130.077 42.1019H130.055C130.13 42.1119 130.205 42.1219 130.28 42.1319C130.265 42.1319 130.247 42.1269 130.232 42.1194L130.435 42.2044C130.42 42.1969 130.405 42.1894 130.39 42.1794L130.56 42.3119C130.547 42.3019 130.535 42.2919 130.522 42.2769L130.655 42.4469C130.655 42.4469 130.635 42.4219 130.627 42.4069L130.712 42.6094C130.705 42.5944 130.702 42.5794 130.7 42.5644L130.73 42.7894V42.7669C130.72 42.8419 130.71 42.9169 130.7 42.9919L130.705 42.9694L130.62 43.1719L130.63 43.1494L129.677 43.5369C129.852 43.5819 130.027 43.6294 130.2 43.6744L129.827 43.4569C129.842 43.4669 129.857 43.4819 129.87 43.4969L129.737 43.3269C129.755 43.3519 129.767 43.3719 129.78 43.4019L129.695 43.1994C129.702 43.2169 129.707 43.2369 129.71 43.2544L129.68 43.0294C129.685 43.0594 129.685 43.0869 129.682 43.1169L129.712 42.8919C129.707 42.9219 129.702 42.9469 129.692 42.9769L129.777 42.7744C129.765 42.8019 129.752 42.8244 129.732 42.8469L129.865 42.6769C129.852 42.6919 129.837 42.7044 129.822 42.7169L129.992 42.5844C129.975 42.5969 129.957 42.6044 129.94 42.6119L130.142 42.5269C130.122 42.5344 130.105 42.5394 130.082 42.5419L130.307 42.5119C130.287 42.5119 130.267 42.5119 130.247 42.5119L130.472 42.5419C130.44 42.5369 130.415 42.5294 130.385 42.5169L130.587 42.6019C130.567 42.5944 130.55 42.5819 130.535 42.5719L130.705 42.7044C130.68 42.6844 130.66 42.6644 130.637 42.6419L130.77 42.8119C130.757 42.7969 130.747 42.7794 130.74 42.7594L130.825 42.9619C130.817 42.9444 130.81 42.9244 130.807 42.9044L130.837 43.1294V43.0994C130.81 42.8694 130.755 42.6719 130.587 42.5019C130.44 42.3544 130.2 42.2444 129.99 42.2544C129.78 42.2644 129.545 42.3369 129.392 42.5019C129.25 42.6569 129.122 42.8794 129.145 43.0994C129.175 43.3869 129.25 43.6169 129.445 43.8369C129.577 43.9869 129.772 44.1019 129.965 44.1594C130.44 44.2994 130.965 44.0969 131.217 43.6694C131.427 43.3144 131.427 42.8369 131.205 42.4894C131.045 42.2394 130.815 42.0944 130.53 42.0194C130.395 41.9844 130.26 41.9494 130.125 41.9119C129.787 41.8219 129.332 41.9644 129.172 42.2994C129.055 42.5444 129.002 42.7819 129.08 43.0519C129.15 43.2969 129.32 43.5094 129.535 43.6419C129.92 43.8794 130.435 43.8344 130.755 43.5069C131.127 43.1244 131.102 42.5144 130.74 42.1369C130.437 41.8219 129.88 41.6894 129.505 41.9619C129.322 42.0944 129.18 42.2394 129.117 42.4669C129.062 42.6694 129.087 42.9369 129.202 43.1169C129.317 43.2969 129.492 43.4569 129.707 43.5044C129.922 43.5519 130.177 43.5519 130.357 43.4194H130.362Z" fill="#231815"/>
</svg>
