<svg width="200" height="201" viewBox="0 0 200 201" fill="none" xmlns="http://www.w3.org/2000/svg">
<path d="M83.3286 106.178H69.4835C68.5045 106.178 67.7109 106.971 67.7109 107.95V121.795C67.7109 122.774 68.5045 123.568 69.4835 123.568H83.3286C84.3076 123.568 85.1012 122.774 85.1012 121.795V107.95C85.1012 106.971 84.3076 106.178 83.3286 106.178Z" fill="#DCDDDD"/>
<path d="M83.3286 133.638H69.4835C68.5045 133.638 67.7109 134.432 67.7109 135.411V149.256C67.7109 150.235 68.5045 151.028 69.4835 151.028H83.3286C84.3076 151.028 85.1012 150.235 85.1012 149.256V135.411C85.1012 134.432 84.3076 133.638 83.3286 133.638Z" fill="#DCDDDD"/>
<path d="M83.3286 78.8975H69.4835C68.5045 78.8975 67.7109 79.691 67.7109 80.67V94.5152C67.7109 95.4941 68.5045 96.2877 69.4835 96.2877H83.3286C84.3076 96.2877 85.1012 95.4941 85.1012 94.5152V80.67C85.1012 79.691 84.3076 78.8975 83.3286 78.8975Z" fill="#DCDDDD"/>
<path d="M75.6139 61.0948C74.8364 59.6273 71.3888 55.4897 70.6113 54.0222C70.8438 56.5772 72.8664 63.8823 73.0989 66.4374C80.2515 62.1523 87.554 55.4447 94.7066 51.1597C87.6215 53.1522 81.849 57.1872 75.6114 61.0948H75.6139Z" fill="#E8D575"/>
<path d="M137.67 37.2194H55.0161C54.5611 37.2194 54.1711 37.6069 54.1711 38.0644V155.281C54.1711 155.476 54.1711 155.671 54.1711 155.868C54.1736 156.226 54.2436 155.536 54.1661 156.013C53.7661 158.448 53.1661 160.998 51.9761 163.176C51.4311 164.173 50.626 165.418 49.3635 165.463C48.281 165.503 48.2735 167.151 49.3635 167.151H109.617C117.602 167.151 125.587 167.151 133.572 167.151H141.445C142.695 167.151 143.982 167.243 145.23 167.151C145.285 167.146 145.342 167.151 145.397 167.151C145.852 167.151 146.242 166.763 146.242 166.306C146.242 161.571 146.242 156.836 146.242 152.101V118.943C146.242 106.343 146.242 93.7401 146.242 81.1399V52.6595C146.242 50.5395 146.242 48.4195 146.242 46.2995C146.242 45.6945 146.135 45.347 145.682 44.882C143.76 42.8994 141.775 40.9744 139.82 39.0194C139.302 38.5019 138.785 37.9844 138.267 37.4669C137.497 36.6968 136.305 37.8919 137.075 38.6594C138.71 40.2944 140.345 41.9294 141.98 43.5644C142.81 44.3944 143.607 45.297 144.487 46.072C145.162 46.6645 144.24 45.9945 144.552 45.792C144.54 45.7995 144.557 45.8745 144.552 45.887C144.39 46.272 144.552 47.0895 144.552 47.4995V50.8045C144.552 59.6721 144.552 68.5373 144.552 77.4049C144.552 89.855 144.552 102.308 144.552 114.758V148.948C144.552 152.801 144.552 156.656 144.552 160.508V164.143C144.552 164.746 144.445 165.463 144.552 166.058C144.567 166.133 144.552 166.226 144.552 166.303L145.397 165.458H53.3161C52.1561 165.458 50.6735 165.208 49.531 165.458C49.481 165.468 49.416 165.458 49.3635 165.458V167.146C52.2711 167.038 53.6961 163.851 54.5311 161.491C55.1386 159.768 55.7286 157.831 55.8611 155.991C55.9586 154.616 55.8611 153.198 55.8611 151.823V40.2344C55.8611 39.6369 55.9786 38.9019 55.8611 38.3144C55.8461 38.2369 55.8611 38.1444 55.8611 38.0644L55.0161 38.9094H137.67C138.755 38.9094 138.757 37.2219 137.67 37.2219V37.2194Z" fill="#231815"/>
<path d="M84.6145 57.6197V66.8524C84.6145 67.6299 84.6395 68.3999 83.6145 68.5199C81.8169 68.7299 79.8694 68.5199 78.0619 68.5199H70.7768C70.2893 68.5199 69.4693 68.6599 69.0168 68.3924C68.4043 68.0324 68.5568 67.1099 68.5568 66.5149V59.3798C68.5568 57.4647 68.3618 55.4347 68.5568 53.5272C68.6443 52.6772 69.1593 52.4972 69.8768 52.4597C70.7093 52.4172 71.5568 52.4597 72.3893 52.4597H80.9869C81.8244 52.4597 82.7144 52.3747 83.5494 52.4597C84.9195 52.5997 84.617 54.0447 84.617 55.0697C84.617 56.1547 86.3045 56.1572 86.3045 55.0697C86.3045 53.7822 86.4845 52.3947 85.427 51.4372C84.707 50.7872 83.8344 50.7722 82.9369 50.7722H70.9343C70.2968 50.7722 69.5768 50.6922 68.9468 50.8297C66.3917 51.3897 66.8717 54.3447 66.8717 56.2897V65.0848C66.8717 67.1674 66.5742 70.0499 69.4893 70.2049C74.0018 70.4449 78.5869 70.2049 83.1044 70.2049C84.3495 70.2049 85.5245 69.8874 86.0795 68.6324C86.4695 67.7549 86.3045 66.5749 86.3045 65.6399V57.6147C86.3045 56.5297 84.617 56.5272 84.617 57.6147L84.6145 57.6197Z" fill="#231815"/>
<path d="M76.343 60.6672C74.943 58.1397 72.7405 56.1221 71.3405 53.5946C70.9555 52.8996 69.6805 53.1671 69.768 54.0196C70.1955 58.2222 71.828 62.2347 72.2555 66.4348C72.318 67.0448 72.933 67.5223 73.5255 67.1623C81.0906 62.5897 87.5707 56.4571 95.1333 51.8846C95.9408 51.3971 95.4208 50.0721 94.4833 50.3421C87.4182 52.3796 81.3481 56.4946 75.188 60.3622C74.2705 60.9372 75.1155 62.3997 76.0405 61.8197C82.0756 58.0322 88.0132 53.9646 94.9333 51.9696L94.2833 50.4271C86.7182 54.9996 80.2381 61.1322 72.6755 65.7048L73.9455 66.4323C73.518 62.2297 71.8855 58.2172 71.458 54.0171L69.8855 54.4421C71.2855 56.9697 73.488 58.9872 74.888 61.5147C75.4155 62.4647 76.8731 61.6147 76.3455 60.6622L76.343 60.6672Z" fill="#231815"/>
<path d="M66.8695 107.95C66.8695 112.591 66.7545 117.246 66.8695 121.886C66.902 123.211 67.552 124.406 68.9445 124.711C69.6245 124.861 70.4045 124.768 71.0945 124.768H79.9346C81.8597 124.768 85.1072 125.388 86.0797 123.196C86.4372 122.391 86.3047 121.356 86.3047 120.498V109.658C86.3047 108.488 86.4947 107.153 85.6397 106.21C84.8997 105.393 83.9447 105.333 82.9347 105.333H73.4646C71.0895 105.333 67.1695 104.598 66.8695 107.95C66.772 109.033 68.4595 109.025 68.557 107.95C68.6545 106.875 69.7845 107.02 70.562 107.02H81.9122C82.4797 107.02 83.0997 106.948 83.6622 107.02C84.9397 107.183 84.6147 108.768 84.6147 109.698V114.878C84.6147 117.211 84.8022 119.631 84.6147 121.956C84.5397 122.878 83.9772 123.058 83.2022 123.081C82.2572 123.108 81.3097 123.081 80.3646 123.081H72.1845C71.3795 123.081 70.5545 123.133 69.752 123.081C68.962 123.028 68.597 122.618 68.557 121.846C68.3095 117.241 68.557 112.563 68.557 107.95C68.557 106.865 66.8695 106.863 66.8695 107.95Z" fill="#231815"/>
<path d="M66.8695 80.6697C66.8695 85.3098 66.7545 89.9648 66.8695 94.6049C66.902 95.9299 67.552 97.1249 68.9445 97.4299C69.6245 97.5799 70.4045 97.4874 71.0945 97.4874H79.9346C81.8597 97.4874 85.1072 98.1074 86.0797 95.9149C86.4372 95.1099 86.3047 94.0749 86.3047 93.2174V82.3772C86.3047 81.2072 86.4947 79.8722 85.6397 78.9297C84.8997 78.1122 83.9447 78.0522 82.9347 78.0522H73.4646C71.0895 78.0522 67.1695 77.3172 66.8695 80.6697C66.772 81.7522 68.4595 81.7447 68.557 80.6697C68.6545 79.5947 69.7845 79.7397 70.562 79.7397H81.9122C82.4797 79.7397 83.0997 79.6672 83.6622 79.7397C84.9397 79.9022 84.6147 81.4872 84.6147 82.4172V87.5973C84.6147 89.9298 84.8022 92.3499 84.6147 94.6749C84.5397 95.5974 83.9772 95.7774 83.2022 95.7999C82.2572 95.8274 81.3097 95.7999 80.3646 95.7999H72.1845C71.3795 95.7999 70.5545 95.8524 69.752 95.7999C68.9495 95.7474 68.597 95.3374 68.557 94.5649C68.3095 89.9598 68.557 85.2823 68.557 80.6697C68.557 79.5847 66.8695 79.5822 66.8695 80.6697Z" fill="#231815"/>
<path d="M96.2522 56.2119H129.183C130.268 56.2119 130.27 54.5244 129.183 54.5244H96.2522C95.1672 54.5244 95.1647 56.2119 96.2522 56.2119Z" fill="#231815"/>
<path d="M96.2522 61.3345H129.183C130.268 61.3345 130.27 59.647 129.183 59.647H96.2522C95.1672 59.647 95.1647 61.3345 96.2522 61.3345Z" fill="#231815"/>
<path d="M96.2522 66.4571H129.183C130.268 66.4571 130.27 64.7695 129.183 64.7695H96.2522C95.1672 64.7695 95.1647 66.4571 96.2522 66.4571Z" fill="#231815"/>
<path d="M96.2522 83.4922H129.183C130.268 83.4922 130.27 81.8047 129.183 81.8047H96.2522C95.1672 81.8047 95.1647 83.4922 96.2522 83.4922Z" fill="#231815"/>
<path d="M96.2522 88.6148H129.183C130.268 88.6148 130.27 86.9272 129.183 86.9272H96.2522C95.1672 86.9272 95.1647 88.6148 96.2522 88.6148Z" fill="#231815"/>
<path d="M96.2522 93.7373C107.23 93.7373 118.207 93.7373 129.183 93.7373C130.268 93.7373 130.27 92.0498 129.183 92.0498C118.205 92.0498 107.227 92.0498 96.2522 92.0498C95.1672 92.0498 95.1647 93.7373 96.2522 93.7373Z" fill="#231815"/>
<path d="M96.2522 110.773H129.183C130.268 110.773 130.27 109.085 129.183 109.085H96.2522C95.1672 109.085 95.1647 110.773 96.2522 110.773Z" fill="#231815"/>
<path d="M96.2522 115.896C107.23 115.896 118.207 115.896 129.183 115.896C130.268 115.896 130.27 114.208 129.183 114.208C118.205 114.208 107.227 114.208 96.2522 114.208C95.1672 114.208 95.1647 115.896 96.2522 115.896Z" fill="#231815"/>
<path d="M96.2522 121.018H129.183C130.268 121.018 130.27 119.331 129.183 119.331H96.2522C95.1672 119.331 95.1647 121.018 96.2522 121.018Z" fill="#231815"/>
<path d="M66.8695 135.231C66.8695 139.871 66.7545 144.526 66.8695 149.166C66.902 150.491 67.552 151.686 68.9445 151.991C69.6245 152.141 70.4045 152.048 71.0945 152.048H79.9346C81.8597 152.048 85.1072 152.668 86.0797 150.476C86.4372 149.671 86.3047 148.636 86.3047 147.778V136.938C86.3047 135.768 86.4947 134.433 85.6397 133.491C84.8997 132.673 83.9447 132.613 82.9347 132.613H73.4646C71.0895 132.613 67.1695 131.878 66.8695 135.231C66.772 136.313 68.4595 136.306 68.557 135.231C68.6545 134.156 69.7845 134.301 70.562 134.301H81.9122C82.4797 134.301 83.0997 134.228 83.6622 134.301C84.9397 134.463 84.6147 136.048 84.6147 136.978V142.158C84.6147 144.491 84.8022 146.911 84.6147 149.236C84.5397 150.158 83.9772 150.338 83.2022 150.361C82.2572 150.388 81.3097 150.361 80.3646 150.361H72.1845C71.3795 150.361 70.5545 150.413 69.752 150.361C68.9495 150.308 68.597 149.898 68.557 149.126C68.3095 144.521 68.557 139.843 68.557 135.231C68.557 134.146 66.8695 134.143 66.8695 135.231Z" fill="#231815"/>
<path d="M96.2522 138.053C107.23 138.053 118.207 138.053 129.183 138.053C130.268 138.053 130.27 136.366 129.183 136.366C118.205 136.366 107.227 136.366 96.2522 136.366C95.1672 136.366 95.1647 138.053 96.2522 138.053Z" fill="#231815"/>
<path d="M96.2522 143.176H129.183C130.268 143.176 130.27 141.488 129.183 141.488H96.2522C95.1672 141.488 95.1647 143.176 96.2522 143.176Z" fill="#231815"/>
<path d="M96.2522 148.298H129.183C130.268 148.298 130.27 146.611 129.183 146.611H96.2522C95.1672 146.611 95.1647 148.298 96.2522 148.298Z" fill="#231815"/>
<path d="M136.826 38.0641V45.5692C136.826 46.0342 137.214 46.3993 137.671 46.4143C140.246 46.4893 142.824 46.5643 145.399 46.6368C146.486 46.6693 146.484 44.9817 145.399 44.9492C142.824 44.8742 140.246 44.7992 137.671 44.7267L138.516 45.5717V38.0667C138.516 36.9816 136.829 36.9791 136.829 38.0667L136.826 38.0641Z" fill="#231815"/>
</svg>
