<svg width="200" height="200" viewBox="0 0 200 200" fill="none" xmlns="http://www.w3.org/2000/svg">
<path d="M98.4287 43.5581V46.2331H149.609V145.179L154.772 148.192V44.1406L98.4287 43.5581Z" fill="#E8D575"/>
<path d="M41.8558 110.714C45.4857 110.714 48.4284 107.771 48.4284 104.141C48.4284 100.511 45.4857 97.5688 41.8558 97.5688C38.2258 97.5688 35.2832 100.511 35.2832 104.141C35.2832 107.771 38.2258 110.714 41.8558 110.714Z" fill="#E8D575"/>
<path d="M65.1038 62.0182C68.7338 62.0182 71.6764 59.0756 71.6764 55.4456C71.6764 51.8157 68.7338 48.873 65.1038 48.873C61.4739 48.873 58.5312 51.8157 58.5312 55.4456C58.5312 59.0756 61.4739 62.0182 65.1038 62.0182Z" fill="#E8D575"/>
<path d="M123.817 86.9834C121.482 85.5709 117.732 85.8409 117.732 85.8409L114.74 87.7759C114.74 87.7759 112.427 84.9734 110.027 85.6809C107.775 86.3434 106.2 89.0659 106.467 90.341C106.31 90.521 106.207 90.6385 106.207 90.6385C106.207 90.6385 106.472 95.0535 110.987 96.256C111.152 96.301 111.302 96.3385 111.445 96.376C112.272 97.3161 113.932 99.3861 113.932 100.884C113.897 101.286 113.875 101.544 113.875 101.544L114.217 101.194C114.602 101.064 115.335 100.244 116.115 99.2486L123.655 91.5135C123.655 91.5135 126.152 88.4009 123.817 86.9884V86.9834Z" fill="#E8D575"/>
<path d="M81.5113 90.6685L81.1038 84.4334H77.7637L78.8238 80.9134L75.8087 76.9658L72.1162 79.1659L70.9187 75.4658L65.6736 75.6733L65.0511 79.1659L61.2885 77.7158L57.7985 80.9134L59.836 84.4334L56.251 85.7784V90.586L59.511 91.826L58.2885 94.9861L61.4835 99.1411L65.0536 97.3361L66.5211 100.879L71.4312 100.586L72.5312 97.0786L75.2387 98.6336L79.2538 95.1586L78.0113 91.561L81.5163 90.666L81.5113 90.6685ZM69.8586 91.8285L67.4961 92.216L64.8536 89.6085L64.8886 86.676L67.3336 84.4334L68.8811 84.1484L71.9787 85.5635L72.2487 89.3635L69.8611 91.826L69.8586 91.8285Z" fill="#E8D575"/>
<path d="M109.634 113.056L108.724 110.581L105.774 108.199L100.002 107.991L96.3418 114.616L98.1718 119.384L99.3793 118.741L102.312 122.299H106.269L109.829 118.929L109.634 113.059V113.056ZM106.209 115.256C106.209 115.256 104.882 118.464 102.314 117.531C99.7468 116.599 101.397 113.789 101.397 113.789C101.397 113.789 102.852 112.449 104.789 112.399C106.727 112.349 106.209 115.256 106.209 115.256Z" fill="#E8D575"/>
<path d="M147.507 152.382L137.737 143.084L126.034 131.677C126.034 131.677 124.642 129.384 124.642 127.529C124.642 125.674 126.904 123.657 128.069 121.762C129.234 119.869 127.342 118.084 127.342 118.084L123.394 112.092C123.394 112.092 118.994 107.279 117.619 107.042C116.244 106.804 110.651 110.399 110.651 110.399C110.651 110.399 117.159 115.804 118.262 118.004C119.362 120.204 117.162 122.294 117.162 122.294L113.311 127.079C113.311 127.079 108.086 129.647 106.529 130.379C104.971 131.112 103.961 129.829 103.961 129.829L98.4288 120.204L95.8938 122.294C94.1413 124.117 93.9688 127.354 93.9688 127.354C93.9688 127.354 101.706 137.767 103.789 139.057C105.871 140.347 109.144 138.632 111.749 137.664C114.354 136.699 116.337 139.729 116.337 139.729C116.337 139.729 129.347 161.622 131.707 165.507C134.064 169.392 137.697 168.527 138.884 168.4C140.072 168.272 145.404 164.65 145.404 164.65C145.404 164.65 148.702 160.907 149.889 157.777C151.077 154.647 147.507 152.38 147.507 152.38V152.382ZM136.662 160.99C136.629 160.98 136.602 160.965 136.577 160.95C135.307 160.595 134.579 159.147 134.439 157.815C134.359 157.05 134.404 156.237 134.709 155.52C135.062 154.687 135.782 154.087 136.609 153.747C138.514 152.962 140.857 153.482 142.074 155.197C144.327 158.367 139.729 162.01 136.664 160.992L136.662 160.99Z" fill="#D1D3D4"/>
<path d="M113.199 105.794C113.249 105.304 113.299 104.814 113.352 104.321C113.362 104.214 113.374 104.104 113.374 103.996C112.737 103.786 112.119 103.501 111.602 103.069C110.962 102.536 110.497 101.829 110.242 101.039C110.032 100.389 109.907 99.6236 110.139 98.9586C110.222 98.7236 110.349 98.5261 110.507 98.3636C110.524 98.2886 110.539 98.2161 110.562 98.1436C109.624 97.8136 108.707 97.4261 107.839 96.9336C106.044 95.9161 104.647 94.4611 103.819 92.571C103.439 91.706 103.142 90.7835 103.067 89.836C103.047 89.566 103.049 89.291 103.082 89.0235C100.752 89.921 98.159 90.1935 95.779 89.4785C93.0515 88.6585 90.6915 86.406 90.149 83.6109C90.0865 83.2884 90.014 82.9109 89.7189 82.7659C89.5414 82.6784 89.3314 82.7034 89.1339 82.7334C87.2964 83.0109 85.4914 83.4959 83.7614 84.1784C83.5889 84.2459 83.4039 84.3284 83.3164 84.4909C83.2189 84.6759 83.2789 84.901 83.3364 85.1035C83.7889 86.6535 84.0414 88.261 84.0839 89.876C84.1039 90.631 84.0664 91.421 83.6889 92.0735C83.4539 92.481 82.6314 92.7335 82.5089 93.0936C82.3039 93.6911 83.0189 94.2386 82.9239 94.9211C82.8189 95.6861 82.2889 96.3136 81.7563 96.8736C80.5988 98.0961 79.3313 99.2161 77.9788 100.219C77.0713 100.891 75.9763 101.539 74.8763 101.279C74.9463 102.004 74.1263 102.494 73.4062 102.596C72.6837 102.699 71.8912 102.624 71.2912 103.039C70.4037 103.656 70.4412 104.961 70.6112 106.029C70.9012 107.826 71.3037 109.611 71.9312 111.321C74.7013 118.891 82.1089 124.539 90.1415 125.206C90.434 125.231 90.7415 125.246 91.004 125.114C91.259 124.986 91.4315 124.739 91.5915 124.501C92.809 122.694 94.0265 120.884 95.244 119.076C95.3715 118.886 95.504 118.681 95.5015 118.454C95.499 118.224 95.359 118.021 95.234 117.829C93.704 115.496 93.449 112.379 94.5815 109.829C95.714 107.279 98.1966 105.376 100.954 104.946C104.519 104.391 107.937 106.139 111.449 107.104C112.037 106.681 112.607 106.216 113.197 105.794H113.199Z" fill="#D1D3D4"/>
<path d="M57.0606 112.399H52.0205V141.729H57.0606V112.399Z" fill="#E8D575"/>
<path d="M97.5811 44.1404V71.0307C97.5811 72.1157 99.2686 72.1182 99.2686 71.0307V44.1404C99.2686 43.0554 97.5811 43.0529 97.5811 44.1404Z" fill="#231F20"/>
<path d="M98.7766 74.3306C99.8616 74.3306 99.8641 72.6431 98.7766 72.6431C97.6891 72.6431 97.6891 74.3306 98.7766 74.3306Z" fill="#231F20"/>
<path d="M93.9836 44.4004H155.297C156.382 44.4004 156.384 42.7129 155.297 42.7129H154.457C153.372 42.7129 153.369 44.4004 154.457 44.4004H155.297C156.382 44.4004 156.384 42.7129 155.297 42.7129H93.9836C92.8986 42.7129 92.8961 44.4004 93.9836 44.4004Z" fill="#231F20"/>
<path d="M95.1487 48.1205C110.494 55.8431 124.569 65.6382 139.387 74.2683C143.839 76.8608 148.367 79.3259 152.969 81.6434C153.937 82.1309 154.792 80.6809 153.822 80.1859C153.554 80.0484 153.284 79.9109 153.017 79.7759C152.052 79.2834 151.197 80.7384 152.164 81.2334C152.432 81.3709 152.702 81.5084 152.969 81.6434L153.822 80.1859C138.477 72.4633 124.402 62.6682 109.584 54.0381C105.131 51.4455 100.604 48.9805 96.0012 46.663C95.0337 46.1755 94.1786 47.6305 95.1487 48.1205Z" fill="#231F20"/>
<path d="M113.014 50.6155V56.4455C113.014 57.5306 114.701 57.5331 114.701 56.4455V50.6155C114.701 49.5305 113.014 49.528 113.014 50.6155Z" fill="#231F20"/>
<path d="M112.917 44.7878C117.224 51.5904 120.452 59.1655 125.759 65.2981C126.472 66.1206 127.659 64.9231 126.952 64.1056C121.747 58.093 118.597 50.6079 114.372 43.9353C113.792 43.0203 112.332 43.8653 112.914 44.7878H112.917Z" fill="#231F20"/>
<path d="M125.827 50.0603C125.739 54.9428 125.599 59.8229 125.512 64.7029C125.492 65.7905 127.179 65.7905 127.199 64.7029C127.287 59.8204 127.427 54.9403 127.514 50.0603C127.534 48.9728 125.847 48.9728 125.827 50.0603Z" fill="#231F20"/>
<path d="M125.851 44.8878C132.054 54.9254 136.302 66.1231 143.179 75.7532C143.804 76.6282 145.269 75.7882 144.637 74.9007C137.759 65.2706 133.511 54.0729 127.309 44.0353C126.739 43.1128 125.279 43.9603 125.851 44.8878Z" fill="#231F20"/>
<path d="M143.294 47.7356V75.4309C143.294 76.516 144.981 76.5185 144.981 75.4309V47.7356C144.981 46.6506 143.294 46.6481 143.294 47.7356Z" fill="#231F20"/>
<path d="M153.927 47.3005C153.927 73.8909 153.927 100.481 153.927 127.072C153.927 134.549 153.927 142.029 153.927 149.507C153.927 150.592 155.614 150.594 155.614 149.507C155.614 122.916 155.614 96.3262 155.614 69.7358C155.614 62.2582 155.614 54.7781 155.614 47.3005C155.614 46.2155 153.927 46.213 153.927 47.3005Z" fill="#231F20"/>
<path d="M96.804 70.1109C97.8865 70.1109 98.9715 70.1109 100.054 70.1109C101.137 70.1109 101.142 68.4233 100.054 68.4233C98.9665 68.4233 97.8865 68.4233 96.804 68.4233C95.7215 68.4233 95.7165 70.1109 96.804 70.1109Z" fill="#231F20"/>
<path d="M72.4182 55.458C72.3382 52.3605 70.4932 49.5855 67.5531 48.4955C64.6631 47.4229 61.2905 48.3305 59.3205 50.698C54.9955 55.8931 59.588 63.8882 66.2556 62.7631C69.8356 62.1606 72.3207 59.0231 72.4157 55.458C72.4432 54.3705 70.7557 54.373 70.7282 55.458C70.6457 58.5856 68.1856 61.1781 65.0006 61.1856C61.8155 61.1931 59.2655 58.5756 59.273 55.458C59.2805 52.3355 61.873 49.7305 65.0006 49.7305C68.1281 49.7305 70.6482 52.338 70.7282 55.458C70.7557 56.5431 72.4432 56.5456 72.4157 55.458H72.4182Z" fill="#231F20"/>
<path d="M49.2707 104.141C49.1907 101.044 47.3457 98.2686 44.4057 97.1786C41.5156 96.1061 38.1431 97.0136 36.1731 99.3811C31.848 104.576 36.4406 112.571 43.1081 111.446C46.6882 110.844 49.1732 107.706 49.2682 104.141C49.2957 103.054 47.6082 103.056 47.5807 104.141C47.4982 107.269 45.0382 109.861 41.8531 109.869C38.6681 109.876 36.1181 107.259 36.1256 104.141C36.1331 101.019 38.7256 98.4136 41.8531 98.4136C44.9807 98.4136 47.5007 101.021 47.5807 104.141C47.6082 105.226 49.2957 105.229 49.2682 104.141H49.2707Z" fill="#231F20"/>
<path d="M64.9887 56.0558C68.7237 59.1383 72.4563 62.2184 76.1913 65.3009C82.1464 70.216 88.1015 75.131 94.0591 80.0461C95.4316 81.1786 96.8016 82.3086 98.1741 83.4411C99.0066 84.1261 100.207 82.9411 99.3666 82.2486C95.6316 79.1661 91.899 76.086 88.164 73.0035C82.2089 68.0884 76.2538 63.1734 70.2963 58.2583C68.9237 57.1258 67.5537 55.9958 66.1812 54.8633C65.3487 54.1783 64.1487 55.3633 64.9887 56.0558Z" fill="#231F20"/>
<path d="M60.7534 60.9054C58.4334 65.703 56.1109 70.498 53.7908 75.2956C50.1108 82.8982 46.4307 90.5033 42.7532 98.1059C41.9032 99.8609 41.0557 101.616 40.2057 103.371C39.7357 104.343 41.1882 105.201 41.6632 104.223C43.9832 99.4259 46.3057 94.6308 48.6258 89.8333C52.3058 82.2307 55.9859 74.6256 59.6634 67.023C60.5134 65.268 61.3609 63.513 62.2109 61.7579C62.6809 60.7854 61.2284 59.9279 60.7534 60.9054Z" fill="#231F20"/>
<path d="M48.3228 106.399C64.468 108.874 80.6407 111.149 96.7859 113.624C97.8484 113.786 98.3059 112.161 97.2334 111.996C81.0882 109.521 64.9155 107.246 48.7703 104.771C47.7077 104.609 47.2502 106.234 48.3228 106.399Z" fill="#231F20"/>
<path d="M95.5265 116.191L96.814 119.319C96.989 119.744 97.3715 120.034 97.8515 119.909C98.2515 119.804 98.614 119.291 98.4415 118.871L97.154 115.744C96.979 115.319 96.5965 115.029 96.1165 115.154C95.7165 115.259 95.354 115.771 95.5265 116.191Z" fill="#231F20"/>
<path d="M101.911 122.799C103.666 122.784 105.514 123.584 107.201 122.754C108.589 122.071 108.834 120.436 110.059 119.654C110.971 119.071 110.126 117.609 109.206 118.196C108.126 118.886 107.826 120.016 106.956 120.874C105.706 122.101 103.444 121.099 101.911 121.111C100.826 121.121 100.824 122.809 101.911 122.799Z" fill="#231F20"/>
<path d="M107.909 110.991C108.471 112.826 108.906 114.689 109.214 116.584C109.389 117.654 111.014 117.199 110.841 116.137C110.534 114.242 110.099 112.381 109.536 110.544C109.219 109.509 107.589 109.949 107.909 110.991Z" fill="#231F20"/>
<path d="M97.7385 113.239C98.266 112.129 98.851 110.989 99.531 109.966C100.883 107.931 104.019 109.241 105.984 109.656C107.044 109.881 107.496 108.254 106.431 108.029C104.084 107.531 100.801 106.259 98.806 108.186C97.681 109.276 96.9434 110.991 96.2809 112.386C95.8159 113.361 97.2709 114.219 97.7385 113.239Z" fill="#231F20"/>
<path d="M102.514 116.744C101.401 115.796 101.226 113.746 102.949 113.294C104.536 112.876 105.556 114.779 104.386 115.884C103.596 116.631 104.791 117.824 105.579 117.076C107.811 114.966 106.019 111.259 102.994 111.576C99.7913 111.914 99.0613 116.009 101.321 117.934C102.144 118.634 103.341 117.446 102.514 116.741V116.744Z" fill="#231F20"/>
<path d="M97.9714 75.7209L97.8964 78.146C97.8814 78.5935 98.2939 79.0035 98.7414 78.991C100.214 78.9485 101.736 79.5035 102.569 80.7885C103.401 82.0735 103.354 83.8935 102.299 85.0335C100.261 87.2336 93.8013 86.9086 94.4413 82.876C94.6088 81.8135 92.9838 81.356 92.8138 82.4285C91.9263 88.0311 99.7489 89.6286 103.219 86.4911C104.854 85.0135 105.259 82.5435 104.359 80.561C103.376 78.3985 101.056 77.2359 98.7439 77.3034L99.5889 78.1485L99.6639 75.7234C99.6964 74.6384 98.0089 74.6384 97.9764 75.7234L97.9714 75.7209Z" fill="#231F20"/>
<path d="M118.959 112.936C120.044 112.936 120.047 111.249 118.959 111.249C117.872 111.249 117.872 112.936 118.959 112.936Z" fill="#231F20"/>
<path d="M92.8264 133.057C93.9114 133.057 93.9139 131.369 92.8264 131.369C91.7389 131.369 91.7389 133.057 92.8264 133.057Z" fill="#231F20"/>
<path d="M63.3636 110.989C66.7937 124.254 79.1413 133.479 92.824 133.056C93.9065 133.024 93.9115 131.336 92.824 131.369C79.8689 131.769 68.2387 123.104 64.9912 110.541C64.7187 109.491 63.0911 109.936 63.3636 110.989Z" fill="#231F20"/>
<path d="M62.5006 102.549C62.4631 103.466 62.4681 104.381 62.5131 105.299C62.5656 106.379 64.2531 106.386 64.2006 105.299C64.1556 104.381 64.1531 103.466 64.1881 102.549C64.2306 101.464 62.5431 101.464 62.5006 102.549Z" fill="#231F20"/>
<path d="M81.2336 84.441C80.0011 84.2185 78.7861 83.9135 77.5711 83.6135C77.7386 84.026 77.9061 84.441 78.0761 84.8535C78.6986 83.7685 79.3211 82.686 79.9436 81.601C80.1461 81.246 80.0511 80.876 79.8111 80.5785C78.5936 79.0685 77.4686 77.5385 75.7535 76.5609C75.506 76.4209 75.146 76.3909 74.901 76.5609C73.871 77.276 72.7985 77.9185 71.726 78.566L72.966 79.071C72.6385 77.8635 72.3135 76.6584 71.986 75.4509C71.881 75.0609 71.546 74.8709 71.1735 74.8309C69.241 74.6209 67.3609 74.3509 65.4534 74.8609C65.1884 74.9309 64.9159 75.1709 64.8634 75.4509C64.6409 76.6834 64.3359 77.8985 64.0359 79.1135L65.2759 78.6085C64.1909 77.986 63.1084 77.3635 62.0234 76.7434C61.6684 76.5409 61.2984 76.6359 61.0009 76.8759C59.4908 78.0935 57.9608 79.2185 56.9833 80.9335C56.8433 81.181 56.8133 81.541 56.9833 81.786C57.6983 82.816 58.3408 83.8885 58.9883 84.961C59.1558 84.5485 59.3233 84.1335 59.4933 83.721C58.2858 84.0485 57.0808 84.3735 55.8733 84.701C55.4833 84.806 55.2933 85.141 55.2533 85.5136C55.0433 87.4461 54.7733 89.3261 55.2833 91.2336C55.3533 91.4986 55.5933 91.7711 55.8733 91.8236C57.1058 92.0461 58.3208 92.3511 59.5358 92.6511C59.3683 92.2386 59.2008 91.8236 59.0308 91.4111C58.4083 92.4961 57.7858 93.5787 57.1633 94.6637C56.9608 95.0187 57.0558 95.3887 57.2958 95.6862C58.5133 97.1962 59.6383 98.7262 61.3534 99.7037C61.6009 99.8437 61.9609 99.8737 62.2059 99.7037C63.2359 98.9887 64.3084 98.3462 65.3809 97.6987L64.1409 97.1937C64.4684 98.4012 64.7934 99.6062 65.1209 100.814C65.2259 101.204 65.5609 101.394 65.9334 101.434C67.8659 101.644 69.746 101.914 71.6535 101.404C71.9185 101.334 72.191 101.094 72.2435 100.814C72.466 99.5812 72.771 98.3662 73.071 97.1512L71.831 97.6562C72.916 98.2787 73.9985 98.9012 75.0835 99.5212C75.4385 99.7237 75.8085 99.6287 76.1061 99.3887C77.6161 98.1712 79.1461 97.0462 80.1236 95.3312C80.2636 95.0837 80.2936 94.7237 80.1236 94.4787C79.4086 93.4487 78.7661 92.3761 78.1186 91.3036C77.9511 91.7161 77.7836 92.1311 77.6136 92.5436C78.8211 92.2161 80.0261 91.8911 81.2336 91.5636C81.6236 91.4586 81.8136 91.1236 81.8536 90.7511C82.0636 88.8186 82.3336 86.9386 81.8236 85.031C81.5436 83.9835 79.9161 84.4285 80.1961 85.4786C80.6636 87.2261 80.3561 88.9861 80.1661 90.7511C80.3736 90.4811 80.5786 90.2086 80.7861 89.9386C79.5786 90.2661 78.3736 90.5911 77.1661 90.9186C76.6461 91.0586 76.3811 91.6911 76.6611 92.1586C77.3086 93.2312 77.9511 94.3037 78.6661 95.3337V94.4812C77.7686 96.0537 76.2936 97.0837 74.911 98.1962L75.9335 98.0637C74.8485 97.4412 73.766 96.8187 72.681 96.1987C72.2185 95.9337 71.5735 96.1687 71.441 96.7037C71.141 97.9187 70.836 99.1337 70.6135 100.366L71.2035 99.7762C69.456 100.244 67.6959 99.9362 65.9309 99.7462C66.2009 99.9537 66.4734 100.159 66.7434 100.366C66.4159 99.1587 66.0909 97.9537 65.7634 96.7462C65.6234 96.2262 64.9909 95.9612 64.5234 96.2412C63.4509 96.8887 62.3784 97.5312 61.3484 98.2462H62.2009C60.6284 97.3487 59.5983 95.8737 58.4858 94.4912C58.5308 94.8312 58.5733 95.1737 58.6183 95.5137L60.4859 92.2611C60.7509 91.7986 60.5159 91.1536 59.9808 91.0211C58.7658 90.7211 57.5508 90.4161 56.3183 90.1936C56.5158 90.3911 56.7108 90.5861 56.9083 90.7836C56.4408 89.0361 56.7483 87.2761 56.9383 85.5111C56.7308 85.7811 56.5258 86.0536 56.3183 86.3236C57.5258 85.9961 58.7308 85.6711 59.9383 85.3436C60.4584 85.2036 60.7234 84.571 60.4434 84.1035C59.7958 83.031 59.1533 81.9585 58.4383 80.9285V81.781C59.3358 80.2085 60.8109 79.1785 62.1934 78.066L61.1709 78.1985C62.2559 78.821 63.3384 79.4435 64.4234 80.0635C64.8859 80.3285 65.5309 80.0935 65.6634 79.5585C65.9634 78.3435 66.2684 77.1284 66.4909 75.8959L65.9009 76.4859C67.6484 76.0184 69.4085 76.3259 71.1735 76.5159C70.9035 76.3084 70.631 76.1034 70.361 75.8959C70.6885 77.1034 71.0135 78.3085 71.341 79.516C71.481 80.036 72.1135 80.301 72.581 80.021C73.6535 79.3735 74.726 78.731 75.756 78.016H74.9035C76.476 78.9135 77.5061 80.3885 78.6186 81.771C78.5736 81.431 78.5311 81.0885 78.4861 80.7485L76.6186 84.001C76.3536 84.4635 76.5886 85.1086 77.1236 85.2411C78.3386 85.5411 79.5536 85.8461 80.7861 86.0686C81.8486 86.2611 82.3036 84.6335 81.2336 84.441Z" fill="#231F20"/>
<path d="M67.7412 91.2311C67.1362 90.6611 66.5537 90.0435 65.9162 89.5085C65.8987 89.4935 65.6237 89.186 65.5812 89.1935C65.7112 89.171 65.6762 90.006 65.7787 89.546C65.8737 89.1285 65.7487 88.546 65.7362 88.116C65.7287 87.866 65.8437 87.0135 65.6987 86.816C65.6037 86.686 65.2237 87.3485 65.5512 87.211C65.7037 87.146 65.9087 86.8335 66.0137 86.721C66.3537 86.361 66.6962 85.9985 67.0362 85.6385C67.1362 85.531 67.3812 85.366 67.4262 85.226C67.5212 84.9135 66.7662 85.236 67.0787 85.361C67.3687 85.4785 68.0062 85.3335 68.3237 85.3235C68.6762 85.3135 69.5037 85.4485 69.8087 85.281C70.0388 85.1535 69.4237 85.076 69.4287 85.0935C69.4562 85.1985 69.7412 85.3885 69.8087 85.4535C70.1938 85.816 70.5788 86.181 70.9638 86.5435C71.0888 86.6635 71.2538 86.8885 71.4138 86.9685C71.8263 87.176 71.1988 86.671 71.3163 86.571C71.2013 86.671 71.3513 87.7485 71.3563 87.906C71.3688 88.311 71.2738 88.8785 71.3963 89.2635C71.5838 89.856 71.4463 88.8435 71.6338 88.9585C71.6163 88.9485 71.3238 89.291 71.2938 89.3185C70.8563 89.716 70.4688 90.1935 70.0637 90.6235C69.9837 90.706 69.6537 90.9636 69.6362 91.0761C69.6362 91.0911 70.2887 91.0111 70.0212 90.9011C69.6362 90.7436 68.8312 90.9361 68.4187 90.9486L67.1437 90.9861C66.0612 91.0186 66.0562 92.7061 67.1437 92.6736C68.1087 92.6461 69.1187 92.7086 70.0762 92.5886C70.9788 92.4761 71.6138 91.4411 72.2063 90.8136C72.8988 90.081 73.0963 89.7335 73.0688 88.7185C73.0438 87.871 73.2613 86.5835 72.7138 85.8785C72.1888 85.1985 71.2838 84.341 70.5713 83.8585C69.8037 83.3385 68.5337 83.636 67.6462 83.661C66.5837 83.691 66.2612 84.0085 65.5412 84.771C64.9437 85.406 64.0662 86.0185 64.0162 86.931C63.9662 87.8435 63.7937 89.501 64.2787 90.266C64.7962 91.0811 65.8437 91.7636 66.5462 92.4286C67.3362 93.1736 68.5312 91.9836 67.7387 91.2361L67.7412 91.2311Z" fill="#231F20"/>
<path d="M110.904 127.049C109.151 128.462 107.004 129.174 105.304 127.327C104.914 126.904 104.389 125.714 103.996 124.962C103.119 123.279 102.238 121.596 101.361 119.916C101.178 119.569 101.026 119.144 100.791 118.826C100.158 117.966 98.931 117.864 98.1384 118.581C97.0384 119.574 96.1534 120.964 95.2109 122.101C94.0984 123.441 92.7959 124.659 92.7709 126.539C92.7484 128.204 93.7659 129.309 94.7334 130.509C95.9459 132.014 97.1609 133.517 98.3734 135.022C99.151 135.984 99.906 136.972 100.706 137.914C102.451 139.964 104.971 140.487 107.536 139.977C109.434 139.599 111.279 138.004 113.209 138.664C114.546 139.122 115.011 140.109 115.789 141.302C119.984 147.732 123.924 154.337 127.916 160.894C129.031 162.727 130.019 164.815 131.356 166.497C132.294 167.677 133.741 168.555 135.156 169.012C138.129 169.975 141.146 168.887 143.599 167.16L142.576 167.027L142.589 167.045C142.896 167.425 143.459 167.305 143.782 167.045C144.792 166.232 145.799 165.417 146.809 164.605C147.189 164.297 147.069 163.735 146.809 163.412L146.797 163.395V164.587C150.169 161.474 151.837 156.609 148.882 152.614C147.857 151.227 146.324 150.099 145.082 148.919C139.311 143.439 133.504 137.989 127.881 132.357C127.149 131.622 126.211 130.857 125.731 129.917C125.279 129.029 125.291 127.777 125.686 126.994C125.686 126.999 125.844 126.842 126.044 126.582C126.266 126.292 126.481 126.002 126.686 125.699C127.144 125.024 127.549 124.317 127.876 123.569C128.989 121.029 128.891 118.456 127.151 116.246C126.254 115.106 125.326 113.984 124.416 112.854C123.216 111.366 122.016 109.879 120.819 108.391C119.674 106.974 118.301 105.969 116.351 106.256C114.756 106.491 113.166 107.606 111.749 108.311C110.434 108.966 108.324 109.631 108.259 111.409C108.214 112.646 109.986 113.726 110.774 114.451C112.156 115.724 113.539 116.996 114.921 118.269C115.706 118.991 116.309 119.799 116.341 120.944C116.406 123.154 114.019 124.554 112.486 125.782C111.961 126.204 111.434 126.627 110.909 127.047C110.061 127.727 111.261 128.914 112.101 128.239C114.726 126.134 119.014 123.662 117.829 119.669C117.554 118.746 117.041 117.939 116.346 117.286C115.076 116.091 113.779 114.924 112.496 113.741C111.869 113.164 111.241 112.586 110.614 112.009C110.446 111.856 110.244 111.711 110.101 111.536C109.766 111.131 109.951 111.486 110.026 111.286C110.204 110.809 111.109 110.511 111.529 110.301C112.431 109.851 113.334 109.404 114.236 108.954C115.871 108.139 117.521 107.166 119.056 108.871C119.929 109.841 120.706 110.916 121.526 111.934C122.726 113.421 123.926 114.911 125.126 116.399C126.326 117.886 127.286 119.291 126.861 121.329C126.546 122.839 125.726 124.219 124.811 125.442C124.606 125.714 124.339 125.979 124.156 126.272C124.099 126.364 123.939 127.047 124.126 126.477C124.001 126.854 123.856 127.189 123.786 127.587C123.474 129.362 124.174 130.917 125.366 132.189C130.226 137.384 135.564 142.179 140.711 147.084C142.879 149.149 145.069 151.192 147.224 153.269C147.282 153.327 147.542 153.597 147.407 153.434C147.822 153.942 148.137 154.584 148.359 155.194C149.524 158.364 147.939 161.244 145.609 163.395C145.249 163.727 145.332 164.245 145.609 164.587L145.622 164.605V163.412C144.612 164.225 143.604 165.04 142.594 165.852H143.787L143.774 165.835C143.559 165.567 143.032 165.505 142.752 165.702C140.526 167.267 137.821 168.327 135.161 167.222C134.164 166.807 133.186 166.12 132.519 165.26C132.809 165.635 132.496 165.185 132.441 165.085C132.259 164.762 132.056 164.447 131.864 164.13C131.181 163.004 130.496 161.877 129.811 160.752C125.906 154.334 122.021 147.899 117.976 141.569C116.514 139.282 115.014 136.607 111.851 136.814C111.019 136.869 110.534 137.144 109.699 137.509C108.446 138.057 107.071 138.484 105.694 138.492C103.709 138.502 102.474 137.424 101.316 135.989C99.2585 133.439 97.1409 130.924 95.1384 128.329C93.9409 126.779 94.6259 125.439 95.6859 124.159C96.7459 122.879 97.8709 121.594 98.9135 120.271C98.966 120.204 99.391 119.671 99.3385 119.674C99.3785 119.674 99.5435 120.076 99.566 120.111C100.008 120.731 100.311 121.539 100.666 122.214C101.571 123.944 102.474 125.674 103.379 127.404C103.881 128.364 104.591 129.119 105.571 129.637C107.914 130.874 110.216 129.762 112.106 128.239C112.951 127.557 111.751 126.369 110.914 127.047L110.904 127.049Z" fill="#231F20"/>
<path d="M135.292 153.709C132.277 156.382 133.86 161.514 137.862 162.049C142.035 162.609 144.44 157.799 142.05 154.559C141.412 153.694 139.947 154.534 140.592 155.412C142.085 157.437 141.055 160.727 138.172 160.402C135.29 160.077 134.48 156.679 136.485 154.902C137.3 154.179 136.102 152.989 135.292 153.709Z" fill="#231F20"/>
<path d="M112.046 96.0308C109.004 95.2933 106.174 92.4458 107.264 89.0832C108.236 86.0882 112.786 84.9932 114.079 88.3857C114.351 89.1007 115.506 89.2682 115.706 88.3857C116.161 86.3832 119.534 86.2032 121.114 86.6007C123.472 87.1957 124.049 89.4032 122.759 91.3408C121.546 93.1583 119.621 94.6033 118.054 96.1033C116.284 97.7984 114.516 99.4909 112.746 101.186C111.961 101.938 113.154 103.131 113.939 102.378C116.474 99.9509 119.011 97.5233 121.546 95.0933C123.389 93.3283 125.762 91.1008 125.089 88.2507C124.512 85.8107 121.951 84.7382 119.656 84.7707C117.361 84.8032 114.636 85.4907 114.079 87.9357H115.706C114.069 83.6432 108.336 83.6182 106.141 87.4632C103.639 91.8483 107.259 96.6058 111.596 97.6558C112.651 97.9109 113.101 96.2858 112.044 96.0283L112.046 96.0308Z" fill="#231F20"/>
<path d="M101.387 43.9631V50.1032C101.387 51.1882 103.074 51.1907 103.074 50.1032V43.9631C103.074 42.8781 101.387 42.8756 101.387 43.9631Z" fill="#231F20"/>
<path d="M91.9741 73.1231C87.3415 73.1581 82.8464 74.2131 78.6789 76.2356C77.7014 76.7106 78.5564 78.1656 79.5314 77.6931C83.4289 75.8006 87.6465 74.8431 91.9765 74.8106C93.0616 74.8031 93.0641 73.1156 91.9765 73.1231H91.9741Z" fill="#231F20"/>
<path d="M112.716 81.4859C110.076 78.9834 107.056 76.9683 103.714 75.5233C102.726 75.0983 101.866 76.5508 102.861 76.9808C106.076 78.3684 108.981 80.2684 111.521 82.6784C112.309 83.4259 113.504 82.2334 112.714 81.4859H112.716Z" fill="#231F20"/>
<path d="M121.772 105.591C121.927 103.641 121.904 101.703 121.702 99.7584C121.589 98.6884 119.902 98.6784 120.014 99.7584C120.219 101.703 120.242 103.643 120.084 105.591C119.997 106.673 121.687 106.668 121.772 105.591Z" fill="#231F20"/>
<path d="M55.7705 111.076V146.839C55.7705 147.924 57.458 147.927 57.458 146.839V111.076C57.458 109.991 55.7705 109.989 55.7705 111.076Z" fill="#231F20"/>
<path d="M52.3586 143.142H91.9516C93.0367 143.142 93.0392 141.454 91.9516 141.454H52.3586C51.2736 141.454 51.2711 143.142 52.3586 143.142Z" fill="#231F20"/>
<path d="M61.4336 141.729V137.189C61.4336 136.104 59.7461 136.102 59.7461 137.189V141.729C59.7461 142.814 61.4336 142.817 61.4336 141.729Z" fill="#231F20"/>
<path d="M73.3711 141.729V137.189C73.3711 136.104 71.6836 136.102 71.6836 137.189V141.729C71.6836 142.814 73.3711 142.817 73.3711 141.729Z" fill="#231F20"/>
<path d="M64.4137 141.444V140.166C64.4137 139.724 64.0262 139.301 63.5686 139.321C63.1111 139.341 62.7236 139.691 62.7236 140.166V141.444C62.7236 141.887 63.1111 142.309 63.5686 142.289C64.0262 142.269 64.4137 141.919 64.4137 141.444Z" fill="#231F20"/>
<path d="M67.5064 141.444V140.166C67.5064 139.724 67.1189 139.301 66.6614 139.321C66.2039 139.341 65.8164 139.691 65.8164 140.166V141.444C65.8164 141.887 66.2039 142.309 66.6614 142.289C67.1189 142.269 67.5064 141.919 67.5064 141.444Z" fill="#231F20"/>
<path d="M70.6011 141.444V140.166C70.6011 139.724 70.2136 139.301 69.7561 139.321C69.2986 139.341 68.9111 139.691 68.9111 140.166V141.444C68.9111 141.887 69.2986 142.309 69.7561 142.289C70.2136 142.269 70.6011 141.919 70.6011 141.444Z" fill="#231F20"/>
<path d="M85.459 141.729V137.189C85.459 136.104 83.7715 136.102 83.7715 137.189V141.729C83.7715 142.814 85.459 142.817 85.459 141.729Z" fill="#231F20"/>
<path d="M76.5035 141.444V140.166C76.5035 139.724 76.116 139.301 75.6585 139.321C75.201 139.341 74.8135 139.691 74.8135 140.166V141.444C74.8135 141.887 75.201 142.309 75.6585 142.289C76.116 142.269 76.5035 141.919 76.5035 141.444Z" fill="#231F20"/>
<path d="M79.5963 141.444V140.166C79.5963 139.724 79.2088 139.301 78.7513 139.321C78.2938 139.341 77.9062 139.691 77.9062 140.166V141.444C77.9062 141.887 78.2938 142.309 78.7513 142.289C79.2088 142.269 79.5963 141.919 79.5963 141.444Z" fill="#231F20"/>
<path d="M82.689 141.444V140.166C82.689 139.724 82.3015 139.301 81.844 139.321C81.3865 139.341 80.999 139.691 80.999 140.166V141.444C80.999 141.887 81.3865 142.309 81.844 142.289C82.3015 142.269 82.689 141.919 82.689 141.444Z" fill="#231F20"/>
</svg>
